<?xml version="1.0" encoding="UTF-8" standalone="no"?>
<!DOCTYPE svg PUBLIC "-//W3C//DTD SVG 1.1//EN" "http://www.w3.org/Graphics/SVG/1.1/DTD/svg11.dtd">
<svg width="100%" height="100%" viewBox="0 0 1618 1000" version="1.1" xmlns="http://www.w3.org/2000/svg" xmlns:xlink="http://www.w3.org/1999/xlink" xml:space="preserve" xmlns:serif="http://www.serif.com/" style="fill-rule:evenodd;clip-rule:evenodd;stroke-linecap:round;stroke-linejoin:round;stroke-miterlimit:1.5;">
    <g transform="matrix(0.898021,0,0,0.898021,59.2156,99.7191)">
        <g transform="matrix(0.840586,0,0,0.840586,216.089,162.659)">
            <g transform="matrix(1,0,0,1,-5.37017,-6.76981)">
                <path d="M665.42,883.322C874.941,883.831 875.644,883.831 875.644,883.831" style="fill:none;stroke:black;stroke-width:7.95px;"/>
            </g>
            <g>
                <g transform="matrix(0.34123,0,0,0.34123,718.715,575.15)">
                    <path d="M665.42,883.322C874.941,883.831 875.644,883.831 875.644,883.831" style="fill:none;stroke:black;stroke-width:23.29px;"/>
                </g>
                <g transform="matrix(0.73102,0,0,0.73102,610.497,-16.9668)">
                    <path d="M132.978,1198.67C129.448,1201.67 126.05,1203.79 122.784,1205.02C119.519,1206.26 116.015,1206.88 112.273,1206.88C106.095,1206.88 101.347,1205.37 98.028,1202.35C94.71,1199.33 93.05,1195.47 93.05,1190.78C93.05,1188.03 93.677,1185.51 94.93,1183.23C96.184,1180.95 97.825,1179.13 99.855,1177.75C101.885,1176.38 104.171,1175.33 106.713,1174.63C108.584,1174.13 111.408,1173.66 115.185,1173.2C122.881,1172.28 128.547,1171.18 132.184,1169.91C132.219,1168.61 132.237,1167.78 132.237,1167.42C132.237,1163.54 131.336,1160.81 129.536,1159.22C127.1,1157.06 123.482,1155.99 118.68,1155.99C114.197,1155.99 110.887,1156.77 108.751,1158.34C106.616,1159.91 105.036,1162.69 104.012,1166.68L94.692,1165.41C95.539,1161.42 96.934,1158.2 98.875,1155.75C100.817,1153.3 103.624,1151.41 107.295,1150.08C110.967,1148.76 115.221,1148.1 120.057,1148.1C124.858,1148.1 128.759,1148.66 131.76,1149.79C134.761,1150.92 136.967,1152.34 138.379,1154.05C139.791,1155.77 140.78,1157.93 141.345,1160.54C141.662,1162.16 141.821,1165.1 141.821,1169.33L141.821,1182.04C141.821,1190.9 142.024,1196.51 142.43,1198.85C142.836,1201.2 143.639,1203.45 144.84,1205.61L134.884,1205.61C133.896,1203.63 133.26,1201.32 132.978,1198.67ZM132.184,1177.38C128.724,1178.79 123.534,1179.99 116.615,1180.98C112.697,1181.55 109.925,1182.18 108.301,1182.89C106.677,1183.59 105.424,1184.63 104.542,1185.99C103.659,1187.35 103.218,1188.85 103.218,1190.51C103.218,1193.06 104.18,1195.17 106.104,1196.87C108.028,1198.56 110.843,1199.41 114.55,1199.41C118.221,1199.41 121.487,1198.61 124.346,1197C127.206,1195.39 129.307,1193.2 130.648,1190.41C131.672,1188.25 132.184,1185.08 132.184,1180.88L132.184,1177.38Z" style="fill-rule:nonzero;"/>
                    <path d="M206.743,1193.06L206.743,1171.77L185.615,1171.77L185.615,1162.87L206.743,1162.87L206.743,1141.74L215.746,1141.74L215.746,1162.87L236.874,1162.87L236.874,1171.77L215.746,1171.77L215.746,1193.06L206.743,1193.06Z" style="fill-rule:nonzero;"/>
                    <path d="M288.981,1205.61L280.138,1205.61L280.138,1127.97L289.67,1127.97L289.67,1155.67C293.694,1150.62 298.831,1148.1 305.079,1148.1C308.539,1148.1 311.813,1148.79 314.902,1150.19C317.991,1151.58 320.533,1153.54 322.528,1156.07C324.522,1158.59 326.085,1161.64 327.214,1165.2C328.344,1168.77 328.909,1172.58 328.909,1176.64C328.909,1186.28 326.526,1193.73 321.76,1198.99C316.994,1204.25 311.275,1206.88 304.603,1206.88C297.966,1206.88 292.759,1204.11 288.981,1198.56L288.981,1205.61ZM288.875,1177.06C288.875,1183.81 289.793,1188.68 291.629,1191.68C294.63,1196.59 298.69,1199.04 303.808,1199.04C307.974,1199.04 311.575,1197.23 314.611,1193.61C317.647,1189.99 319.165,1184.6 319.165,1177.43C319.165,1170.09 317.709,1164.67 314.796,1161.18C311.884,1157.68 308.363,1155.93 304.232,1155.93C300.066,1155.93 296.465,1157.74 293.429,1161.36C290.393,1164.98 288.875,1170.21 288.875,1177.06Z" style="fill-rule:nonzero;"/>
                </g>
                <g transform="matrix(0.73102,0,0,0.73102,894.828,-18.2383)">
                    <path d="M132.978,1198.67C129.448,1201.67 126.05,1203.79 122.784,1205.02C119.519,1206.26 116.015,1206.88 112.273,1206.88C106.095,1206.88 101.347,1205.37 98.028,1202.35C94.71,1199.33 93.05,1195.47 93.05,1190.78C93.05,1188.03 93.677,1185.51 94.93,1183.23C96.184,1180.95 97.825,1179.13 99.855,1177.75C101.885,1176.38 104.171,1175.33 106.713,1174.63C108.584,1174.13 111.408,1173.66 115.185,1173.2C122.881,1172.28 128.547,1171.18 132.184,1169.91C132.219,1168.61 132.237,1167.78 132.237,1167.42C132.237,1163.54 131.336,1160.81 129.536,1159.22C127.1,1157.06 123.482,1155.99 118.68,1155.99C114.197,1155.99 110.887,1156.77 108.751,1158.34C106.616,1159.91 105.036,1162.69 104.012,1166.68L94.692,1165.41C95.539,1161.42 96.934,1158.2 98.875,1155.75C100.817,1153.3 103.624,1151.41 107.295,1150.08C110.967,1148.76 115.221,1148.1 120.057,1148.1C124.858,1148.1 128.759,1148.66 131.76,1149.79C134.761,1150.92 136.967,1152.34 138.379,1154.05C139.791,1155.77 140.78,1157.93 141.345,1160.54C141.662,1162.16 141.821,1165.1 141.821,1169.33L141.821,1182.04C141.821,1190.9 142.024,1196.51 142.43,1198.85C142.836,1201.2 143.639,1203.45 144.84,1205.61L134.884,1205.61C133.896,1203.63 133.26,1201.32 132.978,1198.67ZM132.184,1177.38C128.724,1178.79 123.534,1179.99 116.615,1180.98C112.697,1181.55 109.925,1182.18 108.301,1182.89C106.677,1183.59 105.424,1184.63 104.542,1185.99C103.659,1187.35 103.218,1188.85 103.218,1190.51C103.218,1193.06 104.18,1195.17 106.104,1196.87C108.028,1198.56 110.843,1199.41 114.55,1199.41C118.221,1199.41 121.487,1198.61 124.346,1197C127.206,1195.39 129.307,1193.2 130.648,1190.41C131.672,1188.25 132.184,1185.08 132.184,1180.88L132.184,1177.38Z" style="fill-rule:nonzero;"/>
                </g>
                <g transform="matrix(0.73102,0,0,0.73102,818.712,23.8168)">
                    <path d="M146.428,1159.96L95.169,1159.96L95.169,1151.06L146.428,1151.06L146.428,1159.96ZM146.428,1183.52L95.169,1183.52L95.169,1174.63L146.428,1174.63L146.428,1183.52Z" style="fill-rule:nonzero;"/>
                </g>
                <g transform="matrix(0.73102,0,0,0.73102,964.136,23.8168)">
                    <path d="M146.428,1159.96L95.169,1159.96L95.169,1151.06L146.428,1151.06L146.428,1159.96ZM146.428,1183.52L95.169,1183.52L95.169,1174.63L146.428,1174.63L146.428,1183.52Z" style="fill-rule:nonzero;"/>
                </g>
                <g transform="matrix(0.73102,0,0,0.73102,1091.31,23.8168)">
                    <path d="M146.428,1159.96L95.169,1159.96L95.169,1151.06L146.428,1151.06L146.428,1159.96ZM146.428,1183.52L95.169,1183.52L95.169,1174.63L146.428,1174.63L146.428,1183.52Z" style="fill-rule:nonzero;"/>
                </g>
                <g transform="matrix(0.73102,0,0,0.73102,678.445,61.635)">
                    <path d="M132.978,1198.67C129.448,1201.67 126.05,1203.79 122.784,1205.02C119.519,1206.26 116.015,1206.88 112.273,1206.88C106.095,1206.88 101.347,1205.37 98.028,1202.35C94.71,1199.33 93.05,1195.47 93.05,1190.78C93.05,1188.03 93.677,1185.51 94.93,1183.23C96.184,1180.95 97.825,1179.13 99.855,1177.75C101.885,1176.38 104.171,1175.33 106.713,1174.63C108.584,1174.13 111.408,1173.66 115.185,1173.2C122.881,1172.28 128.547,1171.18 132.184,1169.91C132.219,1168.61 132.237,1167.78 132.237,1167.42C132.237,1163.54 131.336,1160.81 129.536,1159.22C127.1,1157.06 123.482,1155.99 118.68,1155.99C114.197,1155.99 110.887,1156.77 108.751,1158.34C106.616,1159.91 105.036,1162.69 104.012,1166.68L94.692,1165.41C95.539,1161.42 96.934,1158.2 98.875,1155.75C100.817,1153.3 103.624,1151.41 107.295,1150.08C110.967,1148.76 115.221,1148.1 120.057,1148.1C124.858,1148.1 128.759,1148.66 131.76,1149.79C134.761,1150.92 136.967,1152.34 138.379,1154.05C139.791,1155.77 140.78,1157.93 141.345,1160.54C141.662,1162.16 141.821,1165.1 141.821,1169.33L141.821,1182.04C141.821,1190.9 142.024,1196.51 142.43,1198.85C142.836,1201.2 143.639,1203.45 144.84,1205.61L134.884,1205.61C133.896,1203.63 133.26,1201.32 132.978,1198.67ZM132.184,1177.38C128.724,1178.79 123.534,1179.99 116.615,1180.98C112.697,1181.55 109.925,1182.18 108.301,1182.89C106.677,1183.59 105.424,1184.63 104.542,1185.99C103.659,1187.35 103.218,1188.85 103.218,1190.51C103.218,1193.06 104.18,1195.17 106.104,1196.87C108.028,1198.56 110.843,1199.41 114.55,1199.41C118.221,1199.41 121.487,1198.61 124.346,1197C127.206,1195.39 129.307,1193.2 130.648,1190.41C131.672,1188.25 132.184,1185.08 132.184,1180.88L132.184,1177.38Z" style="fill-rule:nonzero;"/>
                </g>
                <g transform="matrix(0.73102,0,0,0.73102,896.545,64.097)">
                    <path d="M105.071,1205.61L96.228,1205.61L96.228,1127.97L105.76,1127.97L105.76,1155.67C109.784,1150.62 114.921,1148.1 121.169,1148.1C124.629,1148.1 127.903,1148.79 130.992,1150.19C134.081,1151.58 136.623,1153.54 138.618,1156.07C140.612,1158.59 142.174,1161.64 143.304,1165.2C144.434,1168.77 144.999,1172.58 144.999,1176.64C144.999,1186.28 142.616,1193.73 137.85,1198.99C133.084,1204.25 127.365,1206.88 120.693,1206.88C114.056,1206.88 108.849,1204.11 105.071,1198.56L105.071,1205.61ZM104.965,1177.06C104.965,1183.81 105.883,1188.68 107.719,1191.68C110.72,1196.59 114.779,1199.04 119.898,1199.04C124.064,1199.04 127.665,1197.23 130.701,1193.61C133.737,1189.99 135.255,1184.6 135.255,1177.43C135.255,1170.09 133.799,1164.67 130.886,1161.18C127.974,1157.68 124.452,1155.93 120.322,1155.93C116.156,1155.93 112.555,1157.74 109.519,1161.36C106.483,1164.98 104.965,1170.21 104.965,1177.06Z" style="fill-rule:nonzero;"/>
                </g>
                <g transform="matrix(0.73102,0,0,0.73102,1022.24,24.6032)">
                    <path d="M127.259,1125.64L137.532,1125.64L137.532,1135.23C148.405,1135.9 156.728,1139.08 162.5,1144.76C168.272,1150.44 171.158,1157.51 171.158,1165.94C171.158,1175.4 168.034,1182.87 161.785,1188.34C155.537,1193.81 147.452,1196.73 137.532,1197.08L137.532,1208.41L127.259,1208.41L127.259,1197.08C117.056,1196.69 108.901,1193.68 102.794,1188.05C96.687,1182.42 93.633,1175.21 93.633,1166.42C93.633,1160.66 94.957,1155.46 97.605,1150.8C100.252,1146.14 103.994,1142.47 108.831,1139.78C113.667,1137.1 119.81,1135.58 127.259,1135.23L127.259,1125.64ZM127.259,1144.12C119.987,1144.34 114.347,1146.33 110.34,1150.11C106.333,1153.89 104.33,1159.31 104.33,1166.37C104.33,1173.5 106.519,1178.92 110.896,1182.62C115.274,1186.33 120.728,1188.24 127.259,1188.34L127.259,1144.12ZM137.532,1188.34C144.769,1188.13 150.435,1186.1 154.53,1182.25C158.626,1178.4 160.673,1173.06 160.673,1166.21C160.673,1159.71 158.714,1154.41 154.795,1150.3C150.877,1146.18 145.122,1144.12 137.532,1144.12L137.532,1188.34Z" style="fill-rule:nonzero;"/>
                </g>
                <g transform="matrix(0.662727,0,0,0.662727,1151.51,102.563)">
                    <path d="M129.536,1205.61L120.004,1205.61L120.004,1144.87C117.71,1147.06 114.7,1149.24 110.976,1151.43C107.251,1153.62 103.906,1155.26 100.941,1156.36L100.941,1147.14C106.271,1144.64 110.931,1141.6 114.921,1138.04C118.91,1134.47 121.734,1131.01 123.393,1127.66L129.536,1127.66L129.536,1205.61Z" style="fill-rule:nonzero;"/>
                    <rect x="159.296" y="1194.75" width="10.856" height="10.856" style="fill-rule:nonzero;"/>
                    <path d="M233.538,1146.99L224.059,1147.73C223.212,1143.98 222.012,1141.27 220.458,1139.57C217.881,1136.85 214.704,1135.49 210.927,1135.49C207.891,1135.49 205.225,1136.34 202.931,1138.04C199.93,1140.23 197.565,1143.42 195.835,1147.62C194.105,1151.82 193.205,1157.81 193.134,1165.57C195.429,1162.08 198.235,1159.48 201.554,1157.79C204.872,1156.09 208.35,1155.25 211.986,1155.25C218.34,1155.25 223.75,1157.59 228.216,1162.26C232.682,1166.94 234.915,1172.99 234.915,1180.4C234.915,1185.27 233.865,1189.8 231.764,1193.98C229.664,1198.16 226.778,1201.37 223.106,1203.59C219.435,1205.82 215.269,1206.93 210.609,1206.93C202.666,1206.93 196.188,1204.01 191.175,1198.16C186.162,1192.32 183.655,1182.69 183.655,1169.28C183.655,1154.28 186.427,1143.37 191.969,1136.55C196.806,1130.62 203.319,1127.66 211.509,1127.66C217.617,1127.66 222.621,1129.37 226.522,1132.79C230.423,1136.22 232.761,1140.95 233.538,1146.99ZM194.617,1180.45C194.617,1183.74 195.314,1186.88 196.708,1189.88C198.103,1192.88 200.053,1195.16 202.56,1196.74C205.066,1198.31 207.696,1199.09 210.45,1199.09C214.475,1199.09 217.934,1197.47 220.829,1194.22C223.724,1190.97 225.171,1186.56 225.171,1180.98C225.171,1175.62 223.742,1171.39 220.882,1168.3C218.023,1165.21 214.422,1163.67 210.079,1163.67C205.772,1163.67 202.119,1165.21 199.118,1168.3C196.117,1171.39 194.617,1175.44 194.617,1180.45Z" style="fill-rule:nonzero;"/>
                    <path d="M280.297,1205.61L270.765,1205.61L270.765,1144.87C268.47,1147.06 265.461,1149.24 261.736,1151.43C258.012,1153.62 254.667,1155.26 251.701,1156.36L251.701,1147.14C257.032,1144.64 261.692,1141.6 265.681,1138.04C269.671,1134.47 272.495,1131.01 274.154,1127.66L280.297,1127.66L280.297,1205.61Z" style="fill-rule:nonzero;"/>
                    <path d="M319.377,1163.51C315.423,1162.06 312.493,1159.99 310.587,1157.31C308.68,1154.63 307.727,1151.42 307.727,1147.67C307.727,1142.03 309.757,1137.28 313.817,1133.43C317.877,1129.58 323.278,1127.66 330.021,1127.66C336.799,1127.66 342.253,1129.62 346.384,1133.56C350.514,1137.5 352.579,1142.29 352.579,1147.94C352.579,1151.54 351.635,1154.67 349.746,1157.34C347.858,1160 344.989,1162.06 341.141,1163.51C345.907,1165.06 349.534,1167.57 352.023,1171.03C354.512,1174.49 355.757,1178.62 355.757,1183.42C355.757,1190.06 353.409,1195.63 348.714,1200.15C344.018,1204.67 337.84,1206.93 330.18,1206.93C322.519,1206.93 316.341,1204.66 311.646,1200.12C306.95,1195.59 304.603,1189.93 304.603,1183.15C304.603,1178.1 305.883,1173.88 308.442,1170.47C311.001,1167.06 314.646,1164.74 319.377,1163.51ZM317.471,1147.36C317.471,1151.03 318.653,1154.03 321.019,1156.36C323.384,1158.69 326.455,1159.85 330.233,1159.85C333.904,1159.85 336.914,1158.7 339.261,1156.38C341.609,1154.07 342.783,1151.24 342.783,1147.88C342.783,1144.39 341.574,1141.45 339.155,1139.07C336.737,1136.68 333.728,1135.49 330.127,1135.49C326.491,1135.49 323.472,1136.66 321.072,1138.99C318.671,1141.32 317.471,1144.11 317.471,1147.36ZM314.399,1183.21C314.399,1185.92 315.044,1188.55 316.332,1191.1C317.621,1193.64 319.536,1195.61 322.078,1197C324.619,1198.39 327.355,1199.09 330.286,1199.09C334.84,1199.09 338.599,1197.63 341.565,1194.7C344.53,1191.77 346.013,1188.04 346.013,1183.52C346.013,1178.93 344.486,1175.14 341.432,1172.14C338.379,1169.14 334.557,1167.64 329.968,1167.64C325.484,1167.64 321.769,1169.12 318.821,1172.09C315.873,1175.05 314.399,1178.76 314.399,1183.21Z" style="fill-rule:nonzero;"/>
                    <path d="M365.024,1167.32C365.024,1158.14 365.968,1150.75 367.857,1145.16C369.745,1139.56 372.552,1135.25 376.276,1132.21C380.001,1129.17 384.687,1127.66 390.336,1127.66C394.501,1127.66 398.155,1128.5 401.297,1130.17C404.439,1131.85 407.034,1134.27 409.082,1137.43C411.129,1140.59 412.735,1144.43 413.9,1148.97C415.065,1153.51 415.648,1159.62 415.648,1167.32C415.648,1176.43 414.712,1183.78 412.841,1189.38C410.97,1194.97 408.173,1199.3 404.448,1202.35C400.724,1205.4 396.02,1206.93 390.336,1206.93C382.852,1206.93 376.974,1204.25 372.702,1198.88C367.583,1192.42 365.024,1181.9 365.024,1167.32ZM374.82,1167.32C374.82,1180.06 376.312,1188.55 379.295,1192.76C382.278,1196.98 385.958,1199.09 390.336,1199.09C394.713,1199.09 398.394,1196.97 401.377,1192.74C404.36,1188.5 405.851,1180.03 405.851,1167.32C405.851,1154.54 404.36,1146.05 401.377,1141.85C398.394,1137.65 394.678,1135.55 390.23,1135.55C385.852,1135.55 382.357,1137.4 379.745,1141.11C376.462,1145.84 374.82,1154.58 374.82,1167.32Z" style="fill-rule:nonzero;"/>
                    <path d="M425.391,1185.11L434.923,1183.84C436.018,1189.24 437.88,1193.13 440.51,1195.52C443.14,1197.9 446.344,1199.09 450.121,1199.09C454.605,1199.09 458.391,1197.54 461.48,1194.43C464.569,1191.33 466.113,1187.48 466.113,1182.89C466.113,1178.51 464.684,1174.9 461.824,1172.06C458.964,1169.22 455.328,1167.8 450.915,1167.8C449.115,1167.8 446.873,1168.15 444.19,1168.86L445.249,1160.49C445.885,1160.56 446.397,1160.59 446.785,1160.59C450.845,1160.59 454.499,1159.54 457.747,1157.42C460.994,1155.3 462.618,1152.03 462.618,1147.62C462.618,1144.12 461.436,1141.23 459.07,1138.94C456.705,1136.64 453.651,1135.49 449.909,1135.49C446.202,1135.49 443.113,1136.66 440.642,1138.99C438.171,1141.32 436.582,1144.81 435.876,1149.47L426.345,1147.78C427.51,1141.39 430.157,1136.44 434.288,1132.93C438.418,1129.41 443.555,1127.66 449.697,1127.66C453.934,1127.66 457.835,1128.57 461.4,1130.38C464.966,1132.2 467.693,1134.68 469.582,1137.82C471.471,1140.97 472.415,1144.3 472.415,1147.83C472.415,1151.19 471.515,1154.24 469.714,1156.99C467.914,1159.75 465.248,1161.94 461.718,1163.56C466.307,1164.62 469.873,1166.82 472.415,1170.15C474.957,1173.49 476.228,1177.66 476.228,1182.68C476.228,1189.45 473.756,1195.2 468.814,1199.91C463.872,1204.63 457.623,1206.98 450.068,1206.98C443.255,1206.98 437.597,1204.95 433.096,1200.89C428.595,1196.83 426.027,1191.57 425.391,1185.11Z" style="fill-rule:nonzero;"/>
                </g>
            </g>
        </g>
        <g transform="matrix(0.812508,0,0,0.812508,143.244,-52.0423)">
            <path d="M133.825,1175.16L133.825,1166.05L166.71,1166L166.71,1194.8C161.662,1198.83 156.454,1201.85 151.088,1203.88C145.722,1205.91 140.215,1206.93 134.567,1206.93C126.941,1206.93 120.013,1205.3 113.782,1202.03C107.551,1198.77 102.847,1194.04 99.67,1187.87C96.493,1181.69 94.904,1174.79 94.904,1167.16C94.904,1159.61 96.484,1152.55 99.643,1146.01C102.803,1139.46 107.348,1134.59 113.279,1131.42C119.21,1128.24 126.041,1126.65 133.772,1126.65C139.385,1126.65 144.46,1127.56 148.997,1129.38C153.533,1131.2 157.09,1133.73 159.667,1136.98C162.244,1140.23 164.203,1144.46 165.545,1149.69L156.278,1152.23C155.113,1148.27 153.665,1145.17 151.936,1142.91C150.206,1140.65 147.735,1138.84 144.522,1137.48C141.309,1136.12 137.744,1135.44 133.825,1135.44C129.13,1135.44 125.07,1136.16 121.646,1137.59C118.221,1139.02 115.459,1140.89 113.358,1143.23C111.258,1145.56 109.625,1148.12 108.46,1150.9C106.483,1155.7 105.495,1160.91 105.495,1166.53C105.495,1173.44 106.686,1179.23 109.069,1183.89C111.452,1188.55 114.921,1192.01 119.475,1194.27C124.029,1196.53 128.865,1197.66 133.984,1197.66C138.432,1197.66 142.775,1196.81 147.011,1195.09C151.247,1193.38 154.46,1191.56 156.649,1189.61L156.649,1175.16L133.825,1175.16Z" style="fill-rule:nonzero;"/>
            <path d="M177.089,1177.49C177.089,1167.07 179.984,1159.36 185.773,1154.35C190.61,1150.18 196.505,1148.1 203.46,1148.1C211.191,1148.1 217.511,1150.63 222.418,1155.7C227.325,1160.76 229.778,1167.76 229.778,1176.69C229.778,1183.93 228.693,1189.62 226.522,1193.77C224.351,1197.92 221.191,1201.14 217.043,1203.43C212.895,1205.73 208.367,1206.88 203.46,1206.88C195.588,1206.88 189.224,1204.35 184.37,1199.3C179.516,1194.26 177.089,1186.98 177.089,1177.49ZM186.885,1177.49C186.885,1184.69 188.456,1190.08 191.598,1193.66C194.74,1197.25 198.694,1199.04 203.46,1199.04C208.191,1199.04 212.127,1197.24 215.269,1193.64C218.411,1190.04 219.982,1184.55 219.982,1177.17C219.982,1170.21 218.402,1164.94 215.242,1161.36C212.083,1157.78 208.155,1155.99 203.46,1155.99C198.694,1155.99 194.74,1157.77 191.598,1161.34C188.456,1164.9 186.885,1170.29 186.885,1177.49Z" style="fill-rule:nonzero;"/>
            <rect x="240.74" y="1127.97" width="9.532" height="77.631" style="fill-rule:nonzero;"/>
            <path d="M301.531,1205.61L301.531,1198.51C297.966,1204.09 292.723,1206.88 285.804,1206.88C281.321,1206.88 277.199,1205.64 273.439,1203.17C269.679,1200.7 266.767,1197.25 264.702,1192.82C262.637,1188.39 261.604,1183.29 261.604,1177.54C261.604,1171.93 262.539,1166.83 264.41,1162.26C266.282,1157.69 269.088,1154.19 272.83,1151.75C276.572,1149.32 280.756,1148.1 285.38,1148.1C288.769,1148.1 291.788,1148.81 294.436,1150.24C297.083,1151.67 299.237,1153.53 300.896,1155.83L300.896,1127.97L310.375,1127.97L310.375,1205.61L301.531,1205.61ZM271.4,1177.54C271.4,1184.74 272.918,1190.12 275.955,1193.69C278.991,1197.26 282.574,1199.04 286.704,1199.04C290.87,1199.04 294.409,1197.34 297.322,1193.93C300.234,1190.52 301.69,1185.32 301.69,1178.33C301.69,1170.64 300.208,1164.99 297.242,1161.39C294.277,1157.79 290.623,1155.99 286.281,1155.99C282.044,1155.99 278.505,1157.72 275.663,1161.18C272.821,1164.64 271.4,1170.09 271.4,1177.54Z" style="fill-rule:nonzero;"/>
            <path d="M363.859,1187.5L373.708,1188.71C372.155,1194.47 369.278,1198.93 365.077,1202.11C360.876,1205.29 355.509,1206.88 348.978,1206.88C340.753,1206.88 334.231,1204.34 329.412,1199.28C324.593,1194.21 322.184,1187.11 322.184,1177.96C322.184,1168.5 324.619,1161.16 329.491,1155.93C334.363,1150.71 340.682,1148.1 348.449,1148.1C355.968,1148.1 362.111,1150.66 366.877,1155.78C371.643,1160.89 374.026,1168.1 374.026,1177.38C374.026,1177.95 374.008,1178.79 373.973,1179.92L332.033,1179.92C332.386,1186.1 334.134,1190.83 337.276,1194.11C340.418,1197.4 344.336,1199.04 349.031,1199.04C352.526,1199.04 355.509,1198.12 357.981,1196.29C360.452,1194.45 362.411,1191.52 363.859,1187.5ZM332.563,1172.09L363.965,1172.09C363.541,1167.36 362.341,1163.81 360.364,1161.44C357.328,1157.77 353.391,1155.93 348.555,1155.93C344.177,1155.93 340.497,1157.4 337.514,1160.33C334.531,1163.26 332.88,1167.18 332.563,1172.09Z" style="fill-rule:nonzero;"/>
            <path d="M385.676,1205.61L385.676,1149.37L394.254,1149.37L394.254,1157.36C398.385,1151.19 404.351,1148.1 412.153,1148.1C415.542,1148.1 418.657,1148.71 421.499,1149.92C424.341,1151.14 426.468,1152.74 427.88,1154.72C429.292,1156.69 430.281,1159.04 430.846,1161.76C431.199,1163.52 431.375,1166.61 431.375,1171.03L431.375,1205.61L421.844,1205.61L421.844,1171.4C421.844,1167.51 421.473,1164.61 420.731,1162.69C419.99,1160.76 418.675,1159.23 416.786,1158.08C414.898,1156.93 412.682,1156.36 410.141,1156.36C406.081,1156.36 402.577,1157.65 399.629,1160.22C396.681,1162.8 395.208,1167.69 395.208,1174.89L395.208,1205.61L385.676,1205.61Z" style="fill-rule:nonzero;"/>
            <path d="M477.498,1205.61L477.498,1127.97L511.919,1127.97C518.838,1127.97 524.098,1128.67 527.699,1130.07C531.3,1131.46 534.177,1133.92 536.331,1137.45C538.484,1140.98 539.561,1144.88 539.561,1149.16C539.561,1154.66 537.778,1159.31 534.212,1163.08C530.647,1166.86 525.14,1169.26 517.691,1170.29C520.409,1171.59 522.474,1172.88 523.886,1174.15C526.887,1176.9 529.729,1180.35 532.412,1184.48L545.915,1205.61L532.995,1205.61L522.721,1189.45C519.721,1184.79 517.249,1181.23 515.308,1178.76C513.366,1176.29 511.627,1174.56 510.092,1173.57C508.556,1172.58 506.994,1171.89 505.405,1171.5C504.24,1171.26 502.334,1171.13 499.686,1171.13L487.772,1171.13L487.772,1205.61L477.498,1205.61ZM487.772,1162.24L509.854,1162.24C514.549,1162.24 518.22,1161.75 520.868,1160.78C523.516,1159.81 525.528,1158.26 526.905,1156.12C528.282,1153.98 528.97,1151.66 528.97,1149.16C528.97,1145.49 527.637,1142.47 524.972,1140.1C522.307,1137.74 518.097,1136.55 512.342,1136.55L487.772,1136.55L487.772,1162.24Z" style="fill-rule:nonzero;"/>
            <path d="M591.138,1198.67C587.608,1201.67 584.21,1203.79 580.945,1205.02C577.679,1206.26 574.175,1206.88 570.433,1206.88C564.255,1206.88 559.507,1205.37 556.189,1202.35C552.87,1199.33 551.211,1195.47 551.211,1190.78C551.211,1188.03 551.837,1185.51 553.091,1183.23C554.344,1180.95 555.986,1179.13 558.015,1177.75C560.045,1176.38 562.331,1175.33 564.873,1174.63C566.744,1174.13 569.568,1173.66 573.346,1173.2C581.042,1172.28 586.708,1171.18 590.344,1169.91C590.379,1168.61 590.397,1167.78 590.397,1167.42C590.397,1163.54 589.497,1160.81 587.696,1159.22C585.26,1157.06 581.642,1155.99 576.841,1155.99C572.357,1155.99 569.048,1156.77 566.912,1158.34C564.776,1159.91 563.196,1162.69 562.172,1166.68L552.852,1165.41C553.7,1161.42 555.094,1158.2 557.036,1155.75C558.977,1153.3 561.784,1151.41 565.456,1150.08C569.127,1148.76 573.381,1148.1 578.217,1148.1C583.019,1148.1 586.92,1148.66 589.92,1149.79C592.921,1150.92 595.128,1152.34 596.54,1154.05C597.952,1155.77 598.94,1157.93 599.505,1160.54C599.823,1162.16 599.982,1165.1 599.982,1169.33L599.982,1182.04C599.982,1190.9 600.185,1196.51 600.591,1198.85C600.997,1201.2 601.8,1203.45 603,1205.61L593.045,1205.61C592.056,1203.63 591.421,1201.32 591.138,1198.67ZM590.344,1177.38C586.884,1178.79 581.695,1179.99 574.775,1180.98C570.857,1181.55 568.086,1182.18 566.462,1182.89C564.838,1183.59 563.584,1184.63 562.702,1185.99C561.819,1187.35 561.378,1188.85 561.378,1190.51C561.378,1193.06 562.34,1195.17 564.264,1196.87C566.188,1198.56 569.003,1199.41 572.71,1199.41C576.382,1199.41 579.647,1198.61 582.507,1197C585.366,1195.39 587.467,1193.2 588.808,1190.41C589.832,1188.25 590.344,1185.08 590.344,1180.88L590.344,1177.38Z" style="fill-rule:nonzero;"/>
            <path d="M635.567,1197.08L636.944,1205.5C634.261,1206.06 631.86,1206.35 629.742,1206.35C626.282,1206.35 623.599,1205.8 621.693,1204.7C619.787,1203.61 618.445,1202.17 617.668,1200.39C616.892,1198.61 616.503,1194.86 616.503,1189.14L616.503,1156.78L609.513,1156.78L609.513,1149.37L616.503,1149.37L616.503,1135.44L625.982,1129.72L625.982,1149.37L635.567,1149.37L635.567,1156.78L625.982,1156.78L625.982,1189.67C625.982,1192.38 626.15,1194.13 626.485,1194.91C626.821,1195.68 627.368,1196.3 628.127,1196.76C628.886,1197.22 629.971,1197.45 631.384,1197.45C632.443,1197.45 633.837,1197.33 635.567,1197.08Z" style="fill-rule:nonzero;"/>
            <path d="M644.94,1138.94L644.94,1127.97L654.472,1127.97L654.472,1138.94L644.94,1138.94ZM644.94,1205.61L644.94,1149.37L654.472,1149.37L654.472,1205.61L644.94,1205.61Z" style="fill-rule:nonzero;"/>
            <path d="M665.433,1177.49C665.433,1167.07 668.328,1159.36 674.118,1154.35C678.954,1150.18 684.85,1148.1 691.804,1148.1C699.536,1148.1 705.855,1150.63 710.762,1155.7C715.669,1160.76 718.123,1167.76 718.123,1176.69C718.123,1183.93 717.037,1189.62 714.866,1193.77C712.695,1197.92 709.535,1201.14 705.387,1203.43C701.239,1205.73 696.711,1206.88 691.804,1206.88C683.932,1206.88 677.569,1204.35 672.714,1199.3C667.86,1194.26 665.433,1186.98 665.433,1177.49ZM675.23,1177.49C675.23,1184.69 676.801,1190.08 679.943,1193.66C683.085,1197.25 687.039,1199.04 691.804,1199.04C696.535,1199.04 700.471,1197.24 703.613,1193.64C706.755,1190.04 708.326,1184.55 708.326,1177.17C708.326,1170.21 706.746,1164.94 703.587,1161.36C700.427,1157.78 696.5,1155.99 691.804,1155.99C687.039,1155.99 683.085,1157.77 679.943,1161.34C676.801,1164.9 675.23,1170.29 675.23,1177.49Z" style="fill-rule:nonzero;"/>
        </g>
    </g>
    <g>
        <g transform="matrix(1,0,0,1,149.671,-11)">
            <g transform="matrix(1,0,0,1,-2.71809,0)">
                <path d="M106.799,743.238L106.771,743.238L106.771,55.834L794.175,55.834L794.175,743.238L106.799,743.238ZM794.175,55.876C614.916,55.971 451.601,124.801 329.181,237.419C192.597,363.068 106.919,543.223 106.799,743.238C106.919,543.223 192.597,363.068 329.181,237.419C451.601,124.801 614.915,55.971 794.175,55.876Z" style="fill:none;stroke:black;stroke-width:10px;"/>
            </g>
            <g transform="matrix(1,0,0,1,-2.82466,0)">
                <path d="M1219.1,480.634L1218.42,480.634L794.299,480.634L794.299,56.516L794.299,55.834L1219.1,55.834L1219.1,480.634ZM794.299,56.516C911.237,56.746 1017.15,104.307 1093.89,181.045L1094.79,181.945C1171,258.61 1218.19,364.153 1218.42,480.634C1218.19,364.153 1171,258.61 1094.79,181.945L1094.79,181.945L1094.21,181.365L1093.89,181.045L1093.89,181.045C1017.15,104.307 911.238,56.746 794.299,56.516Z" style="fill:none;stroke:black;stroke-width:10px;"/>
            </g>
            <g transform="matrix(3.78378e-17,0.617938,-0.617938,3.78378e-17,1250.78,-10.085)">
                <path d="M1219.1,480.634L1218.42,480.634L794.299,480.634L794.299,56.516L794.299,55.834L1219.1,55.834L1219.1,480.634ZM794.299,56.516C911.237,56.746 1017.15,104.307 1093.89,181.045L1094.79,181.945C1171,258.61 1218.19,364.153 1218.42,480.634C1218.19,364.153 1171,258.61 1094.79,181.945L1094.79,181.945L1094.21,181.365L1093.89,181.045L1093.89,181.045C1017.15,104.307 911.238,56.746 794.299,56.516Z" style="fill:none;stroke:black;stroke-width:16.18px;"/>
            </g>
            <g transform="matrix(-0.381827,4.67603e-17,-4.67603e-17,-0.381827,1256.95,764.624)">
                <path d="M1219.1,480.634L1218.42,480.634L794.299,480.634L794.299,56.516L794.299,55.834L1219.1,55.834L1219.1,480.634ZM794.299,56.516C911.237,56.746 1017.15,104.307 1093.89,181.045L1094.79,181.945C1171,258.61 1218.19,364.153 1218.42,480.634C1218.19,364.153 1171,258.61 1094.79,181.945L1094.79,181.945L1094.21,181.365L1093.89,181.045L1093.89,181.045C1017.15,104.307 911.238,56.746 794.299,56.516Z" style="fill:none;stroke:black;stroke-width:26.19px;"/>
            </g>
            <g transform="matrix(1.45066e-17,-0.23691,0.23691,1.45066e-17,778.243,769.395)">
                <path d="M1219.1,480.634L1218.42,480.634L794.299,480.634L794.299,56.516L794.299,55.834L1219.1,55.834L1219.1,480.634ZM794.299,56.516C911.237,56.746 1017.15,104.307 1093.89,181.045L1094.79,181.945C1171,258.61 1218.19,364.153 1218.42,480.634C1218.19,364.153 1171,258.61 1094.79,181.945L1094.79,181.945L1094.21,181.365L1093.89,181.045L1093.89,181.045C1017.15,104.307 911.238,56.746 794.299,56.516Z" style="fill:none;stroke:black;stroke-width:42.21px;"/>
            </g>
            <g transform="matrix(0.14511,1.54074e-33,0,0.14511,776.896,472.476)">
                <path d="M1219.1,480.634L1218.42,480.634L794.299,480.634L794.299,56.516L794.299,55.834L1219.1,55.834L1219.1,480.634ZM794.299,56.516C911.237,56.746 1017.15,104.307 1093.89,181.045L1094.79,181.945C1171,258.61 1218.19,364.153 1218.42,480.634C1218.19,364.153 1171,258.61 1094.79,181.945L1094.79,181.945L1094.21,181.365L1093.89,181.045L1093.89,181.045C1017.15,104.307 911.238,56.746 794.299,56.516Z" style="fill:none;stroke:black;stroke-width:68.91px;"/>
            </g>
            <g transform="matrix(5.59705e-18,0.0914067,-0.0914067,5.59705e-18,958.904,469.759)">
                <path d="M1219.1,480.634L1218.42,480.634L794.299,480.634L794.299,56.516L794.299,55.834L1219.1,55.834L1219.1,480.634ZM794.299,56.516C911.237,56.746 1017.15,104.307 1093.89,181.045L1094.79,181.945C1171,258.61 1218.19,364.153 1218.42,480.634C1218.19,364.153 1171,258.61 1094.79,181.945L1094.79,181.945L1094.21,181.365L1093.89,181.045L1093.89,181.045C1017.15,104.307 911.238,56.746 794.299,56.516Z" style="fill:none;stroke:black;stroke-width:109.4px;"/>
            </g>
            <g transform="matrix(-0.0535191,-6.55419e-18,6.55419e-18,-0.0535191,957.427,584.181)">
                <path d="M1219.1,480.634L1218.42,480.634L794.299,480.634L794.299,56.516L794.299,55.834L1219.1,55.834L1219.1,480.634ZM794.299,56.516C911.237,56.746 1017.15,104.307 1093.89,181.045L1094.79,181.945C1171,258.61 1218.19,364.153 1218.42,480.634C1218.19,364.153 1171,258.61 1094.79,181.945L1094.79,181.945L1094.21,181.365L1093.89,181.045L1093.89,181.045C1017.15,104.307 911.238,56.746 794.299,56.516Z" style="fill:none;stroke:black;stroke-width:186.85px;"/>
            </g>
            <g transform="matrix(2.35983e-18,-0.038539,0.038539,2.35983e-18,890.03,589.267)">
                <path d="M1219.1,480.634L1218.42,480.634L794.299,480.634L794.299,56.516L794.299,55.834L1219.1,55.834L1219.1,480.634ZM794.299,56.516C911.237,56.746 1017.15,104.307 1093.89,181.045L1094.79,181.945C1171,258.61 1218.19,364.153 1218.42,480.634C1218.19,364.153 1171,258.61 1094.79,181.945L1094.79,181.945L1094.21,181.365L1093.89,181.045L1093.89,181.045C1017.15,104.307 911.238,56.746 794.299,56.516Z" style="fill:none;stroke:black;stroke-width:259.48px;"/>
            </g>
        </g>
        <g transform="matrix(1,0,0,1,0,9)">
            <g>
                <g transform="matrix(0.614486,0,0,0.614486,524.36,92.4267)">
                    <path d="M132.978,1198.67C129.448,1201.67 126.05,1203.79 122.784,1205.02C119.519,1206.26 116.015,1206.88 112.273,1206.88C106.095,1206.88 101.347,1205.37 98.028,1202.35C94.71,1199.33 93.05,1195.47 93.05,1190.78C93.05,1188.03 93.677,1185.51 94.93,1183.23C96.184,1180.95 97.825,1179.13 99.855,1177.75C101.885,1176.38 104.171,1175.33 106.713,1174.63C108.584,1174.13 111.408,1173.66 115.185,1173.2C122.881,1172.28 128.547,1171.18 132.184,1169.91C132.219,1168.61 132.237,1167.78 132.237,1167.42C132.237,1163.54 131.336,1160.81 129.536,1159.22C127.1,1157.06 123.482,1155.99 118.68,1155.99C114.197,1155.99 110.887,1156.77 108.751,1158.34C106.616,1159.91 105.036,1162.69 104.012,1166.68L94.692,1165.41C95.539,1161.42 96.934,1158.2 98.875,1155.75C100.817,1153.3 103.624,1151.41 107.295,1150.08C110.967,1148.76 115.221,1148.1 120.057,1148.1C124.858,1148.1 128.759,1148.66 131.76,1149.79C134.761,1150.92 136.967,1152.34 138.379,1154.05C139.791,1155.77 140.78,1157.93 141.345,1160.54C141.662,1162.16 141.821,1165.1 141.821,1169.33L141.821,1182.04C141.821,1190.9 142.024,1196.51 142.43,1198.85C142.836,1201.2 143.639,1203.45 144.84,1205.61L134.884,1205.61C133.896,1203.63 133.26,1201.32 132.978,1198.67ZM132.184,1177.38C128.724,1178.79 123.534,1179.99 116.615,1180.98C112.697,1181.55 109.925,1182.18 108.301,1182.89C106.677,1183.59 105.424,1184.63 104.542,1185.99C103.659,1187.35 103.218,1188.85 103.218,1190.51C103.218,1193.06 104.18,1195.17 106.104,1196.87C108.028,1198.56 110.843,1199.41 114.55,1199.41C118.221,1199.41 121.487,1198.61 124.346,1197C127.206,1195.39 129.307,1193.2 130.648,1190.41C131.672,1188.25 132.184,1185.08 132.184,1180.88L132.184,1177.38Z" style="fill-rule:nonzero;"/>
                </g>
                <g transform="matrix(1,0,0,1,0,-6.81116)">
                    <path d="M253.655,784.69L941.055,784.69" style="fill:none;stroke:black;stroke-width:10px;"/>
                    <g transform="matrix(1,0,0,1,-1.04267,22.5872)">
                        <path d="M254.659,784.561L254.659,740.911" style="fill:none;stroke:black;stroke-width:10px;"/>
                    </g>
                    <g transform="matrix(1,0,0,1,686.387,22.5872)">
                        <path d="M254.659,784.561L254.659,740.911" style="fill:none;stroke:black;stroke-width:10px;"/>
                    </g>
                </g>
            </g>
            <g>
                <g transform="matrix(0.614486,0,0,0.614486,1079.62,92.4267)">
                    <path d="M105.071,1205.61L96.228,1205.61L96.228,1127.97L105.76,1127.97L105.76,1155.67C109.784,1150.62 114.921,1148.1 121.169,1148.1C124.629,1148.1 127.903,1148.79 130.992,1150.19C134.081,1151.58 136.623,1153.54 138.618,1156.07C140.612,1158.59 142.174,1161.64 143.304,1165.2C144.434,1168.77 144.999,1172.58 144.999,1176.64C144.999,1186.28 142.616,1193.73 137.85,1198.99C133.084,1204.25 127.365,1206.88 120.693,1206.88C114.056,1206.88 108.849,1204.11 105.071,1198.56L105.071,1205.61ZM104.965,1177.06C104.965,1183.81 105.883,1188.68 107.719,1191.68C110.72,1196.59 114.779,1199.04 119.898,1199.04C124.064,1199.04 127.665,1197.23 130.701,1193.61C133.737,1189.99 135.255,1184.6 135.255,1177.43C135.255,1170.09 133.799,1164.67 130.886,1161.18C127.974,1157.68 124.452,1155.93 120.322,1155.93C116.156,1155.93 112.555,1157.74 109.519,1161.36C106.483,1164.98 104.965,1170.21 104.965,1177.06Z" style="fill-rule:nonzero;"/>
                </g>
                <g transform="matrix(0.616482,0,0,1,785.294,-6.81116)">
                    <path d="M253.655,784.69L941.055,784.69" style="fill:none;stroke:black;stroke-width:12.04px;"/>
                    <g transform="matrix(1,0,0,1,-1.04267,22.5872)">
                        <path d="M254.659,784.561L254.659,740.911" style="fill:none;stroke:black;stroke-width:12.04px;"/>
                    </g>
                    <g transform="matrix(1,0,0,1,686.387,22.5872)">
                        <path d="M254.659,784.561L254.659,740.911" style="fill:none;stroke:black;stroke-width:12.04px;"/>
                    </g>
                </g>
            </g>
        </g>
    </g>
</svg>
