<?xml version="1.0" encoding="UTF-8" standalone="no"?>
<!DOCTYPE svg PUBLIC "-//W3C//DTD SVG 1.1//EN" "http://www.w3.org/Graphics/SVG/1.1/DTD/svg11.dtd">
<svg width="100%" height="100%" viewBox="0 0 1000 1000" version="1.1" xmlns="http://www.w3.org/2000/svg" xmlns:xlink="http://www.w3.org/1999/xlink" xml:space="preserve" xmlns:serif="http://www.serif.com/" style="fill-rule:evenodd;clip-rule:evenodd;stroke-linejoin:round;stroke-miterlimit:1.41421;">
    <g transform="matrix(1.08334,0,0,1.08334,-43.9363,-41.5895)">
        <g transform="matrix(0.943615,0,0,0.943615,28.7005,28.3399)">
            <rect x="12.564" y="10.651" width="978.229" height="978.229" style="fill:rgb(85,1,2);"/>
            <path d="M990.793,988.88L12.564,988.88L12.564,10.651L990.793,10.651L990.793,988.88ZM90.823,88.909L90.823,910.621L912.535,910.621L912.535,88.909L90.823,88.909Z" style="fill:rgb(253,36,37);"/>
        </g>
        <g transform="matrix(1.18575,0,0,1.07014,-229.446,-33.77)">
            <path d="M354.209,712.215C370.849,714.135 397.089,716.695 423.969,716.695C483.489,716.695 525.729,702.615 555.169,675.095C592.929,641.815 615.329,579.735 615.329,492.695C615.329,408.855 596.129,351.895 559.009,318.615C531.489,293.015 493.729,280.215 439.329,280.215C406.049,280.215 375.329,283.415 354.209,288.535L354.209,712.215ZM438.049,349.335C443.169,347.415 448.929,347.415 454.689,347.415C505.249,347.415 528.289,401.175 528.289,489.495C528.289,608.535 493.089,648.215 452.769,648.215C448.289,648.215 442.529,648.215 438.049,646.935L438.049,349.335Z" style="fill:rgb(253,37,36);fill-rule:nonzero;stroke:rgb(253,37,36);stroke-width:0.82px;"/>
            <path d="M645.316,713.495L729.156,713.495L729.156,522.775C729.156,510.615 731.076,500.375 733.636,493.975C739.396,475.415 750.916,465.815 764.996,465.815C789.316,465.815 795.716,491.415 795.716,517.655L795.716,713.495L879.556,713.495L879.556,512.535C879.556,442.775 855.876,395.415 796.356,395.415C763.716,395.415 736.836,412.055 720.836,436.375L719.556,436.375L715.076,400.535L642.756,400.535C644.036,430.615 645.316,460.695 645.316,494.615L645.316,713.495Z" style="fill:rgb(253,37,36);fill-rule:nonzero;stroke:rgb(253,37,36);stroke-width:0.82px;"/>
        </g>
    </g>
</svg>
