<?xml version="1.0" encoding="UTF-8" standalone="no"?><!DOCTYPE svg PUBLIC "-//W3C//DTD SVG 1.1//EN" "http://www.w3.org/Graphics/SVG/1.1/DTD/svg11.dtd"><svg width="100%" height="100%" viewBox="0 0 691 336" version="1.1" xmlns="http://www.w3.org/2000/svg" xmlns:xlink="http://www.w3.org/1999/xlink" xml:space="preserve" xmlns:serif="http://www.serif.com/" style="fill-rule:evenodd;clip-rule:evenodd;"><path id="path5" d="M190.113,240.053c-4.53,2.872 1.092,3.354 3.056,3.458c1.92,0.102 5.895,0.952 9.942,-6.201c4.729,-8.354 17.686,-30.652 17.686,-30.652c0,0 9.801,-15.939 25.995,-14.713c0,0 -12.564,-9.11 -30.202,7.032c-10.776,9.864 -17.058,35.106 -26.477,41.076Z" style="fill:#8f0000;fill-rule:nonzero;stroke:#000;stroke-width:0.63px;"/><path id="path7" d="M234.86,192.099l0,26.208c0,0 -0.32,1.303 1.357,1.303c1.677,0 2.837,-1.111 2.837,-1.111l0,-27.779c0.001,-0.001 -2.281,-1.694 -4.194,1.379Z" style="fill:#ffbf00;fill-rule:nonzero;stroke:#000;stroke-width:0.63px;"/><path id="path9" d="M225.093,217.676c-0.252,-0.077 -0.575,-2.554 -0.633,-2.809c-0.467,-2.071 -0.934,-4.142 -1.4,-6.213c-0.428,-1.899 -0.79,-3.781 -1.178,-5.665c-0.261,-1.277 -1.223,-3.242 0.268,-4.169c0.757,-0.471 2.08,-0.52 2.771,0.604c0,0 3.793,16.355 4.229,18.616l-1.481,0.418c-0.001,0.002 -2.574,-0.781 -2.576,-0.782Z" style="fill:#ffbf00;fill-rule:nonzero;stroke:#000;stroke-width:0.63px;"/><path id="path11" d="M197.382,213.011c0,0 -0.992,22.292 -0.994,22.356c-0.051,1.132 0.549,3.308 2.035,3.327c2.748,0.035 2.219,-5.278 2.293,-6.928c0.137,-2.936 0.271,-5.871 0.406,-8.806c0.038,-0.83 -0.082,-10.987 0.514,-11.156l-4.254,1.207Z" style="fill:#ffbf00;fill-rule:nonzero;stroke:#000;stroke-width:0.63px;"/><path id="path13" d="M160.034,228.38c0.736,0.831 2.307,0.914 5.129,-0.236c4.166,-1.697 6.588,-9.005 8.684,-12.624c1.869,-3.227 3.74,-6.453 5.613,-9.678c0,0 9.801,-15.939 25.996,-14.713c0,0 -12.564,-9.11 -30.203,7.033c-4.538,4.153 -7.557,9.839 -10.358,15.229c-1.126,2.169 -7.201,12.35 -4.861,14.989Z" style="fill:#8f0000;fill-rule:nonzero;stroke:#000;stroke-width:0.63px;"/><path id="path15" d="M234.86,217.294l0,19.9c0,0 -0.8,0.504 1.357,1.071c2.158,0.567 2.797,0.189 2.797,0.189l0.04,-22.293l-4.194,1.133Z" style="fill:#7dff00;fill-rule:nonzero;stroke:#000;stroke-width:0.57px;"/><path id="path17" d="M226.869,215.548l2.237,2.146l3.196,16.705c0,0 -2.077,3.985 -3.676,2.452c-1.599,-1.532 -0.879,-2.222 -0.879,-2.222l-2.655,-16.953l1.777,-2.128Z" style="fill:#7dff00;fill-rule:nonzero;stroke:#000;stroke-width:0.63px;"/><path id="path19" d="M198.302,191.625l-0.963,21.613c0,0 -0.368,1.061 1.309,1.13c1.677,0.068 2.875,-0.8 2.875,-0.8l1.02,-22.908c-0.001,-0.001 -2.218,-1.491 -4.241,0.965Z" style="fill:#7dff00;fill-rule:nonzero;stroke:#000;stroke-width:0.63px;"/><path id="path21" d="M189.548,216.318l0.086,24.196l-1.687,1.618l-1.75,-1.679l-0.56,-23.679c0,0 -0.337,-1.686 1.758,-1.686c2.096,0 2.153,1.23 2.153,1.23Z" style="fill:#ffbf00;fill-rule:nonzero;stroke:#000;stroke-width:0.63px;"/><path id="path23" d="M184.999,195.624c0,0 -0.64,-2.452 1.438,-2.912c2.078,-0.46 2.078,1.379 2.078,1.379l1.119,24.062l-1.998,1.916l-1.998,-1.916l-0.639,-22.529Z" style="fill:#7dff00;fill-rule:nonzero;stroke:#000;stroke-width:0.63px;"/><path id="path25" d="M178.753,215.948l2.875,14.481l-3.021,-0.935l-1.918,-3.065l-0.715,-9.824c0,0.001 2.086,-1.811 2.779,-0.657Z" style="fill:#7dff00;fill-rule:nonzero;stroke:#000;stroke-width:0.63px;"/><path id="path27" d="M213.661,203.958c1.235,-0.637 2.639,0.244 2.541,2.125c-0.201,3.87 -3.898,6.803 -4.813,10.515c-0.236,0.961 -2.086,-1.705 -2.155,-1.969c-0.388,-1.494 0.117,-2.345 0.777,-3.69c0.979,-1.992 1.447,-4.196 2.685,-6.073c0.283,-0.431 0.618,-0.73 0.965,-0.908Z" style="fill:#7dff00;fill-rule:nonzero;stroke:#000;stroke-width:0.63px;"/><path id="path29" d="M211.083,216.509c-0.812,1.757 -2.195,10.86 -5.578,8.656c-2.34,-1.523 1.111,-6.434 1.877,-8.126c0.434,-0.962 0.756,-2.089 1.323,-2.969c0.257,1.305 2.073,1.647 3.143,1.024c-0.289,0.457 -0.54,0.93 -0.765,1.415Z" style="fill:#ffbf00;fill-rule:nonzero;stroke:#000;stroke-width:0.63px;"/><path id="path31" d="M162.196,199.824c-1.053,1.051 -1.46,2.981 -0.587,5.824c3.364,10.949 10.252,22.504 16.572,32.072c0.003,0.004 4.05,6.131 8.098,7.766c0,0 6.392,-1.227 10.014,0c0,0 3.246,-1.947 7.363,-9.133c0,0 -3.74,5.66 -7.363,5.66c-3.622,0 -9.482,-5.824 -9.482,-7.663c-3.746,-7.303 -7.492,-14.606 -11.239,-21.91c-1.625,-3.168 -3.087,-6.514 -4.911,-9.574c-2.33,-3.91 -6.51,-4.993 -8.465,-3.042Z" style="fill:#f00;fill-rule:nonzero;stroke:#000;stroke-width:0.63px;"/><path id="path33" d="M73.824,148.716c-4.53,2.995 1.092,3.498 3.056,3.606c1.92,0.106 5.895,0.992 9.942,-6.465c4.729,-8.711 17.686,-31.962 17.686,-31.962c0,0 9.801,-16.621 25.995,-15.342c0,0 -12.564,-9.5 -30.202,7.333c-10.776,10.284 -17.058,36.604 -26.477,42.83Z" style="fill:#8f0000;fill-rule:nonzero;stroke:#000;stroke-width:0.64px;"/><path id="path35" d="M118.571,98.712l0,27.328c0,0 -0.32,1.358 1.357,1.358c1.677,0 2.837,-1.159 2.837,-1.159l0,-28.965c0.001,0 -2.282,-1.765 -4.194,1.438Z" style="fill:#ffbf00;fill-rule:nonzero;stroke:#000;stroke-width:0.64px;"/><path id="path37" d="M108.804,125.383c-0.252,-0.081 -0.575,-2.663 -0.633,-2.929c-0.467,-2.16 -0.934,-4.319 -1.4,-6.479c-0.428,-1.98 -0.79,-3.942 -1.178,-5.907c-0.261,-1.331 -1.223,-3.38 0.268,-4.347c0.757,-0.491 2.08,-0.542 2.771,0.63c0,0 3.793,17.054 4.229,19.412l-1.481,0.436c-0.001,0.001 -2.574,-0.816 -2.576,-0.816Z" style="fill:#ffbf00;fill-rule:nonzero;stroke:#000;stroke-width:0.64px;"/><path id="path39" d="M81.093,120.518c0,0 -0.992,23.245 -0.994,23.311c-0.051,1.181 0.549,3.45 2.035,3.47c2.748,0.037 2.219,-5.504 2.293,-7.224c0.137,-3.061 0.271,-6.122 0.406,-9.183c0.038,-0.866 -0.082,-11.457 0.514,-11.633l-4.254,1.259Z" style="fill:#ffbf00;fill-rule:nonzero;stroke:#000;stroke-width:0.64px;"/><path id="path41" d="M56.045,108.858c2.086,-1.71 9.19,-3.74 10.231,0.232c5.231,-7.04 13.947,-12.094 22.891,-11.388c-0.731,-0.058 -2.02,-1.142 -2.74,-1.428c-2.478,-0.982 -5.181,-1.354 -7.835,-1.213c-4.236,0.226 -8.29,1.787 -11.897,3.958c-3.57,2.149 -9.235,5.64 -10.65,9.839Z" style="fill:#8f0000;fill-rule:nonzero;stroke:#000;stroke-width:0.64px;"/><path id="path43" d="M118.571,125.241l0,25.25c0,0 -0.8,0.64 1.357,1.358c2.158,0.719 2.797,0.24 2.797,0.24l0.04,-28.286l-4.194,1.438Z" style="fill:#7dff00;fill-rule:nonzero;stroke:#000;stroke-width:0.64px;"/><path id="path45" d="M110.58,123.164l2.237,2.237l3.196,17.419c0,0 -2.077,4.155 -3.676,2.557c-1.599,-1.598 -0.879,-2.317 -0.879,-2.317l-2.655,-17.677l1.777,-2.219Z" style="fill:#7dff00;fill-rule:nonzero;stroke:#000;stroke-width:0.64px;"/><path id="path47" d="M82.013,98.218l-0.963,22.536c0,0 -0.368,1.106 1.309,1.178c1.677,0.071 2.875,-0.834 2.875,-0.834l1.02,-23.887c-0.001,0 -2.218,-1.553 -4.241,1.007Z" style="fill:#7dff00;fill-rule:nonzero;stroke:#000;stroke-width:0.64px;"/><path id="path49" d="M73.259,123.966l0.086,25.229l-1.687,1.687l-1.75,-1.75l-0.56,-24.69c0,0 -0.337,-1.758 1.758,-1.758c2.096,0 2.153,1.282 2.153,1.282Z" style="fill:#ffbf00;fill-rule:nonzero;stroke:#000;stroke-width:0.64px;"/><path id="path51" d="M68.71,102.388c0,0 -0.64,-2.557 1.438,-3.037c2.078,-0.479 2.078,1.438 2.078,1.438l1.119,25.09l-1.998,1.998l-1.998,-1.998l-0.639,-23.491Z" style="fill:#7dff00;fill-rule:nonzero;stroke:#000;stroke-width:0.64px;"/><path id="path53" d="M97.372,111.078c1.235,-0.664 2.639,0.255 2.541,2.216c-0.201,4.035 -3.898,7.093 -4.813,10.964c-0.236,1.002 -2.086,-1.778 -2.155,-2.053c-0.388,-1.558 0.117,-2.445 0.777,-3.848c0.979,-2.077 1.447,-4.375 2.685,-6.332c0.283,-0.449 0.618,-0.761 0.965,-0.947Z" style="fill:#7dff00;fill-rule:nonzero;stroke:#000;stroke-width:0.64px;"/><path id="path55" d="M94.794,124.166c-0.812,1.832 -2.195,11.324 -5.578,9.025c-2.34,-1.588 1.111,-6.709 1.877,-8.474c0.434,-1.003 0.756,-2.179 1.323,-3.096c0.257,1.361 2.073,1.717 3.143,1.068c-0.289,0.478 -0.54,0.971 -0.765,1.477Z" style="fill:#ffbf00;fill-rule:nonzero;stroke:#000;stroke-width:0.64px;"/><rect id="rect57" x="187.278" y="86.925" width="18.01" height="71.695" style="fill:#c9930a;stroke:#000;stroke-width:0.52px;"/><ellipse id="ellipse59" cx="248.261" cy="153.339" rx="9.856" ry="15.342" style="fill:#0060b6;stroke:#000;stroke-width:0.67px;"/><path id="path61" d="M218.144,99.345l0,28.782c0,0 -0.32,1.431 1.358,1.431c1.678,0 2.836,-1.221 2.836,-1.221l0,-30.507c0,0 -2.281,-1.859 -4.194,1.515Z" style="fill:#ffbf00;fill-rule:nonzero;stroke:#000;stroke-width:0.66px;"/><path id="path63" d="M205.519,99.243l0,29.477c0,0 -0.32,1.465 1.358,1.465c1.678,0 2.836,-1.25 2.836,-1.25l0,-31.244c0,0 -2.281,-1.904 -4.194,1.552Z" style="fill:#ffbf00;fill-rule:nonzero;stroke:#000;stroke-width:0.66px;"/><path id="path65" d="M190.67,98.377l0,25.398c0,0 -0.32,1.263 1.358,1.263c1.678,0 2.836,-1.076 2.836,-1.076l0,-26.923c0,0 -2.281,-1.641 -4.194,1.338Z" style="fill:#ffbf00;fill-rule:nonzero;stroke:#000;stroke-width:0.62px;"/><path id="path67" d="M241.17,98.744l0,20.435c0,0 -0.32,1.016 1.358,1.016c1.678,0 2.836,-0.866 2.836,-0.866l0,-21.66c0,-0.001 -2.281,-1.321 -4.194,1.075Z" style="fill:#ffbf00;fill-rule:nonzero;stroke:#000;stroke-width:0.55px;"/><path id="path69" d="M229.024,98.523l0,21.622c0,0 -0.32,1.074 1.358,1.074c1.678,0 2.836,-0.916 2.836,-0.916l0,-22.918c0.001,0 -2.281,-1.397 -4.194,1.138Z" style="fill:#ffbf00;fill-rule:nonzero;stroke:#000;stroke-width:0.57px;"/><path id="path86" d="M375.021,100.306c0.107,1.728 0.402,3.457 0.905,5.177c0.929,3.176 4.056,5.71 4.802,8.817c1.444,6.023 -7.646,12.857 -12.439,7.857c-1.938,-2.021 -3.089,-4.57 -4.083,-6.905c-2.089,-4.906 -2.427,-10.129 -2.427,-15.243c0,-13.264 5.234,-24.017 11.689,-24.018c3.535,0 4.191,1.423 5.008,4.361c1.006,3.618 -0.998,6.411 -2.067,9.741c-1.079,3.36 -1.601,6.786 -1.388,10.213Z" style="fill:url(#_Linear1);fill-rule:nonzero;"/><path id="path88" d="M179.523,100.522l0,29.477c0,0 -0.319,1.466 1.358,1.466c1.678,0 2.836,-1.25 2.836,-1.25l0,-31.245c0,0 -2.281,-1.904 -4.194,1.552Z" style="fill:#ffbf00;fill-rule:nonzero;stroke:#000;stroke-width:0.66px;"/><path id="path90" d="M167.217,100.019l0,24.138c0,0 -0.32,1.2 1.358,1.2c1.678,0 2.836,-1.023 2.836,-1.023l0,-25.585c0.001,0 -2.281,-1.56 -4.194,1.27Z" style="fill:#ffbf00;fill-rule:nonzero;stroke:#000;stroke-width:0.6px;"/><rect id="rect92" x="335.711" y="181.505" width="23.865" height="64.35" style="fill:#c9930a;stroke:#000;stroke-width:0.57px;"/><path id="path94" d="M252.579,148.445l-0.616,8.086l26.918,-0.163c-1.083,-1.638 -1.319,-6.414 -0.107,-7.923l-26.195,0Z" style="fill:#bf0000;fill-rule:nonzero;stroke:#000;stroke-width:0.39px;"/><path id="path96" d="M338.999,135.175l0,15.318c0,0 -0.8,0.388 1.358,0.824c2.157,0.437 2.797,0.145 2.797,0.145l0.039,-17.158l-4.194,0.871Z" style="fill:#7dff00;fill-rule:nonzero;stroke:#000;stroke-width:0.69px;"/><path id="path98" d="M293.108,148.658l-0.933,8.086l46.368,-0.163c-1.641,-1.638 -1.999,-6.414 -0.161,-7.924l-45.274,0l0,0.001Z" style="fill:#bf0000;fill-rule:nonzero;stroke:#000;stroke-width:0.48px;"/><path id="path100" d="M430.559,241.46c0.005,-0.003 7.604,-4.7 7.604,-4.7l-6.166,-0.893l-35.957,0l-95.887,0l-48.825,0c-2.177,0 -4.63,-0.32 -6.785,0c-2.028,0.301 -3.314,1.137 -5.504,0.974c-2.527,-0.189 -4.851,-1.749 -7.458,-1.181c4.806,8.958 23.888,5.8 32.442,5.8l157.495,0c1.858,0 7.389,1.021 9.041,0Z" style="fill:#bf0000;fill-rule:nonzero;stroke:#000;stroke-width:0.64px;"/><path id="path121" d="M544.207,168.135c0.043,1.42 0.095,2.838 0.151,4.254c0.341,8.482 -1.199,21.365 5.095,28.064c3.35,3.565 7.521,8.427 5.949,13.851c-2.129,7.35 -11.485,7.649 -15.387,2.224c-3.248,-4.518 -5.178,-10.218 -6.846,-15.438c-3.504,-10.968 -4.07,-22.645 -4.07,-34.078c0,-29.654 8.777,-53.693 19.603,-53.696c9.308,-0.002 8.925,7.931 5.658,14.425c-0.671,1.333 -1.532,3.39 -2.679,4.381c-1.5,1.299 -2.967,0.433 -4.096,1.351c-1.836,1.496 -1.771,5.635 -2.122,7.785c-1.45,8.873 -1.53,17.902 -1.256,26.877Z" style="fill:url(#_Linear2);fill-rule:nonzero;"/><path id="path123" d="M452.638,185.975l15.056,16.954l1.237,1.394c0,0 -0.185,0.995 1.893,0.085c2.077,-0.91 2.246,-1.683 2.246,-1.683l-18.223,-20.58l-2.209,3.83Z" style="fill:#7dff00;fill-rule:nonzero;stroke:#000;stroke-width:0.63px;"/><path id="path125" d="M449.681,201.479l7.752,8.728l0.637,0.718c0,0 -0.385,0.77 1.467,-0.394c1.852,-1.164 2.171,-1.768 2.171,-1.768l-9.367,-10.608l-2.66,3.324Z" style="fill:#7dff00;fill-rule:nonzero;stroke:#000;stroke-width:0.45px;"/><path id="path127" d="M440.228,209.846l8.025,9.037l0.659,0.743c0,0 -0.378,0.777 1.483,-0.376c1.86,-1.154 2.173,-1.765 2.173,-1.765l-9.698,-10.982l-2.642,3.343Z" style="fill:#7dff00;fill-rule:nonzero;stroke:#000;stroke-width:0.46px;"/><path id="path129" d="M423.593,209.645l14.36,16.171l1.181,1.329c0,0 -0.205,0.975 1.852,0.04c2.056,-0.935 2.238,-1.691 2.238,-1.691l-17.38,-19.631l-2.251,3.782Z" style="fill:#7dff00;fill-rule:nonzero;stroke:#000;stroke-width:0.62px;"/><path id="path131" d="M423.982,225.358l4.615,10.438l0.38,0.858c0,0 -0.604,0.61 1.511,0.059c2.115,-0.55 2.605,-1.023 2.605,-1.023l-5.559,-12.671l-3.552,2.339Z" style="fill:#7dff00;fill-rule:nonzero;stroke:#000;stroke-width:0.45px;"/><path id="path133" d="M593.112,192.46c-4.53,2.995 1.092,3.498 3.056,3.606c1.92,0.106 5.895,0.992 9.942,-6.465c4.729,-8.711 17.686,-31.962 17.686,-31.962c0,0 9.801,-16.621 25.995,-15.342c0,0 -12.564,-9.5 -30.202,7.333c-10.777,10.284 -17.058,36.604 -26.477,42.83Z" style="fill:#8f0000;fill-rule:nonzero;stroke:#000;stroke-width:0.64px;"/><path id="path135" d="M637.859,142.457l0,27.328c0,0 -0.32,1.358 1.357,1.358c1.677,0 2.837,-1.159 2.837,-1.159l0,-28.966c0,0 -2.282,-1.765 -4.194,1.439Z" style="fill:#ffbf00;fill-rule:nonzero;stroke:#000;stroke-width:0.64px;"/><path id="path137" d="M628.091,169.127c-0.252,-0.081 -0.575,-2.663 -0.633,-2.929c-0.467,-2.16 -0.934,-4.319 -1.4,-6.479c-0.428,-1.98 -0.79,-3.942 -1.178,-5.907c-0.261,-1.331 -1.223,-3.38 0.268,-4.347c0.757,-0.491 2.08,-0.542 2.771,0.63c0,0 3.793,17.054 4.229,19.412l-1.481,0.436c0,0.001 -2.574,-0.816 -2.576,-0.816Z" style="fill:#ffbf00;fill-rule:nonzero;stroke:#000;stroke-width:0.64px;"/><path id="path139" d="M600.38,164.262c0,0 -0.992,23.245 -0.994,23.311c-0.051,1.181 0.549,3.45 2.035,3.47c2.748,0.037 2.219,-5.504 2.293,-7.224c0.137,-3.061 0.271,-6.122 0.406,-9.183c0.038,-0.866 -0.082,-11.457 0.514,-11.633l-4.254,1.259Z" style="fill:#ffbf00;fill-rule:nonzero;stroke:#000;stroke-width:0.73px;"/><path id="path141" d="M558.724,144.603c3.473,-1.099 -1.094,-3.672 -2.319,-4.05c-1.993,-0.615 -4.247,-0.977 -6.339,-0.959c-2.488,0.02 -1.801,-1.483 -4.231,-0.658c-3.364,1.141 -8.032,0.468 -11.505,0.473c-7.708,0.013 -15.417,-0.14 -23.123,-0.306c-15.906,-0.344 -31.635,-0.412 -37.252,-4.501c-4.115,-2.996 -8.155,-6.848 -11.033,-11.076c-3.549,-5.212 -4.822,-13.161 -9.497,-17.492c-1.591,-1.474 -3.939,-2.619 -5.761,-3.946c-1.713,-1.249 -5.357,-1.812 -6.551,-2.851c4.523,3.939 6.475,9.965 8.736,15.309c2.5,5.904 6.363,10.753 9.813,16.099c3.576,5.542 10.986,11.284 17.344,13.003c7.242,1.958 31.705,1.593 35.906,1.619c5.793,0.035 27.084,0.472 32.002,0.313c3.988,-0.129 7.91,0.176 11.886,0.382c0.862,0.044 1.41,-1.196 1.924,-1.359Z" style="fill:#bf0000;fill-rule:nonzero;stroke:#000;stroke-width:0.64px;"/><path id="path143" d="M551.775,191.61c-4.53,2.995 1.092,3.497 3.057,3.606c1.92,0.106 5.893,0.992 9.941,-6.465c4.729,-8.712 17.686,-31.962 17.686,-31.962c0,0 9.801,-16.62 25.996,-15.342c0,0 -12.564,-9.499 -30.203,7.333c-10.777,10.284 -17.057,36.604 -26.477,42.83Z" style="fill:#8f0000;fill-rule:nonzero;stroke:#000;stroke-width:0.64px;"/><path id="path145" d="M637.859,168.985l0,25.25c0,0 -0.8,0.64 1.357,1.358c2.158,0.719 2.797,0.24 2.797,0.24l0.04,-28.286l-4.194,1.438Z" style="fill:#7dff00;fill-rule:nonzero;stroke:#000;stroke-width:0.64px;"/><path id="path147" d="M629.868,166.908l2.237,2.237l3.196,17.419c0,0 -2.077,4.155 -3.676,2.557c-1.599,-1.598 -0.879,-2.317 -0.879,-2.317l-2.655,-17.677l1.777,-2.219Z" style="fill:#7dff00;fill-rule:nonzero;stroke:#000;stroke-width:0.64px;"/><path id="path149" d="M618.894,150.394c0,0 8.098,-9.588 18.539,-10.867l10.227,0c0,0 8.83,1.066 10.867,5.114c0,0 -5.326,3.623 -5.326,5.327c0,0 -9.803,-10.441 -18.752,-8.097c-5.949,1.558 -15.555,8.523 -15.555,8.523Z" style="fill:#f00;fill-rule:nonzero;stroke:#000;stroke-width:0.64px;"/><path id="path151" d="M601.3,141.962l-0.963,22.536c0,0 -0.368,1.106 1.309,1.178c1.677,0.071 2.875,-0.834 2.875,-0.834l1.02,-23.887c0,0 -2.217,-1.553 -4.241,1.007Z" style="fill:#7dff00;fill-rule:nonzero;stroke:#000;stroke-width:0.64px;"/><path id="path153" d="M592.546,167.71l0.086,25.229l-1.687,1.687l-1.75,-1.75l-0.56,-24.69c0,0 -0.337,-1.758 1.758,-1.758c2.097,0 2.153,1.282 2.153,1.282Z" style="fill:#ffbf00;fill-rule:nonzero;stroke:#000;stroke-width:0.73px;"/><path id="path155" d="M587.998,146.132c0,0 -0.64,-2.557 1.438,-3.037c2.078,-0.479 2.078,1.438 2.078,1.438l1.119,25.09l-1.998,1.998l-1.998,-1.998l-0.639,-23.491Z" style="fill:#7dff00;fill-rule:nonzero;stroke:#000;stroke-width:0.64px;"/><path id="path157" d="M576.81,156.68c0,0 -0.799,-1.918 1.918,-1.918c2.717,0 1.678,1.039 1.678,1.039l1.762,15.179l-1.122,1.122l-1.598,-1.598l-2.638,-13.824Z" style="fill:#7dff00;fill-rule:nonzero;stroke:#000;stroke-width:0.64px;"/><path id="path159" d="M581.752,167.325l2.875,15.1l-3.021,-0.974l-1.918,-3.196l-0.715,-10.244c-0.001,-0.001 2.085,-1.889 2.779,-0.686Z" style="fill:#ffbf00;fill-rule:nonzero;stroke:#000;stroke-width:0.73px;"/><path id="path161" d="M616.66,154.822c1.235,-0.664 2.639,0.255 2.541,2.216c-0.201,4.035 -3.898,7.093 -4.813,10.964c-0.236,1.002 -2.086,-1.778 -2.155,-2.053c-0.388,-1.558 0.117,-2.445 0.777,-3.848c0.979,-2.077 1.447,-4.375 2.685,-6.332c0.282,-0.449 0.617,-0.761 0.965,-0.947Z" style="fill:#7dff00;fill-rule:nonzero;stroke:#000;stroke-width:0.64px;"/><path id="path163" d="M614.082,167.91c-0.812,1.832 -2.195,11.324 -5.578,9.025c-2.34,-1.588 1.111,-6.709 1.877,-8.474c0.434,-1.003 0.756,-2.179 1.323,-3.096c0.257,1.361 2.073,1.717 3.143,1.068c-0.29,0.478 -0.541,0.971 -0.765,1.477Z" style="fill:#ffbf00;fill-rule:nonzero;stroke:#000;stroke-width:0.73px;"/><path id="path165" d="M593.005,141.338c0,0 3.941,-0.533 12.039,7.564c8.948,8.948 20.469,34.726 21.629,38.248c5.857,17.792 8.202,8.417 15.34,10.867c0,0 3.247,1.598 7.363,-9.524c0,0 -3.74,9.524 -7.363,5.901c-1.811,-1.811 -3.713,-5.862 -6.285,-11.187c-2.572,-5.324 -14.383,-30.363 -19.496,-35.478c-5.114,-5.114 -7.459,-7.244 -14.703,-9.162c0,0 -4.336,0.287 -8.311,0c0,0 -10.279,1.474 -14.967,10.211c0.001,0.001 7.723,-8.718 14.754,-7.44Z" style="fill:#f00;fill-rule:nonzero;stroke:#000;stroke-width:0.64px;"/><path id="path167" d="M558.83,165.871c0,0 -0.991,20.667 -0.994,20.726c-0.051,1.051 0.55,3.067 2.035,3.085c2.748,0.032 2.219,-4.894 2.294,-6.423c0.136,-2.721 0.271,-5.442 0.405,-8.164c0.039,-0.77 -0.082,-10.186 0.514,-10.343l-4.254,1.119Z" style="fill:#7dff00;fill-rule:nonzero;stroke:#000;stroke-width:0.6px;"/><path id="path169" d="M559.75,146.044l-0.963,20.037c0,0 -0.367,0.984 1.309,1.048c1.678,0.063 2.875,-0.742 2.875,-0.742l1.02,-21.238c-0.001,0 -2.218,-1.381 -4.241,0.895Z" style="fill:#ffbf00;fill-rule:nonzero;stroke:#000;stroke-width:0.55px;"/><path id="path171" d="M549.004,143.169l0,26.556c0,0 -0.319,1.32 1.359,1.32c1.678,0 2.836,-1.126 2.836,-1.126l0,-28.148c0,0 -2.281,-1.715 -4.195,1.398Z" style="fill:#ffbf00;fill-rule:nonzero;stroke:#000;stroke-width:0.63px;"/><path id="path173" d="M549.004,168.948l0,24.538c0,0 -0.799,0.621 1.359,1.32c2.156,0.699 2.796,0.233 2.796,0.233l0.04,-27.488l-4.195,1.397Z" style="fill:#7dff00;fill-rule:nonzero;stroke:#000;stroke-width:0.63px;"/><path id="path175" d="M536.499,144.401l0,34.658c0,0 -0.319,1.723 1.358,1.723c1.677,0 2.836,-1.469 2.836,-1.469l0,-36.735c0,-0.001 -2.281,-2.24 -4.194,1.823Z" style="fill:#ffbf00;fill-rule:nonzero;stroke:#000;stroke-width:0.72px;"/><path id="path177" d="M536.499,178.577l0,12.633c0,0 -0.799,0.319 1.358,0.679c2.157,0.36 2.797,0.12 2.797,0.12l0.039,-14.152l-4.194,0.72Z" style="fill:#7dff00;fill-rule:nonzero;stroke:#000;stroke-width:0.45px;"/><path id="path179" d="M523.874,144.278l0,35.495c0,0 -0.319,1.765 1.358,1.765c1.677,0 2.836,-1.505 2.836,-1.505l0,-37.623c0,0 -2.281,-2.293 -4.194,1.868Z" style="fill:#ffbf00;fill-rule:nonzero;stroke:#000;stroke-width:0.73px;"/><path id="path181" d="M523.874,178.557l0,13.079c0,0 -0.799,0.331 1.358,0.704c2.157,0.372 2.797,0.124 2.797,0.124l0.039,-14.651l-4.194,0.744Z" style="fill:#7dff00;fill-rule:nonzero;stroke:#000;stroke-width:0.46px;"/><path id="path183" d="M511.568,143.41l0,25.33c0,0 -0.319,1.259 1.359,1.259c1.678,0 2.836,-1.074 2.836,-1.074l0,-26.849c0,0.001 -2.281,-1.636 -4.195,1.334Z" style="fill:#ffbf00;fill-rule:nonzero;stroke:#000;stroke-width:0.62px;"/><path id="path185" d="M511.568,167.36l0,23.405c0,0 -0.799,0.593 1.359,1.259c2.156,0.667 2.796,0.222 2.796,0.222l0.04,-26.219l-4.195,1.333Z" style="fill:#7dff00;fill-rule:nonzero;stroke:#000;stroke-width:0.62px;"/><path id="path187" d="M499.422,143.85l0,35.909c0,0 -0.319,1.785 1.358,1.785c1.677,0 2.837,-1.522 2.837,-1.522l0,-38.062c0.001,0 -2.281,-2.32 -4.195,1.89Z" style="fill:#ffbf00;fill-rule:nonzero;stroke:#000;stroke-width:0.73px;"/><path id="path189" d="M499.422,179.688l0,12.351c0,0 -0.799,0.313 1.358,0.665c2.158,0.352 2.797,0.117 2.797,0.117l0.04,-13.836l-4.195,0.703Z" style="fill:#7dff00;fill-rule:nonzero;stroke:#000;stroke-width:0.45px;"/><path id="path191" d="M484.833,142.833l-5.21,26.04c0,0 -0.572,1.232 1.072,1.561c1.646,0.33 3.003,-0.547 3.003,-0.547l5.522,-27.601c0,-0.001 -1.901,-2.131 -4.387,0.547Z" style="fill:#ffbf00;fill-rule:nonzero;stroke:#000;stroke-width:0.63px;"/><path id="path193" d="M481.132,173.565l6.195,19.528l0.51,1.605c0,0 -0.592,0.777 1.656,0.726c2.248,-0.051 2.729,-0.646 2.729,-0.646l-7.474,-23.687l-3.616,2.474Z" style="fill:#7dff00;fill-rule:nonzero;stroke:#000;stroke-width:0.6px;"/><path id="path195" d="M473.005,139.795l-9.565,24.773c0,0 -0.773,1.116 0.792,1.721c1.565,0.604 3.052,-0.029 3.052,-0.029l10.139,-26.259c-0.001,0.001 -1.511,-2.421 -4.418,-0.206Z" style="fill:#ffbf00;fill-rule:nonzero;stroke:#000;stroke-width:0.63px;"/><path id="path197" d="M481.697,196.733l-11.471,-19.558l-0.943,-1.607c0,0 0.375,-0.94 -1.84,-0.452c-2.215,0.488 -2.529,1.214 -2.529,1.214l13.871,23.73l2.912,-3.327Z" style="fill:#7dff00;fill-rule:nonzero;stroke:#000;stroke-width:0.63px;"/><path id="path199" d="M559.236,196.453c0.539,-0.28 1.08,-0.642 1.627,-1.107c2.164,-1.838 8.021,-11.072 7.928,-13.399c-5.511,8.72 -9.889,12.417 -12.221,12.717c-2.257,0.291 -4.294,-1.705 -6.346,-2.451c-1.324,-0.481 -3.195,-0.246 -4.572,-0.294c-11.412,-0.396 -22.834,-0.403 -34.252,-0.365c-5.41,0.018 -10.857,-0.136 -16.241,-0.091c-5.095,0.042 -10.259,2.061 -14.853,4.083c-9.841,4.331 -18.604,10.965 -26.58,18.095c-4.611,4.122 -8.634,8.94 -13.291,12.98c-2.042,1.771 -4.094,3.53 -6.166,5.264c-3.372,2.817 -6.924,5.408 -11,7.11c-3.942,1.646 -7.735,1.648 -11.919,1.959c-1.882,0.139 -5.758,-0.983 -7.288,0.375c-1.534,1.362 3.638,1.492 4.288,1.514c3.772,0.129 7.529,-0.823 11.313,-0.823c2.002,0 4.068,-0.231 6.02,-0.223c1.68,0.008 3.176,0.399 4.859,0.211c1.012,-0.112 1.878,-0.229 2.861,-0.577c2.457,-0.869 4.158,-2.946 6.172,-4.461c2.146,-1.614 4.318,-3.179 6.406,-4.87c3.773,-3.057 7.369,-6.319 10.91,-9.639c6.191,-5.806 12.256,-11.902 19.475,-16.451c9.552,-6.018 20.532,-8.282 31.726,-8.282c25.405,0.001 32.002,-0.458 42.857,-0.456c3.194,0.001 5.728,0.511 8.287,-0.819Z" style="fill:#f00;fill-rule:nonzero;stroke:#000;stroke-width:0.64px;"/><path id="path201" d="M550.191,141.654c1.176,0.439 2.299,0.98 3.354,1.643c1.617,1.019 3.09,2.383 4.434,3.731c4.58,4.591 7.883,10.345 10.203,16.364c6.818,17.686 12.998,26.635 12.998,26.635c0,0 4.049,6.393 8.098,8.097c0,0 6.392,-1.279 10.014,0c0,0 3.246,-2.031 7.363,-9.523c0,0 -3.74,5.901 -7.363,5.901c-3.622,0 -9.482,-6.073 -9.482,-7.99c0,0 -16.299,-33.133 -16.3,-33.134c-1.065,-2.165 -2.995,-3.585 -4.6,-5.38c-1.511,-1.69 -2.996,-3.427 -4.978,-4.587c-2.496,-1.463 -5.02,-2.973 -7.77,-3.915c-2.489,-0.852 -5.227,-0.831 -7.871,-0.898c-4.878,-0.124 -9.757,-0.338 -14.635,-0.135c-0.284,0.012 -0.568,0.008 -0.854,0.01c-12.41,0.082 1.381,-0.162 -11.029,-0.271c-8.316,-0.074 -16.631,-0.149 -24.947,-0.223c-2.504,-0.022 -5.006,0.112 -7.508,0.183c-2.338,0.066 -4.772,0.266 -7.038,-0.389c-0.728,-0.21 -1.478,-0.345 -2.188,-0.638c-1.535,-0.634 -2.916,-1.492 -4.504,-2.01c-0.318,-0.104 -0.951,-0.377 -1.232,-0.297c1.219,1.432 3.016,2.008 4.631,2.829c2.174,1.105 4.557,1.881 6.992,2.091c1.895,0.164 3.805,-0.075 5.692,-0.029c4.398,0.105 8.799,0.175 13.199,0.223c8.802,0.096 -8.606,0.107 0.196,0.147c3.344,0.015 6.688,0.034 10.032,0.064c7.692,0.069 15.39,0.14 23.077,0.428c3.723,0.138 8.452,-0.259 12.016,1.073Z" style="fill:#f00;fill-rule:nonzero;stroke:#000;stroke-width:0.64px;"/><path id="path222" d="M570.736,167.012c0,14.087 -1.453,29.437 -7.547,42.344c-2.436,5.157 -8.078,11.384 -14.207,11.751c-5.451,0.326 -8.219,-5.319 -7.426,-10.095c0.555,-3.347 1.459,-6.426 4.334,-8.534c3.578,-2.622 4.977,-3.481 5.977,-8.17c2.523,-11.841 2.885,-24.911 2.889,-37.109c0.001,-6.298 1.721,-22.643 -5.967,-25.047c-3.506,-1.096 -7.018,-0.175 -7.691,-5.625c-0.729,-5.897 3.523,-13.211 10.037,-13.21c10.825,0.001 19.601,24.04 19.601,53.695Z" style="fill:url(#_Linear3);fill-rule:nonzero;"/><path id="polygon224" d="M440.537,155.873l24.587,14.651l-24.587,17.442l0,-32.093Z" style="fill:#003cff;fill-rule:nonzero;stroke:#2210d2;stroke-width:3.17px;"/><path id="path226" d="M413.271,212.417l0,24.537c0,0 -0.799,0.621 1.357,1.32c2.158,0.699 2.797,0.232 2.797,0.232l0.04,-27.488l-4.194,1.399Z" style="fill:#7dff00;fill-rule:nonzero;stroke:#000;stroke-width:0.62px;"/><path id="path228" d="M399.298,224.599l0,12.633c0,0 -0.8,0.319 1.357,0.68c2.158,0.359 2.797,0.119 2.797,0.119l0.04,-14.151l-4.194,0.719Z" style="fill:#7dff00;fill-rule:nonzero;stroke:#000;stroke-width:0.62px;"/><path id="path230" d="M386.673,224.579l0,13.079c0,0 -0.8,0.33 1.357,0.703c2.158,0.372 2.797,0.124 2.797,0.124l0.04,-14.651l-4.194,0.745Z" style="fill:#7dff00;fill-rule:nonzero;stroke:#000;stroke-width:0.62px;"/><path id="path232" d="M374.367,213.383l0,23.405c0,0 -0.799,0.592 1.359,1.259c2.157,0.667 2.797,0.222 2.797,0.222l0.039,-26.219l-4.195,1.333Z" style="fill:#7dff00;fill-rule:nonzero;stroke:#000;stroke-width:0.62px;"/><path id="path234" d="M360.729,225.283l0,12.351c0,0 -0.8,0.313 1.358,0.664c2.157,0.353 2.797,0.117 2.797,0.117l0.039,-13.836l-4.194,0.704Z" style="fill:#7dff00;fill-rule:nonzero;stroke:#000;stroke-width:0.62px;"/><path id="path236" d="M336.338,215.095l0.304,20.485l0.024,1.684c0,0 -0.79,0.573 1.376,1.173c2.168,0.599 2.8,0.168 2.8,0.168l-0.327,-24.835l-4.177,1.325Z" style="fill:#7dff00;fill-rule:nonzero;stroke:#000;stroke-width:0.62px;"/><path id="path238" d="M348.156,213.169l0,23.404c0,0 -0.799,0.593 1.357,1.26c2.158,0.666 2.797,0.222 2.797,0.222l0.041,-26.219l-4.195,1.333Z" style="fill:#7dff00;fill-rule:nonzero;stroke:#000;stroke-width:0.62px;"/><path id="path240" d="M323.431,213.594l0,23.405c0,0 -0.799,0.592 1.358,1.259c2.157,0.667 2.796,0.223 2.796,0.223l0.041,-26.22l-4.195,1.333Z" style="fill:#7dff00;fill-rule:nonzero;stroke:#000;stroke-width:0.62px;"/><path id="path242" d="M273.91,214.881l0.303,20.485l0.024,1.685c0,0 -0.791,0.573 1.376,1.172c2.167,0.6 2.799,0.169 2.799,0.169l-0.327,-24.835l-4.175,1.324Z" style="fill:#7dff00;fill-rule:nonzero;stroke:#000;stroke-width:0.62px;"/><path id="path244" d="M286.366,212.955l0,23.405c0,0 -0.799,0.592 1.358,1.258c2.157,0.667 2.796,0.223 2.796,0.223l0.04,-26.219l-4.194,1.333Z" style="fill:#7dff00;fill-rule:nonzero;stroke:#000;stroke-width:0.62px;"/><path id="path246" d="M311.296,224.6l0,12.632c0,0 -0.799,0.319 1.358,0.68c2.157,0.36 2.796,0.119 2.796,0.119l0.04,-14.15l-4.194,0.719Z" style="fill:#7dff00;fill-rule:nonzero;stroke:#000;stroke-width:0.62px;"/><path id="path248" d="M298.671,224.579l0,13.079c0,0 -0.799,0.331 1.358,0.703c2.157,0.372 2.796,0.124 2.796,0.124l0.04,-14.651l-4.194,0.745Z" style="fill:#7dff00;fill-rule:nonzero;stroke:#000;stroke-width:0.62px;"/><path id="path250" d="M291.444,99.984l0,28.782c0,0 -0.319,1.431 1.358,1.431c1.678,0 2.837,-1.22 2.837,-1.22l0,-30.508c0,0 -2.281,-1.859 -4.195,1.515Z" style="fill:#ffbf00;fill-rule:nonzero;stroke:#000;stroke-width:0.66px;"/><path id="path252" d="M278.819,99.882l0,29.477c0,0 -0.319,1.465 1.358,1.465c1.678,0 2.837,-1.25 2.837,-1.25l0,-31.243c0,0 -2.281,-1.904 -4.195,1.551Z" style="fill:#ffbf00;fill-rule:nonzero;stroke:#000;stroke-width:0.66px;"/><path id="path254" d="M266.514,98.878l0,17.004c0,0 -0.32,0.845 1.358,0.845c1.678,0 2.836,-0.721 2.836,-0.721l0,-18.024c0.001,0 -2.281,-1.098 -4.194,0.896Z" style="fill:#ffbf00;fill-rule:nonzero;stroke:#000;stroke-width:0.5px;"/><path id="path256" d="M254.368,98.694l0,17.992c0,0 -0.32,0.894 1.358,0.894c1.678,0 2.836,-0.763 2.836,-0.763l0,-19.07c0.001,0 -2.281,-1.162 -4.194,0.947Z" style="fill:#ffbf00;fill-rule:nonzero;stroke:#000;stroke-width:0.52px;"/><path id="path258" d="M424.545,99.223l-8.965,33.478c0,0 -0.755,1.582 0.865,2.016c1.621,0.434 3.121,-0.685 3.121,-0.685l9.503,-35.484c0,-0.002 -1.624,-2.755 -4.524,0.675Z" style="fill:#ffbf00;fill-rule:nonzero;stroke:#000;stroke-width:0.72px;"/><path id="path260" d="M457.928,125.985l-29.86,19.19c0,0 -1.656,0.685 -0.75,2.096c0.908,1.412 2.801,1.573 2.801,1.573l31.649,-20.34c0,0 0.696,-3.159 -3.84,-2.519Z" style="fill:#ffbf00;fill-rule:nonzero;stroke:#000;stroke-width:0.73px;"/><path id="path262" d="M464.834,134.943l-15.437,20.083c0,0 -1.021,0.804 0.31,1.826c1.33,1.023 2.904,0.878 2.904,0.878l16.361,-21.288c0,0.001 -0.811,-2.687 -4.138,-1.499Z" style="fill:#ffbf00;fill-rule:nonzero;stroke:#000;stroke-width:0.62px;"/><path id="path264" d="M339.121,99.625l0,31.213c0,0 -0.319,1.551 1.358,1.551c1.679,0 2.837,-1.324 2.837,-1.324l0,-33.083c0,0 -2.281,-2.016 -4.195,1.643Z" style="fill:#ffbf00;fill-rule:nonzero;stroke:#000;stroke-width:0.68px;"/><path id="path266" d="M314.47,99.383l0,20.436c0,0 -0.32,1.016 1.358,1.016c1.678,0 2.836,-0.866 2.836,-0.866l0,-21.66c0.001,-0.001 -2.281,-1.322 -4.194,1.074Z" style="fill:#ffbf00;fill-rule:nonzero;stroke:#000;stroke-width:0.55px;"/><path id="path268" d="M302.324,99.162l0,21.622c0,0 -0.32,1.075 1.358,1.075c1.678,0 2.836,-0.917 2.836,-0.917l0,-22.918c0.001,0 -2.281,-1.397 -4.194,1.138Z" style="fill:#ffbf00;fill-rule:nonzero;stroke:#000;stroke-width:0.57px;"/><path id="path270" d="M353.863,98.665l0,17.004c0,0 -0.319,0.845 1.358,0.845c1.679,0 2.837,-0.721 2.837,-0.721l0,-18.023c0,0 -2.281,-1.099 -4.195,0.895Z" style="fill:#ffbf00;fill-rule:nonzero;stroke:#000;stroke-width:0.5px;"/><path id="path272" d="M326.336,99.162l0,21.622c0,0 -0.319,1.075 1.358,1.075c1.679,0 2.837,-0.917 2.837,-0.917l0,-22.918c0,0 -2.281,-1.397 -4.195,1.138Z" style="fill:#ffbf00;fill-rule:nonzero;stroke:#000;stroke-width:0.57px;"/><path id="path274" d="M399.476,99.558l0,28.782c0,0 -0.32,1.431 1.357,1.431c1.679,0 2.838,-1.22 2.838,-1.22l0,-30.508c0,0 -2.282,-1.859 -4.195,1.515Z" style="fill:#ffbf00;fill-rule:nonzero;stroke:#000;stroke-width:0.66px;"/><path id="path276" d="M386.851,99.456l0,29.477c0,0 -0.32,1.465 1.357,1.465c1.679,0 2.838,-1.25 2.838,-1.25l0,-31.244c0,0 -2.282,-1.903 -4.195,1.552Z" style="fill:#ffbf00;fill-rule:nonzero;stroke:#000;stroke-width:0.66px;"/><path id="path278" d="M411.209,98.878l0,17.004c0,0 -0.32,0.845 1.358,0.845c1.678,0 2.837,-0.721 2.837,-0.721l0,-18.024c0,0 -2.282,-1.098 -4.195,0.896Z" style="fill:#ffbf00;fill-rule:nonzero;stroke:#000;stroke-width:0.5px;"/><path id="path280" d="M436.922,100.146l-5.28,16.164c0,0 -0.566,0.705 1.028,1.226c1.594,0.521 2.921,0.196 2.921,0.196l5.596,-17.133c0,-0.001 -1.827,-1.754 -4.265,-0.453Z" style="fill:#ffbf00;fill-rule:nonzero;stroke:#000;stroke-width:0.5px;"/><path id="path282" d="M450.372,112.014l-26.12,22.778c0,0 -1.509,0.892 -0.406,2.156c1.104,1.265 2.972,1.172 2.972,1.172l27.687,-24.144c-0.001,0.001 0.186,-3.19 -4.133,-1.962Z" style="fill:#ffbf00;fill-rule:nonzero;stroke:#000;stroke-width:0.72px;"/><g id="g284"><path id="path286" d="M473.821,112.324c-1.743,-5.406 -11.126,-4.298 -12.916,0.468c-0.812,2.161 0.71,9.448 4.226,7.1c-2.379,1.589 -5.32,1.629 -7.846,0.491c-0.96,-0.434 -2.026,-2.017 -3.271,-0.656c-0.947,1.035 0.141,2.174 1.026,2.844c6.094,4.606 21.653,-1.338 18.781,-10.247Z" style="fill:#8210d2;fill-rule:nonzero;stroke:#000;stroke-width:0.64px;"/><path id="path288" d="M469.283,113.5c0.239,-0.733 0.223,-1.648 -0.143,-2.79c3.256,-0.61 3.863,2.178 3.052,4.724c-0.99,3.106 -5.529,5.351 -8.517,6.046c0.518,-0.459 1.128,-1.168 1.795,-1.571c-3.093,0.542 -5.617,-4.261 -4.112,-6.344c1.509,3.295 6.664,3.788 7.925,-0.065Z" style="fill:#521d7f;fill-rule:nonzero;"/></g><g id="g290"><path id="path292" d="M456.898,214.279c-0.729,-0.098 -1.307,-0.42 -2.065,-1.199c-0.839,-0.861 -1.721,-4.367 -3.634,-2.872c-1.93,1.507 2.559,4.56 2.852,5.91c0.176,0.816 -0.289,1.159 -0.398,1.976c-0.258,1.927 -0.979,3.142 -0.208,5.132c1.632,4.221 6.771,6.365 10.507,3.994c3.725,-2.362 4.508,-8.296 0.816,-11.431c-1.898,-1.612 -3.813,-1.764 -6.029,-1.554c-0.759,0.072 -1.335,0.112 -1.841,0.044Z" style="fill:#8210d2;fill-rule:nonzero;stroke:#000;stroke-width:0.64px;"/><path id="path294" d="M460.74,216.711c-0.264,-0.085 -0.469,-0.026 -0.613,0.178c0.246,1.074 0.571,2.176 1.052,3.182c-0.724,-0.816 -2.364,-3.503 -3.603,-3.43c-1.895,0.112 -0.811,2.097 0.007,2.846c-1.757,2.52 0.506,5.231 2.881,5.686c-2.944,2.033 -6.4,-0.723 -6.638,-3.837c-0.107,-1.411 0.54,-2.475 0.657,-3.819c0.147,-1.703 -0.542,-2.729 -0.846,-4.263c2.202,1.358 5.276,0.554 7.094,2.09c-0.208,0.31 -0.244,0.589 -0.419,0.894" style="fill:#521d7f;fill-rule:nonzero;"/></g><g id="g296"><path id="path298" d="M468.535,204.907c-0.734,-0.035 -1.34,-0.307 -2.161,-1.019c-0.909,-0.787 -2.088,-4.204 -3.866,-2.551c-1.794,1.667 2.939,4.325 3.346,5.645c0.246,0.798 -0.188,1.18 -0.227,2.002c-0.093,1.942 -0.707,3.214 0.23,5.131c1.986,4.066 7.289,5.763 10.811,3.082c3.508,-2.673 3.781,-8.651 -0.164,-11.458c-2.029,-1.445 -3.95,-1.431 -6.141,-1.033c-0.749,0.136 -1.32,0.225 -1.828,0.201Z" style="fill:#8210d2;fill-rule:nonzero;stroke:#000;stroke-width:0.64px;"/><path id="path300" d="M470.921,208.339c-1.506,-2.483 -3.109,0.06 -1.094,1.817c-2.501,3.475 0.383,4.998 3.119,5.806c-4.072,5.397 -7.674,-6.229 -6.336,-9.359c-0.688,-0.828 -1.516,-1.558 -1.748,-2.606c1.736,-0.179 3.536,1.335 5.434,1.304c1.417,-0.024 5.228,-1.001 5.41,1.627c0.019,0.267 -4.759,-0.507 -4.785,1.411Z" style="fill:#521d7f;fill-rule:nonzero;"/></g><g id="g302"><path id="path304" d="M441.083,232.085c-0.733,-0.046 -1.333,-0.327 -2.146,-1.051c-0.896,-0.801 -2.023,-4.235 -3.826,-2.609c-1.818,1.639 2.873,4.367 3.26,5.694c0.233,0.802 -0.205,1.177 -0.257,1.999c-0.122,1.939 -0.755,3.202 0.153,5.134c1.925,4.095 7.201,5.872 10.762,3.244c3.549,-2.619 3.912,-8.593 0.01,-11.46c-2.008,-1.475 -3.928,-1.49 -6.125,-1.125c-0.75,0.125 -1.323,0.205 -1.831,0.174Z" style="fill:#8210d2;fill-rule:nonzero;stroke:#000;stroke-width:0.64px;"/><path id="path306" d="M445.086,234.239c-0.27,-0.066 -0.469,0.007 -0.599,0.221c0.321,1.055 0.724,2.13 1.272,3.1c-0.779,-0.764 -2.604,-3.328 -3.836,-3.167c-1.881,0.244 -0.66,2.148 0.209,2.838c-1.575,2.637 0.873,5.183 3.273,5.468c-2.794,2.236 -6.436,-0.27 -6.891,-3.359c-0.207,-1.4 0.363,-2.507 0.386,-3.856c0.028,-1.709 -0.733,-2.685 -1.144,-4.192c2.293,1.201 5.302,0.181 7.224,1.585c-0.186,0.324 -0.202,0.604 -0.356,0.921" style="fill:#521d7f;fill-rule:nonzero;"/></g><g id="g308"><path id="path310" d="M424.495,240.926c-1.462,-0.496 -2.103,-2.097 -2.452,-3.478c1.246,-1.106 4.401,0.898 3.932,-1.839c-0.404,-2.352 -5.395,-3.019 -6.661,-1.246c-1.778,2.488 1.987,5.404 2.031,7.814c0.015,0.835 -0.507,1.082 -0.772,1.861c-0.627,1.841 -1.568,2.893 -1.199,4.994c0.785,4.458 5.41,7.556 9.536,5.953c4.11,-1.597 6.028,-7.266 3.014,-11.056c-1.55,-1.95 -3.399,-2.469 -5.615,-2.692c-0.759,-0.075 -1.332,-0.147 -1.814,-0.311Z" style="fill:#8210d2;fill-rule:nonzero;stroke:#000;stroke-width:0.64px;"/><path id="path312" d="M425.839,244.884c-0.76,-2.803 -3.004,-0.803 -1.555,1.444c-3.365,2.646 -1.016,4.908 1.391,6.442c-5.407,4.059 -5.65,-8.109 -3.498,-10.748c-0.434,-0.985 -1.025,-1.916 -0.959,-2.988c1.719,0.31 3.029,2.263 4.86,2.757c1.368,0.37 5.302,0.485 4.749,3.062c-0.056,0.261 -4.433,-1.805 -4.988,0.031Z" style="fill:#521d7f;fill-rule:nonzero;"/></g><path id="path314" d="M356.252,123.409l0,30.123c0,0 -0.799,0.762 1.357,1.621c2.158,0.858 2.797,0.286 2.797,0.286l0.041,-33.745l-4.195,1.715Z" style="fill:#7dff00;fill-rule:nonzero;stroke:#000;stroke-width:0.7px;"/><path id="path316" d="M314.508,123.903l0.403,24.274l0.033,1.996c0,0 -0.788,0.676 1.382,1.396c2.17,0.719 2.8,0.211 2.8,0.211l-0.449,-29.428l-4.169,1.551Z" style="fill:#7dff00;fill-rule:nonzero;stroke:#000;stroke-width:0.67px;"/><path id="path318" d="M326.425,124.29l0,26.118c0,0 -0.799,0.661 1.357,1.405c2.158,0.744 2.797,0.248 2.797,0.248l0.041,-29.258l-4.195,1.487Z" style="fill:#7dff00;fill-rule:nonzero;stroke:#000;stroke-width:0.65px;"/><path id="path320" d="M302.34,124.199l0,25.758c0,0 -0.799,0.652 1.358,1.386c2.158,0.734 2.797,0.244 2.797,0.244l0.04,-28.854l-4.195,1.466Z" style="fill:#7dff00;fill-rule:nonzero;stroke:#000;stroke-width:0.65px;"/><path id="polygon327" d="M336.14,154.326l-2.361,-1.819l2.361,-1.776l0,-2.841l9.589,0l0,2.581l-2.462,1.927l2.462,2.188l0,2.573l-9.589,0l0,-2.833Z" style="fill:url(#_Radial4);fill-rule:nonzero;stroke:#000;stroke-width:0.64px;"/><path id="polygon334" d="M353.73,158.923l-2.361,-1.819l2.361,-1.777l0,-2.84l9.588,0l0,2.58l-2.462,1.928l2.462,2.188l0,2.573l-9.588,0l0,-2.833Z" style="fill:url(#_Radial5);fill-rule:nonzero;stroke:#000;stroke-width:0.64px;"/><path id="path336" d="M266.633,120.269l0.4,27.054l0.033,2.225c0,0 -0.788,0.753 1.382,1.555c2.17,0.802 2.801,0.236 2.801,0.236l-0.445,-32.799l-4.171,1.729Z" style="fill:#7dff00;fill-rule:nonzero;stroke:#000;stroke-width:0.71px;"/><path id="path338" d="M278.882,134.261l0,15.132c0,0 -0.799,0.382 1.358,0.814c2.157,0.431 2.797,0.144 2.797,0.144l0.04,-16.952l-4.195,0.862Z" style="fill:#7dff00;fill-rule:nonzero;stroke:#000;stroke-width:0.49px;"/><path id="path340" d="M254.584,119.924l0,28.474c0,0 -0.799,0.721 1.358,1.532c2.157,0.811 2.797,0.271 2.797,0.271l0.04,-31.896l-4.195,1.619Z" style="fill:#7dff00;fill-rule:nonzero;stroke:#000;stroke-width:0.68px;"/><path id="polygon347" d="M275.956,154.235l-2.361,-1.819l2.361,-1.777l0,-2.84l9.588,0l0,2.58l-2.462,1.928l2.462,2.188l0,2.573l-9.588,0l0,-2.833Z" style="fill:url(#_Radial6);fill-rule:nonzero;stroke:#000;stroke-width:0.64px;"/><path id="path349" d="M311.26,194.592l0,28.782c0,0 -0.319,1.431 1.358,1.431c1.678,0 2.837,-1.221 2.837,-1.221l0,-30.507c0.001,0 -2.281,-1.859 -4.195,1.515Z" style="fill:#ffbf00;fill-rule:nonzero;stroke:#000;stroke-width:0.66px;"/><path id="path351" d="M298.635,194.49l0,29.477c0,0 -0.319,1.465 1.358,1.465c1.678,0 2.837,-1.249 2.837,-1.249l0,-31.245c0.001,0 -2.281,-1.904 -4.195,1.552Z" style="fill:#ffbf00;fill-rule:nonzero;stroke:#000;stroke-width:0.66px;"/><path id="path353" d="M286.33,193.807l0,21.569c0,0 -0.32,1.072 1.358,1.072c1.678,0 2.836,-0.914 2.836,-0.914l0,-22.863c0.001,0 -2.281,-1.393 -4.194,1.136Z" style="fill:#ffbf00;fill-rule:nonzero;stroke:#000;stroke-width:0.57px;"/><path id="path355" d="M274.185,193.623l0,22.557c0,0 -0.32,1.121 1.358,1.121c1.678,0 2.836,-0.956 2.836,-0.956l0,-23.909c0,0 -2.281,-1.457 -4.194,1.187Z" style="fill:#ffbf00;fill-rule:nonzero;stroke:#000;stroke-width:0.58px;"/><path id="path357" d="M336.205,193.991l0,20.435c0,0 -0.32,1.016 1.357,1.016c1.677,0 2.837,-0.866 2.837,-0.866l0,-21.66c0,-0.001 -2.282,-1.321 -4.194,1.075Z" style="fill:#ffbf00;fill-rule:nonzero;stroke:#000;stroke-width:0.55px;"/><path id="path359" d="M323.419,193.77l0,21.622c0,0 -0.319,1.074 1.358,1.074c1.678,0 2.837,-0.916 2.837,-0.916l0,-22.918c0.001,0 -2.281,-1.397 -4.195,1.138Z" style="fill:#ffbf00;fill-rule:nonzero;stroke:#000;stroke-width:0.57px;"/><path id="path361" d="M365.539,185.126l-5.963,-3.62c0,0 -23.848,0 -23.865,0c0,0 0.002,4.345 0,4.58c-0.005,1.135 -0.211,2.139 0.352,3.11c0.527,0.911 1.802,1.132 2.003,2.324c0.254,1.498 -0.651,2.031 -1.458,3.02c-0.846,1.035 -0.896,1.04 -0.896,2.632c0.002,2.326 0,4.651 0,6.977c0,3.332 -0.012,6.665 0,9.997c0.008,2.241 -0.183,5.51 0.432,7.625c0.402,1.384 1.414,2.662 1.912,4.064c0.838,2.363 0.465,5.3 0.426,7.815c-0.019,1.238 -0.486,2.669 -0.213,3.895c0.208,0.927 0.89,1.424 1.07,2.339c0.434,2.19 -1.299,1.437 -2.541,1.985c-0.924,0.408 -2.311,3.224 -1.086,3.987c0.004,0.001 5.964,3.62 5.964,3.62l0,-64.35l23.863,0Z" style="fill-opacity:0.44;fill-rule:nonzero;"/><path id="polygon363" d="M335.711,181.505l5.963,3.621l23.865,0l-5.963,-3.621l-23.865,0Z" style="fill-rule:nonzero;"/><path id="path365" d="M261.234,224.6l0,12.632c0,0 -0.799,0.319 1.358,0.68c2.157,0.36 2.796,0.119 2.796,0.119l0.04,-14.15l-4.194,0.719Z" style="fill:#7dff00;fill-rule:nonzero;stroke:#000;stroke-width:0.62px;"/><path id="path367" d="M248.609,224.579l0,13.079c0,0 -0.799,0.331 1.358,0.703c2.157,0.372 2.796,0.124 2.796,0.124l0.04,-14.651l-4.194,0.745Z" style="fill:#7dff00;fill-rule:nonzero;stroke:#000;stroke-width:0.62px;"/><path id="path369" d="M261.199,194.592l0,28.782c0,0 -0.319,1.431 1.358,1.431c1.678,0 2.837,-1.221 2.837,-1.221l0,-30.507c0,0 -2.282,-1.859 -4.195,1.515Z" style="fill:#ffbf00;fill-rule:nonzero;stroke:#000;stroke-width:0.66px;"/><path id="path371" d="M248.574,194.49l0,29.477c0,0 -0.319,1.465 1.358,1.465c1.678,0 2.837,-1.249 2.837,-1.249l0,-31.245c0,0 -2.282,-1.904 -4.195,1.552Z" style="fill:#ffbf00;fill-rule:nonzero;stroke:#000;stroke-width:0.66px;"/><path id="path373" d="M296.851,188.989c-10.479,0 -20.957,0 -31.436,0c-12.483,0 -35.385,-3.87 -44.777,6.083c8.153,-3.308 17.667,-0.489 26.179,-0.489l124.113,0c0.73,0 -0.713,3.13 0.73,3.241c0,0 9.23,-4.868 8.904,-5.482c-0.584,-1.1 -8.807,-6.235 -9.528,-6.637c-0.38,-0.212 0.632,3.521 0.201,3.388c0,0 -3.489,-0.103 -6.089,-0.103c-7.21,-0.002 -61.085,-0.001 -68.297,-0.001Z" style="fill:#f00;fill-rule:nonzero;stroke:#000;stroke-width:0.64px;"/><path id="polygon375" d="M365.539,185.126l0,64.35l-23.865,0l0,-64.35l23.865,0Z" style="fill:#ffbf00;fill-rule:nonzero;stroke:#000;stroke-width:0.57px;"/><path id="path377" d="M203.034,148.802l-1.037,8.086l45.327,-0.163c-1.823,-1.638 -2.221,-6.414 -0.18,-7.924l-44.11,0l0,0.001Z" style="fill:#bf0000;fill-rule:nonzero;stroke:#000;stroke-width:0.51px;"/><path id="path379" d="M217.614,131.963l0.355,17.471l0.029,1.436c0,0 -0.865,0.483 1.507,1.011c2.372,0.527 3.063,0.165 3.063,0.165l-0.387,-21.181l-4.567,1.098Z" style="fill:#7dff00;fill-rule:nonzero;stroke:#000;stroke-width:0.59px;"/><path id="path381" d="M229.273,123.512l0,26.981c0,0 -0.874,0.683 1.486,1.451c2.36,0.769 3.06,0.256 3.06,0.256l0.043,-30.224l-4.589,1.536Z" style="fill:#7dff00;fill-rule:nonzero;stroke:#000;stroke-width:0.69px;"/><path id="path383" d="M205.481,133.931l0,16.907c0,0 -0.874,0.428 1.486,0.909c2.36,0.482 3.059,0.161 3.059,0.161l0.044,-18.94l-4.589,0.963Z" style="fill:#7dff00;fill-rule:nonzero;stroke:#000;stroke-width:0.55px;"/><path id="path385" d="M240.14,123.779l0,27.029c0,0 -0.874,0.684 1.486,1.454c2.36,0.77 3.059,0.256 3.059,0.256l0.044,-30.279l-4.589,1.54Z" style="fill:#7dff00;fill-rule:nonzero;stroke:#000;stroke-width:0.69px;"/><path id="path387" d="M129.733,148.729c-4.143,-0.037 -8.288,-0.063 -12.44,-0.063c-2.189,0 -3.59,-0.546 -4,1.5c-0.32,1.599 0.249,3.437 1.744,4.006c1.604,0.61 4.793,0.322 6.552,0.501c5.593,0.568 11.311,1.037 16.936,1.256c6.355,0.249 12.753,0.376 19.075,0.736c3.611,0.206 7.188,-0.598 10.778,-0.468c2.637,0.096 5.062,0.766 7.777,0.759c3.604,-0.009 7.209,-0.017 10.814,-0.025c3.029,-0.007 7.431,0.815 10.322,-0.024c4.088,-1.187 3.793,-6.414 -0.19,-7.923c-2.962,-1.123 -8.533,0 -11.644,0c-8.34,0 -16.681,0 -25.021,0c-10.265,0 -20.476,-0.162 -30.703,-0.255Z" style="fill:#bf0000;fill-rule:nonzero;stroke:#000;stroke-width:0.52px;"/><path id="path389" d="M166.817,123.836l0.461,24.637l0.038,2.025c0,0 -0.862,0.676 1.513,1.434c2.375,0.758 3.064,0.251 3.064,0.251l-0.516,-29.867l-4.56,1.52Z" style="fill:#7dff00;fill-rule:nonzero;stroke:#000;stroke-width:0.71px;"/><path id="path391" d="M179.239,123.693l0,26.981c0,0 -0.874,0.683 1.486,1.452c2.36,0.769 3.06,0.255 3.06,0.255l0.043,-30.224l-4.589,1.536Z" style="fill:#7dff00;fill-rule:nonzero;stroke:#000;stroke-width:0.69px;"/><path id="path393" d="M154.808,124.501l0,25.896c0,0 -0.874,0.655 1.486,1.393c2.36,0.738 3.06,0.246 3.06,0.246l0.043,-29.008l-4.589,1.473Z" style="fill:#7dff00;fill-rule:nonzero;stroke:#000;stroke-width:0.68px;"/><path id="path395" d="M190.106,123.961l0,27.029c0,0 -0.874,0.684 1.486,1.454c2.36,0.771 3.06,0.256 3.06,0.256l0.043,-30.279l-4.589,1.54Z" style="fill:#7dff00;fill-rule:nonzero;stroke:#000;stroke-width:0.69px;"/><path id="path397" d="M155.192,99.016l0,25.398c0,0 -0.32,1.262 1.358,1.262c1.678,0 2.836,-1.076 2.836,-1.076l0,-26.921c0,0 -2.281,-1.641 -4.194,1.337Z" style="fill:#ffbf00;fill-rule:nonzero;stroke:#000;stroke-width:0.62px;"/><path id="path399" d="M144.045,99.683l0,35.724c0,0 -0.319,1.776 1.358,1.776c1.678,0 2.837,-1.515 2.837,-1.515l0,-37.866c0,0 -2.282,-2.307 -4.195,1.881Z" style="fill:#ffbf00;fill-rule:nonzero;stroke:#000;stroke-width:0.73px;"/><path id="path401" d="M131.739,98.741l0,24.138c0,0 -0.32,1.2 1.358,1.2c1.678,0 2.836,-1.023 2.836,-1.023l0,-25.586c0.001,0 -2.28,-1.559 -4.194,1.271Z" style="fill:#ffbf00;fill-rule:nonzero;stroke:#000;stroke-width:0.6px;"/><path id="path403" d="M456.996,110.475c-0.773,-1.623 -1.53,-3.345 -2.369,-4.879c-0.107,-0.195 -0.219,-0.385 -0.334,-0.573c-6.967,-11.336 -20.836,-10.641 -32.475,-10.641c-5.326,0 -10.65,0 -15.977,0c0,0 -115.624,0 -115.702,0l-148.891,0c-6.003,0 -11.854,-0.355 -17.829,0.41c-2.691,0.345 -5.359,0.991 -7.975,1.723c-2.446,0.684 -4.977,1.565 -7.122,2.938c-1.967,1.258 -5.259,3.189 -6.146,5.455c2.412,-1.32 4.696,-3.115 7.235,-4.365c2.815,-1.386 5.767,-2.125 8.883,-2.125c2.895,0 5.775,0.252 8.613,0.719c2.197,0.362 4.439,0.75 6.665,0.78c5.002,0.067 10.024,0.059 15.043,0.059l270.462,0c14.538,0 29.251,-0.108 38.405,12.942c0.21,0.299 1.33,1.265 1.378,1.465c-0.327,-1.394 -1.253,-2.627 -1.864,-3.908Z" style="fill:#f00;fill-rule:nonzero;stroke:#000;stroke-width:0.64px;"/><path id="path405" d="M143.743,135.555l0.308,14.255l0.025,1.172c0,0 -0.866,0.396 1.504,0.82c2.37,0.423 3.063,0.126 3.063,0.126l-0.33,-17.282l-4.57,0.909Z" style="fill:#7dff00;fill-rule:nonzero;stroke:#000;stroke-width:0.54px;"/><path id="path407" d="M131.555,116.335l0,33.232c0,0 -0.874,0.841 1.486,1.788c2.36,0.947 3.06,0.316 3.06,0.316l0.043,-37.228l-4.589,1.892Z" style="fill:#7dff00;fill-rule:nonzero;stroke:#000;stroke-width:0.77px;"/><path id="path428" d="M385.996,99.584c0,6.3 -0.891,13.166 -4.623,18.94c-1.491,2.307 -4.947,5.092 -8.701,5.256c-3.339,0.146 -5.034,-2.379 -4.549,-4.515c0.347,-1.522 0.629,-2.686 1.396,-4.08c2.161,-3.928 2.247,-8.15 2.682,-12.455c0.526,-5.204 0.205,-10.595 -1.828,-15.468c-1.835,-4.398 -3.556,-11.698 3.618,-11.697c6.629,0.001 12.005,10.754 12.005,24.019Z" style="fill:url(#_Linear7);fill-rule:nonzero;"/><g id="g430"><path id="path432" d="M450.271,102.266c-0.103,0.728 -0.43,1.304 -1.215,2.057c-0.867,0.832 -4.381,1.687 -2.9,3.611c1.492,1.941 4.579,-2.523 5.932,-2.806c0.818,-0.17 1.157,0.297 1.973,0.413c1.926,0.273 3.134,1.003 5.131,0.249c4.232,-1.6 6.416,-6.722 4.074,-10.477c-2.334,-3.742 -8.261,-4.571 -11.424,-0.904c-1.627,1.887 -1.793,3.8 -1.6,6.018c0.064,0.758 0.101,1.334 0.029,1.839Z" style="fill:#8210d2;fill-rule:nonzero;stroke:#000;stroke-width:0.64px;"/><path id="path434" d="M452.159,103.942c1.084,-0.821 2.087,-1.715 3.194,-2.438c1.691,2.663 6.525,0.074 7.369,-2.26c-0.095,4.877 -6.865,8.1 -10.244,4.698" style="fill:#521d7f;fill-rule:nonzero;"/><path id="path436" d="M451.519,96.272c-0.658,1.269 -1.118,2.709 -0.894,4.129c1.836,-0.91 1.351,-2.207 0.574,-3.81" style="fill:#521d7f;fill-rule:nonzero;"/></g><g id="g438"><path id="path440" d="M431.328,95.536c0.476,0.561 0.689,1.188 0.73,2.274c0.046,1.201 -1.648,4.395 0.773,4.567c2.442,0.174 1.155,-5.099 1.843,-6.298c0.416,-0.724 0.99,-0.667 1.618,-1.2c1.482,-1.258 2.832,-1.676 3.594,-3.67c1.615,-4.228 -0.762,-9.261 -5.125,-10.005c-4.348,-0.741 -8.904,3.139 -8.264,7.939c0.329,2.469 1.648,3.864 3.436,5.193c0.611,0.456 1.065,0.812 1.395,1.2Z" style="fill:#8210d2;fill-rule:nonzero;stroke:#000;stroke-width:0.64px;"/><path id="path442" d="M430.105,91.157c0.139,0.241 0.33,0.333 0.574,0.279c0.537,-0.962 1.033,-1.998 1.352,-3.066c-0.01,1.091 -0.592,4.185 0.377,4.96c1.48,1.186 2.006,-1.014 1.9,-2.118c2.992,-0.693 3.13,-4.223 1.67,-6.15c3.549,0.463 4.268,4.824 2.357,7.294c-0.865,1.12 -2.059,1.477 -3.047,2.396c-1.25,1.165 -1.426,2.39 -2.228,3.731c-0.725,-2.484 -3.546,-3.945 -3.866,-6.304c0.361,-0.091 0.576,-0.274 0.91,-0.382" style="fill:#521d7f;fill-rule:nonzero;"/></g><g id="g444"><path id="path446" d="M416.41,94.699c0.521,0.517 0.789,1.125 0.922,2.204c0.148,1.193 -1.266,4.52 1.161,4.484c2.448,-0.036 0.716,-5.18 1.298,-6.433c0.353,-0.757 0.93,-0.75 1.51,-1.334c1.37,-1.38 2.678,-1.913 3.267,-3.964c1.249,-4.35 -1.55,-9.162 -5.96,-9.53c-4.396,-0.367 -8.604,3.888 -7.557,8.616c0.539,2.432 1.975,3.709 3.867,4.881c0.647,0.401 1.13,0.717 1.492,1.076Z" style="fill:#8210d2;fill-rule:nonzero;stroke:#000;stroke-width:0.64px;"/><path id="path448" d="M416.937,90.551c-0.546,2.852 2.348,2.038 2.029,-0.617c4.186,-0.904 3.064,-3.966 1.574,-6.399c6.64,-1.278 1.523,9.766 -1.566,11.193c-0.044,1.076 0.082,2.172 -0.447,3.106c-1.41,-1.031 -1.731,-3.361 -3.161,-4.608c-1.068,-0.932 -4.552,-2.76 -2.927,-4.833c0.165,-0.21 3.195,3.566 4.498,2.158Z" style="fill:#521d7f;fill-rule:nonzero;"/></g><path id="path450" d="M212.361,88.451l-7.003,-1.531c0,0 -17.998,0 -18.01,0c-0.058,0.847 0.074,1.709 0,2.557c-0.111,1.27 -0.102,2.662 0.005,3.938c0.086,1.033 0.414,1.427 0.877,2.327c0.669,1.298 1.445,4.361 -0.855,4.562c-0.142,2.457 0.168,12.543 0.13,15.083c-0.077,5.104 -0.172,10.085 -0.465,15.104c-0.18,3.073 0.291,18.405 0.291,18.405c1.247,2.013 2.735,7.16 0.457,7.596c-2.427,0.464 -0.753,2.061 0.947,2.41c1.751,0.36 3.503,0.72 5.255,1.08l-0.06,-71.767l18.431,0.236Z" style="fill-opacity:0.44;fill-rule:nonzero;"/><path id="path452" d="M137.24,156.25c0.963,0.056 1.92,0.111 2.865,0.161c4.036,0.213 8.072,0.022 12.106,-0.117c3.328,-0.114 6.638,0.635 9.811,-0.44c-1.978,-1.495 -6.544,-0.522 -8.98,-0.682c-2.596,-0.17 -5.183,-0.177 -7.807,-0.257c-4.87,-0.148 -9.586,-0.679 -14.381,-1.263c-5.967,-0.727 -9.189,-3.749 -12.216,-8.891c-2.935,-4.985 -4.689,-10.533 -7.248,-15.701c-4.021,-8.125 -7.934,-18.56 -14.447,-25.075c-5.114,-5.114 -7.459,-7.244 -14.703,-9.162c0,0 -4.336,0.287 -8.311,0c0,0 -10.279,1.474 -14.967,10.211c0,0 7.723,-8.72 14.754,-7.441c0,0 3.941,-0.533 12.04,7.564c6.774,6.774 11.308,16.194 15.517,24.676c3.247,6.542 4.633,13.958 8.687,20.11c3.989,6.053 10.295,6.157 17.078,5.996c3.305,-0.077 6.793,0.115 10.202,0.311Z" style="fill:#f00;fill-rule:nonzero;stroke:#000;stroke-width:0.64px;"/><path id="path454" d="M190.007,191.026c0,0 3.941,-0.511 12.039,7.254c6.465,6.2 10.218,14.427 14.733,22.014c4.111,6.907 6.195,13.155 13.052,18.224c3.29,2.433 7.204,2.555 11.052,3.271c2.875,0.535 6.922,2.515 9.578,0.312c-7.314,-4.696 -16.476,-6.116 -20.709,-14.738c-2.364,-4.816 -4.062,-10.009 -6.604,-14.721c-2.775,-5.144 -5.634,-11.381 -9.914,-15.486c-5.114,-4.905 -7.459,-6.947 -14.703,-8.787c0,0 -4.336,0.275 -8.311,0c0,0 -10.279,1.414 -14.967,9.792c0,0.002 7.723,-8.361 14.754,-7.135Z" style="fill:#f00;fill-rule:nonzero;stroke:#000;stroke-width:0.63px;"/><path id="polygon752" d="M335.216,270.575l18.577,-29l-18.577,19.576l0,9.424Z" style="fill-rule:nonzero;"/><path id="polygon774" d="M357.343,157.121l-34.05,-116.046l-3.5,3.5l37.55,112.546Z" style="fill-rule:nonzero;"/><path id="polygon798" d="M346.293,23.075l29.116,62.018l-33.616,-57.518l4.5,-4.5Z" style="fill-rule:nonzero;"/><path id="polygon800" d="M461.178,220.07l-36.885,87.005l-4.5,-7.5l41.385,-79.505Z" style="fill-rule:nonzero;"/><path id="polygon802" d="M454.847,172.575l-87.054,106.27l4,5.73l83.054,-112Z" style="fill-rule:nonzero;"/><path id="polygon804" d="M571.793,238.575l1,-12l-15.693,-23.307l14.693,35.307Z" style="fill-rule:nonzero;"/><path id="path806" d="M248.784,165.272c-3.442,0 -6.232,-5.366 -6.232,-11.986c0,-2.351 0.968,-4.588 1.016,-6.854c0.009,-0.43 -1.385,-4.535 -1.854,-3.509c1.357,-2.965 4.031,-5.407 7.55,-5.139c2.354,0.179 6.401,2.553 6.663,5.058c-3.726,1.126 -0.91,7.857 -0.91,10.443c-0.001,6.62 -2.791,11.987 -6.233,11.987Z" style="fill:#00a0c6;fill-rule:nonzero;stroke:#000;stroke-width:0.71px;"/><path id="polygon808" d="M212.346,88.289l0,71.696l-18.01,0l0,-71.696l18.01,0Z" style="fill:#ff900b;fill-rule:nonzero;stroke:#000;stroke-width:0.52px;"/><path id="polygon810" d="M200.959,111.264l-23.166,-44.689l1.465,-5.5l21.701,50.189Z" style="fill-rule:nonzero;"/><path id="polygon812" d="M267.126,180.242l51.007,-26.589l-56.007,21.589l5,5Z" style="fill-rule:nonzero;"/><path id="polygon814" d="M251.963,156.531l-19.17,-103.956l-4,2.667l23.17,101.289Z" style="fill-rule:nonzero;"/><g id="text3013"><text x="37.924px" y="64.09px" style="font-family:'LucidaGrande', 'Lucida Grande', sans-serif;font-weight:500;font-size:12px;">DNA-Polymerase (Pol)</text></g><g id="text3021"><text x="16.413px" y="125.44px" style="font-family:'LucidaGrande-Bold', 'Lucida Grande', sans-serif;font-weight:600;font-size:12px;fill:#a00;">Lagging</text><text x="25.987px" y="137.44px" style="font-family:'LucidaGrande-Bold', 'Lucida Grande', sans-serif;font-weight:600;font-size:12px;fill:#a00;">strand</text></g><g id="text3025"><text x="151.185px" y="181.127px" style="font-family:'LucidaGrande', 'Lucida Grande', sans-serif;font-weight:500;font-size:12px;">Okazaki fragment</text></g><g id="text3031"><text x="104.594px" y="215.105px" style="font-family:'LucidaGrande-Bold', 'Lucida Grande', sans-serif;font-weight:600;font-size:12px;fill:#a00;">Leading</text><text x="113.318px" y="227.105px" style="font-family:'LucidaGrande-Bold', 'Lucida Grande', sans-serif;font-weight:600;font-size:12px;fill:#a00;">strand</text></g><g id="text3041"><text x="575.914px" y="237.286px" style="font-family:'LucidaGrande', 'Lucida Grande', sans-serif;font-weight:500;font-size:12px;">Topoisomerase</text></g><g id="text3045"><text x="194.601px" y="268.904px" style="font-family:'LucidaGrande', 'Lucida Grande', sans-serif;font-weight:500;font-size:12px;">DNA Polymerase (Pol)</text></g><g id="text3049"><text x="163.455px" y="48.517px" style="font-family:'LucidaGrande', 'Lucida Grande', sans-serif;font-weight:500;font-size:12px;">DNA-ligase</text></g><g id="text3053"><text x="251.704px" y="42.854px" style="font-family:'LucidaGrande', 'Lucida Grande', sans-serif;font-weight:500;font-size:12px;">RNA primer</text></g><g id="text3057"><text x="294.649px" y="23.505px" style="font-family:'LucidaGrande', 'Lucida Grande', sans-serif;font-weight:500;font-size:12px;">DNA primase</text></g><g id="text3061"><text x="317.301px" y="287.781px" style="font-family:'LucidaGrande', 'Lucida Grande', sans-serif;font-weight:500;font-size:12px;">Helicase</text></g><g id="text3065"><text x="336.65px" y="307.13px" style="font-family:'LucidaGrande', 'Lucida Grande', sans-serif;font-weight:500;font-size:12px;">Single strand,</text><text x="336.65px" y="319.13px" style="font-family:'LucidaGrande', 'Lucida Grande', sans-serif;font-weight:500;font-size:12px;">Binding proteins</text></g><g id="text3286"><text x="41.884px" y="103.047px" style="font-family:'LucidaGrande', 'Lucida Grande', sans-serif;font-weight:500;font-size:13px;">3</text></g><g id="text3286-3"><text x="50.449px" y="170.387px" style="font-family:'LucidaGrande', 'Lucida Grande', sans-serif;font-weight:500;font-size:13px;">5</text></g><g id="text3286-9"><text x="150.868px" y="254.846px" style="font-family:'LucidaGrande', 'Lucida Grande', sans-serif;font-weight:500;font-size:13px;">3</text></g><g id="text3286-3-1"><text x="142.057px" y="197.823px" style="font-family:'LucidaGrande', 'Lucida Grande', sans-serif;font-weight:500;font-size:13px;">5</text></g><g id="text3286-0"><text x="662.711px" y="137.107px" style="font-family:'LucidaGrande', 'Lucida Grande', sans-serif;font-weight:500;font-size:13px;">3</text></g><g id="text3286-3-7"><text x="659.952px" y="200.933px" style="font-family:'LucidaGrande', 'Lucida Grande', sans-serif;font-weight:500;font-size:13px;">5</text></g><defs><linearGradient id="_Linear1" x1="0" y1="0" x2="1" y2="0" gradientUnits="userSpaceOnUse" gradientTransform="matrix(-0.57269,33.4104,-33.4104,-0.57269,371.741,83.6334)"><stop offset="0" style="stop-color:#015353;stop-opacity:1"/><stop offset="0.11" style="stop-color:#014f4e;stop-opacity:1"/><stop offset="0.24" style="stop-color:#01443f;stop-opacity:1"/><stop offset="0.39" style="stop-color:#003327;stop-opacity:1"/><stop offset="0.49" style="stop-color:#002210;stop-opacity:1"/><stop offset="0.67" style="stop-color:#003429;stop-opacity:1"/><stop offset="1" style="stop-color:#015353;stop-opacity:1"/></linearGradient><linearGradient id="_Linear2" x1="0" y1="0" x2="1" y2="0" gradientUnits="userSpaceOnUse" gradientTransform="matrix(-1.2785,74.5782,-74.5782,-1.2785,543.425,130.352)"><stop offset="0" style="stop-color:#006b33;stop-opacity:1"/><stop offset="0.05" style="stop-color:#00622f;stop-opacity:1"/><stop offset="0.24" style="stop-color:#003f1e;stop-opacity:1"/><stop offset="0.39" style="stop-color:#002a14;stop-opacity:1"/><stop offset="0.49" style="stop-color:#002210;stop-opacity:1"/><stop offset="0.6" style="stop-color:#002813;stop-opacity:1"/><stop offset="0.73" style="stop-color:#00381a;stop-opacity:1"/><stop offset="0.88" style="stop-color:#005227;stop-opacity:1"/><stop offset="1" style="stop-color:#006b33;stop-opacity:1"/></linearGradient><linearGradient id="_Linear3" x1="0" y1="0" x2="1" y2="0" gradientUnits="userSpaceOnUse" gradientTransform="matrix(-0.42639,71.5945,-71.5945,-0.42639,555.948,134.607)"><stop offset="0" style="stop-color:#006b33;stop-opacity:1"/><stop offset="0.02" style="stop-color:#007530;stop-opacity:1"/><stop offset="0.09" style="stop-color:#009f21;stop-opacity:1"/><stop offset="0.17" style="stop-color:#00c215;stop-opacity:1"/><stop offset="0.25" style="stop-color:#00dd0c;stop-opacity:1"/><stop offset="0.34" style="stop-color:#00f005;stop-opacity:1"/><stop offset="0.42" style="stop-color:#00fb01;stop-opacity:1"/><stop offset="0.51" style="stop-color:#0f0;stop-opacity:1"/><stop offset="1" style="stop-color:#006b33;stop-opacity:1"/></linearGradient><radialGradient id="_Radial4" cx="0" cy="0" r="1" gradientUnits="userSpaceOnUse" gradientTransform="matrix(6.6107,0,0,6.6107,338.723,151.288)"><stop offset="0" style="stop-color:#ff7f00;stop-opacity:1"/><stop offset="1" style="stop-color:#8f0000;stop-opacity:1"/></radialGradient><radialGradient id="_Radial5" cx="0" cy="0" r="1" gradientUnits="userSpaceOnUse" gradientTransform="matrix(6.6102,0,0,6.6102,356.313,155.885)"><stop offset="0" style="stop-color:#ff7f00;stop-opacity:1"/><stop offset="1" style="stop-color:#8f0000;stop-opacity:1"/></radialGradient><radialGradient id="_Radial6" cx="0" cy="0" r="1" gradientUnits="userSpaceOnUse" gradientTransform="matrix(6.6099,0,0,6.6099,278.539,151.197)"><stop offset="0" style="stop-color:#ff7f00;stop-opacity:1"/><stop offset="1" style="stop-color:#8f0000;stop-opacity:1"/></radialGradient><linearGradient id="_Linear7" x1="0" y1="0" x2="1" y2="0" gradientUnits="userSpaceOnUse" gradientTransform="matrix(-0.63931,44.747,-44.747,-0.63931,377.479,77.757)"><stop offset="0" style="stop-color:#015353;stop-opacity:1"/><stop offset="0.07" style="stop-color:#045d5f;stop-opacity:1"/><stop offset="0.19" style="stop-color:#0a7881;stop-opacity:1"/><stop offset="0.35" style="stop-color:#15a3b6;stop-opacity:1"/><stop offset="0.51" style="stop-color:#20d0ed;stop-opacity:1"/><stop offset="0.58" style="stop-color:#1ab9d1;stop-opacity:1"/><stop offset="0.78" style="stop-color:#0d828e;stop-opacity:1"/><stop offset="0.93" style="stop-color:#046063;stop-opacity:1"/><stop offset="1" style="stop-color:#015353;stop-opacity:1"/></linearGradient></defs></svg>