<?xml version="1.0" encoding="UTF-8" standalone="no"?><!DOCTYPE svg PUBLIC "-//W3C//DTD SVG 1.1//EN" "http://www.w3.org/Graphics/SVG/1.1/DTD/svg11.dtd"><svg width="100%" height="100%" viewBox="0 0 500 300" version="1.1" xmlns="http://www.w3.org/2000/svg" xmlns:xlink="http://www.w3.org/1999/xlink" xml:space="preserve" xmlns:serif="http://www.serif.com/" style="fill-rule:evenodd;clip-rule:evenodd;stroke-linejoin:round;stroke-miterlimit:1.41421;"><g id="lactose"><path id="path3022" d="M290.882,272.605c-1.376,-0.448 -2.543,-1.498 -3.231,-2.884c-0.538,-1.088 -0.602,-1.472 -0.602,-3.279c0,-1.807 0.064,-2.191 0.602,-3.278c1.296,-2.639 3.988,-3.748 6.957,-2.868c2.282,0.682 3.684,2.681 3.897,5.544c0.304,3.971 -1.85,6.765 -5.363,6.983c-0.794,0.054 -1.722,-0.053 -2.26,-0.218Zm4.179,-1.989c1.056,-0.831 1.594,-1.924 1.722,-3.518c0.24,-2.447 -0.688,-4.419 -2.388,-5.198c-2.218,-1.007 -4.718,0.128 -5.406,2.474c-1.14,3.865 0.773,7.175 4.025,6.967c0.992,-0.064 1.424,-0.213 2.047,-0.725Zm5.667,-4.174l0,-6.248l1.722,0l0,5.171l6.461,0l0,-2.585l0,-2.586l1.722,0l0,12.496l-0.858,0l-0.864,0l0,-2.911l0,-2.905l-3.231,0l-3.23,0l0,5.816l-0.864,0l-0.858,0l0,-6.248Zm-103.755,-6.546c-1.376,-0.448 -2.538,-1.498 -3.231,-2.884c-0.538,-1.088 -0.602,-1.471 -0.602,-3.279c0,-1.807 0.064,-2.191 0.602,-3.278c1.296,-2.639 3.988,-3.748 6.957,-2.863c2.287,0.677 3.684,2.676 3.902,5.539c0.299,3.977 -1.855,6.765 -5.363,6.983c-0.799,0.054 -1.727,-0.053 -2.265,-0.218Zm4.179,-1.988c1.056,-0.832 1.594,-1.925 1.722,-3.519c0.24,-2.447 -0.688,-4.419 -2.388,-5.198c-2.218,-1.007 -4.718,0.128 -5.406,2.474c-1.141,3.865 0.773,7.175 4.025,6.968c0.992,-0.064 1.423,-0.214 2.047,-0.725Zm5.667,-4.175l0,-6.242l1.722,0l0,5.166l6.461,0l0,-2.581l0,-2.585l1.722,0l0,12.49l-0.859,0l-0.863,0l0,-2.905l0,-2.911l-3.231,0l-3.23,0l0,5.816l-0.864,0l-0.858,0l0,-6.248Zm85.507,1.131c0,-2.101 -0.063,-6.92 -0.127,-10.716l-0.134,-6.887l7.885,-5.363c4.35,-2.948 7.863,-5.4 7.82,-5.437c-0.053,-0.054 -6.957,1.567 -15.337,3.582c-8.401,2.015 -15.507,3.662 -15.763,3.662c-0.539,0 -19.645,-5.069 -19.821,-5.256c-0.064,-0.059 -0.064,-0.347 0.054,-0.64c0.128,-0.49 0.192,-0.517 0.837,-0.336c5.128,1.493 18.546,4.937 18.674,4.798c0.192,-0.186 18.935,-33.366 19.106,-33.803c0.053,-0.133 -3.295,0.666 -7.41,1.775c-4.116,1.109 -8.359,2.244 -9.393,2.522l-1.871,0.506l-0.15,-0.528c-0.069,-0.293 0,-0.591 0.107,-0.671c0.107,-0.075 4.718,-1.333 10.187,-2.794l9.996,-2.655l19.9,5.507c10.96,3.028 19.922,5.486 19.943,5.459c0,-0.053 2.154,-3.758 4.76,-8.289c2.586,-4.526 4.825,-8.237 4.953,-8.237c0.106,0 0.368,0.118 0.56,0.267c0.303,0.234 -0.171,1.162 -4.132,8.018c-2.479,4.264 -4.462,7.788 -4.419,7.831c0.053,0.053 8.593,-2.421 18.999,-5.47c10.401,-3.054 19.021,-5.549 19.127,-5.549c0.192,0 18.136,10.262 18.371,10.507c0.197,0.192 -0.539,0.965 -0.795,0.863c-0.176,-0.063 -4.094,-2.297 -8.705,-4.957c-4.606,-2.66 -8.439,-4.835 -8.529,-4.835c-0.086,0 -3.38,6.663 -7.32,14.804c-3.966,8.145 -7.218,14.83 -7.239,14.862c0,0.053 -1.12,-0.549 -2.431,-1.29l-2.394,-1.343l0.347,-0.539c0.192,-0.298 4.003,-6.12 8.465,-12.927c4.457,-6.813 8.269,-12.645 8.487,-12.96l0.363,-0.57l-3.94,1.162c-2.175,0.634 -10.768,3.156 -19.127,5.598l-15.188,4.44l-19.9,-5.507c-10.96,-3.028 -19.922,-5.485 -19.943,-5.459c-0.496,0.736 -19.042,33.857 -18.978,33.91c0,0.054 8.188,-2.793 18.114,-6.285c9.91,-3.502 18.2,-6.365 18.397,-6.37c0.192,0 8.055,2.148 17.486,4.787l17.149,4.792l-0.41,1.514c-0.24,0.832 -0.496,1.621 -0.581,1.754c-0.086,0.16 -5.561,-1.284 -16.5,-4.36c-9.003,-2.527 -16.477,-4.596 -16.627,-4.596c-0.154,0 -5.128,3.316 -11.072,7.373l-10.811,7.378l0.107,10.39l0.106,10.395l-0.602,0l-0.624,0l0,-3.827l-0.027,0Zm-102.459,-16.046c-2.629,-4.532 -4.868,-8.226 -4.974,-8.205c-0.053,0 -8.583,2.421 -18.925,5.342l-18.765,5.315l-11.248,-2.554c-10.555,-2.388 -11.301,-2.585 -11.355,-3.028c-0.053,-0.266 0.054,-0.527 0.214,-0.586c0.213,-0.091 14.819,3.086 15.832,3.449c0.267,0.085 -11.888,-24.256 -15.726,-31.484l-1.226,-2.405l0,-10.139l0,-10.139l1.066,0l0,19.346l0.693,0.229c1.919,0.618 34.491,9.937 34.545,9.883c0,-0.053 -4.532,-3.15 -10.182,-6.925c-5.598,-3.774 -10.183,-6.94 -10.183,-7.036c0,-0.283 9.916,-17.438 10.076,-17.438c0.107,0 0.373,0.134 0.586,0.288c0.373,0.272 0.054,0.821 -4.424,8.551c-2.612,4.542 -4.692,8.321 -4.585,8.401c0.107,0.08 5.224,3.572 11.462,7.752l11.301,7.601l15.886,-4.574c16.329,-4.68 16.457,-4.701 16.265,-3.694c0,0.219 -4.846,1.695 -15.998,4.899c-8.743,2.522 -16.1,4.585 -16.206,4.585c-0.267,0 -36.784,-10.422 -38.116,-10.875c-0.213,-0.064 -0.16,0.053 0.053,0.389c0.16,0.261 4.798,7.501 10.342,16.094c5.544,8.588 10.129,15.646 10.235,15.678c0.107,0.053 9.063,-2.468 19.991,-5.56l19.831,-5.624l18.269,6.258c10.012,3.444 18.264,6.232 18.306,6.195c0,-0.053 -3.379,-6.072 -7.601,-13.407l-7.672,-13.328l0.496,-0.389l0.475,-0.384l1.204,2.101c0.672,1.157 4.265,7.41 7.991,13.897c3.727,6.483 6.851,11.792 6.957,11.792c0.091,0 3.86,-2.132 8.38,-4.739c4.526,-2.607 8.274,-4.739 8.359,-4.739c0.086,0 0.235,0.224 0.363,0.491c0.218,0.474 -0.107,0.687 -8.439,5.496c-4.76,2.75 -8.833,5 -9.025,5c-0.283,0 -32.396,-7.335 -36.464,-8.327c-0.373,-0.096 0.299,1.242 3.657,7.064c3.62,6.258 4.116,7.218 3.833,7.447c-0.192,0.144 -0.447,0.266 -0.559,0.272c-0.128,0 -2.367,-3.7 -4.995,-8.236Zm-74.969,1.482c-1.386,-0.448 -2.559,-1.504 -3.198,-2.89c-0.587,-1.082 -0.64,-1.471 -0.64,-3.273c0,-1.807 0.053,-2.191 0.64,-3.284c1.279,-2.639 3.944,-3.747 6.93,-2.863c2.292,0.683 3.678,2.677 3.891,5.545c0.32,3.971 -1.866,6.765 -5.331,6.978c-0.799,0.053 -1.759,-0.054 -2.292,-0.213Zm4.212,-1.994c1.012,-0.827 1.545,-1.925 1.705,-3.519c0.214,-2.441 -0.693,-4.419 -2.398,-5.192c-2.239,-1.013 -4.692,0.123 -5.385,2.468c-1.173,3.865 0.747,7.176 3.998,6.968c1.013,-0.059 1.387,-0.213 2.08,-0.725Zm-19.991,-4.169l0,-6.248l1.706,0l0,5.171l6.503,0l0,-2.585l0,-2.586l1.706,0l0,12.49l-0.853,0l-0.853,0l0,-2.905l0,-2.911l-3.252,0l-3.251,0l0,5.816l-0.853,0l-0.853,0l0,-6.242Zm255.089,5.086c-1.381,-0.448 -2.543,-1.504 -3.231,-2.89c-0.538,-1.082 -0.608,-1.471 -0.608,-3.273c0,-1.807 0.07,-2.191 0.608,-3.284c1.29,-2.638 3.982,-3.747 6.957,-2.862c2.282,0.682 3.684,2.676 3.897,5.544c0.304,3.971 -1.855,6.765 -5.363,6.978c-0.8,0.053 -1.722,-0.053 -2.26,-0.213Zm4.174,-1.994c1.055,-0.826 1.594,-1.925 1.727,-3.518c0.234,-2.442 -0.693,-4.42 -2.394,-5.193c-2.217,-1.013 -4.718,0.123 -5.405,2.468c-1.162,3.865 0.778,7.176 4.03,6.968c0.992,-0.059 1.418,-0.213 2.042,-0.725Zm-111.224,-4.899c-1.376,-0.448 -2.538,-1.503 -3.231,-2.89c-0.538,-1.082 -0.602,-1.471 -0.602,-3.273c0,-1.807 0.064,-2.191 0.602,-3.284c1.296,-2.638 3.988,-3.747 6.957,-2.862c2.287,0.682 3.684,2.676 3.902,5.544c0.299,3.971 -1.855,6.765 -5.363,6.978c-0.799,0.053 -1.727,-0.053 -2.265,-0.213Zm4.179,-1.994c1.056,-0.826 1.594,-1.924 1.722,-3.518c0.24,-2.442 -0.688,-4.42 -2.388,-5.193c-2.218,-1.012 -4.718,0.128 -5.406,2.469c-1.141,3.864 0.773,7.175 4.025,6.972c0.992,-0.064 1.423,-0.213 2.047,-0.73Zm147.885,-12.655c-1.381,-0.448 -2.543,-1.498 -3.231,-2.884c-0.538,-1.088 -0.602,-1.472 -0.602,-3.279c0,-1.807 0.064,-2.191 0.602,-3.279c1.29,-2.638 3.982,-3.747 6.957,-2.862c2.282,0.677 3.684,2.676 3.897,5.539c0.304,3.976 -1.85,6.765 -5.363,6.983c-0.794,0.053 -1.722,-0.053 -2.26,-0.218Zm4.179,-1.989c1.056,-0.832 1.594,-1.924 1.722,-3.518c0.24,-2.447 -0.688,-4.42 -2.388,-5.198c-2.223,-1.007 -4.718,0.128 -5.411,2.474c-1.162,3.865 0.778,7.175 4.03,6.967c0.992,-0.064 1.423,-0.213 2.047,-0.725Zm5.662,-4.174l0,-6.242l1.727,0l0,5.165l6.461,0l0,-2.585l0,-2.58l1.722,0l0,12.49l-0.864,0l-0.858,0l0,-2.906l0,-2.91l-3.231,0l-3.23,0l0,5.816l-0.864,0l-0.863,0l0,-6.248Zm-141.658,-0.299c-1.376,-0.447 -2.543,-1.498 -3.231,-2.884c-0.538,-1.087 -0.602,-1.471 -0.602,-3.278c0,-1.807 0.064,-2.191 0.602,-3.279c1.295,-2.638 3.988,-3.747 6.957,-2.862c2.287,0.677 3.683,2.676 3.902,5.539c0.299,3.976 -1.855,6.764 -5.368,6.983c-0.794,0.053 -1.722,-0.053 -2.26,-0.219Zm4.179,-1.988c1.055,-0.832 1.594,-1.924 1.722,-3.518c0.24,-2.447 -0.688,-4.42 -2.388,-5.198c-2.218,-1.008 -4.718,0.128 -5.406,2.474c-1.141,3.864 0.773,7.175 4.025,6.967c0.991,-0.064 1.423,-0.213 2.047,-0.725Zm-20.183,-4.174l0,-6.243l1.727,0l0,5.166l6.461,0l0,-2.585l0,-2.581l1.722,0l0,12.491l-0.863,0l-0.859,0l0,-2.906l0,-2.91l-3.23,0l-3.231,0l0,5.816l-0.863,0l-0.864,0l0,-6.248Zm-49.689,5.731c-1.376,-0.448 -2.538,-1.498 -3.231,-2.884c-0.538,-1.088 -0.602,-1.472 -0.602,-3.279c0,-1.807 0.064,-2.186 0.602,-3.278c1.296,-2.639 3.988,-3.748 6.957,-2.863c2.287,0.677 3.684,2.676 3.902,5.539c0.299,3.977 -1.855,6.765 -5.363,6.983c-0.799,0.054 -1.727,-0.053 -2.265,-0.218Zm4.179,-1.989c1.056,-0.826 1.594,-1.924 1.722,-3.518c0.24,-2.447 -0.688,-4.419 -2.388,-5.198c-2.218,-1.007 -4.718,0.128 -5.406,2.474c-1.14,3.865 0.773,7.175 4.025,6.967c0.992,-0.064 1.424,-0.213 2.047,-0.725Zm143.359,-18.471c-1.376,-0.448 -2.538,-1.498 -3.231,-2.884c-0.538,-1.088 -0.602,-1.472 -0.602,-3.279c0,-1.807 0.064,-2.191 0.602,-3.278c1.296,-2.639 3.988,-3.748 6.957,-2.868c2.287,0.682 3.684,2.681 3.902,5.544c0.299,3.971 -1.855,6.765 -5.363,6.978c-0.799,0.053 -1.727,-0.053 -2.265,-0.213Zm4.179,-1.989c1.056,-0.831 1.594,-1.924 1.722,-3.518c0.24,-2.447 -0.688,-4.425 -2.388,-5.198c-2.218,-1.007 -4.718,0.128 -5.406,2.474c-1.162,3.865 0.773,7.175 4.025,6.967c0.992,-0.064 1.424,-0.213 2.047,-0.725Zm5.667,-4.174l0,-6.248l1.722,0l0,5.171l6.461,0l0,-2.585l0,-2.586l1.722,0l0,12.496l-0.858,0l-0.864,0l0,-2.911l0,-2.905l-3.231,0l-3.23,0l0,5.816l-0.864,0l-0.858,0l0,-6.248Zm-236.841,-1.807c-1.386,-0.448 -2.559,-1.498 -3.252,-2.884c-0.533,-1.088 -0.586,-1.471 -0.586,-3.279c0,-1.807 0.053,-2.191 0.586,-3.278c1.279,-2.639 3.998,-3.748 6.93,-2.863c2.292,0.677 3.732,2.676 3.945,5.539c0.266,3.977 -1.866,6.765 -5.384,6.978c-0.8,0.054 -1.706,-0.053 -2.239,-0.213Zm4.158,-1.988c1.066,-0.832 1.599,-1.925 1.706,-3.519c0.266,-2.447 -0.693,-4.419 -2.399,-5.197c-2.186,-1.008 -4.691,0.127 -5.384,2.473c-1.12,3.865 0.799,7.175 4.051,6.968c0.96,-0.064 1.386,-0.214 2.026,-0.725Zm5.651,-4.175l0,-6.242l1.706,0l0,5.166l6.503,0l0,-2.586l0,-2.58l1.706,0l0,12.49l-0.853,0l-0.853,0l0,-2.91l0,-2.906l-3.252,0l-3.251,0l0,5.816l-0.853,0l-0.853,0l0,-6.248Zm20.31,5.518c-1.386,-0.448 -2.505,-1.498 -3.198,-2.884c-0.533,-1.088 -0.64,-1.471 -0.64,-3.279c0,-1.807 0.107,-2.191 0.64,-3.278c1.279,-2.639 3.945,-3.748 6.93,-2.868c2.292,0.682 3.678,2.681 3.892,5.544c0.319,3.972 -1.813,6.765 -5.331,6.978c-0.8,0.053 -1.76,-0.053 -2.293,-0.213Zm4.212,-1.988c1.013,-0.832 1.599,-1.93 1.706,-3.524c0.213,-2.447 -0.693,-4.42 -2.399,-5.193c-2.186,-1.012 -4.691,0.128 -5.384,2.474c-1.173,3.865 0.746,7.175 3.998,6.968c1.013,-0.064 1.439,-0.214 2.079,-0.725Zm5.864,-4.175l0,-6.247l1.706,0l0,5.171l6.503,0l0,-2.586l0,-2.585l1.706,0l0,12.495l-0.853,0l-0.853,0l0,-2.91l0,-2.906l-3.252,0l-3.251,0l0,5.816l-0.853,0l-0.853,0l0,-6.248Z" style="fill-rule:nonzero;"/><text id="lactose1" serif:id="lactose" x="85.741px" y="293.84px" style="font-family:'ArialMT', 'Arial', sans-serif;font-size:20px;">β-D-galactopyranosyl-(1→4)-D-glucose</text></g><g id="galactose"><text id="lactose2" serif:id="lactose" x="53.01px" y="22.705px" style="font-family:'ArialMT', 'Arial', sans-serif;font-size:20px;">β-D-galactopyranose</text><g id="galactose1" serif:id="galactose"><path id="polygon3" d="M155.988,121.492l2.21,1.872l-0.648,1.872l-40.85,0l2.172,-1.872l0.648,-1.872l36.468,0Z" style="fill-rule:nonzero;"/><path id="polygon5" d="M90.406,96.824l0.648,-0.221l0.953,-0.036l26.217,22.501l0.648,4.296l-2.172,1.872l-26.294,-28.412Z" style="fill-rule:nonzero;"/><path id="polygon7" d="M118.224,69.549l0.648,0.256l0.267,0.624l-27.132,26.138l-0.953,0.036l0.648,-1.505l26.522,-25.549Z" style="fill-rule:nonzero;"/><path id="path11" d="M151.915,70.602c0,-2.094 0.584,-3.734 1.751,-4.919c1.168,-1.184 2.675,-1.776 4.523,-1.776c1.208,0 2.299,0.278 3.27,0.834c0.97,0.557 1.71,1.333 2.22,2.328c0.51,0.996 0.764,2.125 0.764,3.386c0,1.279 -0.268,2.425 -0.804,3.434c-0.537,1.01 -1.296,1.775 -2.278,2.294c-0.984,0.519 -2.044,0.779 -3.182,0.779c-1.233,0 -2.335,-0.287 -3.306,-0.861c-0.971,-0.573 -1.707,-1.357 -2.207,-2.349c-0.501,-0.993 -0.751,-2.043 -0.751,-3.15Zm1.787,0.022c0,1.519 0.424,2.717 1.273,3.592c0.849,0.874 1.914,1.312 3.195,1.312c1.304,0 2.379,-0.442 3.222,-1.325c0.843,-0.884 1.265,-2.137 1.265,-3.76c0,-1.026 -0.18,-1.923 -0.541,-2.689c-0.361,-0.765 -0.888,-1.359 -1.582,-1.781c-0.694,-0.421 -1.474,-0.632 -2.336,-0.632c-1.228,0 -2.284,0.406 -3.169,1.217c-0.885,0.812 -1.327,2.167 -1.327,4.066Z" style="fill-rule:nonzero;"/><path id="polygon13" d="M150.196,69.182l0,1.247l-31.057,0l-0.267,-0.624l0.648,-0.623l30.676,0Z" style="fill-rule:nonzero;"/><path id="polygon15" d="M185.33,95.098l0.648,1.505l-0.952,-0.036l-21.074,-20.301l0.915,-0.881l20.463,19.713Z" style="fill-rule:nonzero;"/><path id="polygon17" d="M158.846,126.888l-0.648,-3.524l-2.21,-1.872l29.038,-24.925l0.952,0.036l0.647,0.221l-27.779,30.064Z" style="fill-rule:nonzero;"/><path id="path21" d="M151.915,153.308c0,-2.094 0.584,-3.734 1.751,-4.919c1.168,-1.184 2.675,-1.776 4.523,-1.776c1.208,0 2.299,0.278 3.27,0.835c0.97,0.556 1.71,1.332 2.22,2.328c0.51,0.995 0.764,2.124 0.764,3.386c0,1.279 -0.268,2.424 -0.804,3.433c-0.537,1.011 -1.296,1.775 -2.278,2.294c-0.984,0.519 -2.044,0.779 -3.182,0.779c-1.233,0 -2.335,-0.287 -3.306,-0.86c-0.971,-0.574 -1.707,-1.357 -2.207,-2.35c-0.501,-0.993 -0.751,-2.043 -0.751,-3.15Zm1.787,0.021c0,1.52 0.424,2.717 1.273,3.592c0.849,0.875 1.914,1.312 3.195,1.312c1.304,0 2.379,-0.442 3.222,-1.325c0.843,-0.883 1.265,-2.136 1.265,-3.76c0,-1.026 -0.18,-1.922 -0.541,-2.688c-0.361,-0.766 -0.888,-1.36 -1.582,-1.781c-0.694,-0.422 -1.474,-0.632 -2.336,-0.632c-1.228,0 -2.284,0.406 -3.169,1.217c-0.885,0.811 -1.327,2.166 -1.327,4.065Z" style="fill-rule:nonzero;"/><path id="path23" d="M166.739,159.449l0,-12.619l1.738,0l0,5.186l6.776,0l0,-5.186l1.739,0l0,12.619l-1.739,0l0,-5.942l-6.776,0l0,5.942l-1.738,0Z" style="fill-rule:nonzero;"/><path id="polygon25" d="M158.846,144.986l-1.296,0l0,-19.75l0.648,-1.872l0.648,3.524l0,18.098Z" style="fill-rule:nonzero;"/><path id="path29" d="M179.733,68.252c0,-2.094 0.584,-3.733 1.751,-4.918c1.168,-1.184 2.675,-1.777 4.522,-1.777c1.209,0 2.3,0.278 3.271,0.835c0.97,0.556 1.71,1.332 2.22,2.328c0.51,0.996 0.764,2.125 0.764,3.386c0,1.279 -0.268,2.424 -0.805,3.434c-0.536,1.01 -1.295,1.774 -2.278,2.293c-0.984,0.519 -2.044,0.779 -3.181,0.779c-1.234,0 -2.335,-0.287 -3.306,-0.86c-0.972,-0.574 -1.707,-1.357 -2.207,-2.349c-0.501,-0.993 -0.751,-2.044 -0.751,-3.151Zm1.787,0.021c0,1.52 0.424,2.718 1.273,3.593c0.849,0.874 1.914,1.312 3.195,1.312c1.304,0 2.379,-0.442 3.222,-1.325c0.843,-0.884 1.265,-2.137 1.265,-3.76c0,-1.027 -0.18,-1.923 -0.541,-2.689c-0.362,-0.766 -0.888,-1.359 -1.582,-1.781c-0.694,-0.421 -1.474,-0.632 -2.336,-0.632c-1.228,0 -2.284,0.406 -3.169,1.217c-0.885,0.812 -1.327,2.168 -1.327,4.065Z" style="fill-rule:nonzero;"/><path id="path31" d="M194.557,74.394l0,-12.619l1.738,0l0,5.186l6.776,0l0,-5.186l1.739,0l0,12.619l-1.739,0l0,-5.942l-6.776,0l0,5.942l-1.738,0l0,0Z" style="fill-rule:nonzero;"/><path id="polygon33" d="M185.33,76.229l1.295,0l0,20.595l-0.647,-0.221l-0.648,-1.505l0,-18.869Z" style="fill-rule:nonzero;"/><path id="path37" d="M84.81,68.252c0,-2.094 0.584,-3.733 1.751,-4.918c1.168,-1.184 2.675,-1.777 4.522,-1.777c1.209,0 2.299,0.278 3.27,0.835c0.971,0.556 1.711,1.332 2.221,2.328c0.509,0.996 0.764,2.125 0.764,3.386c0,1.279 -0.269,2.424 -0.804,3.434c-0.537,1.01 -1.296,1.774 -2.279,2.293c-0.983,0.519 -2.043,0.779 -3.181,0.779c-1.233,0 -2.335,-0.287 -3.306,-0.86c-0.971,-0.574 -1.707,-1.357 -2.208,-2.349c-0.5,-0.993 -0.75,-2.044 -0.75,-3.151Zm1.786,0.021c0,1.52 0.425,2.718 1.274,3.593c0.849,0.875 1.914,1.312 3.195,1.312c1.304,0 2.378,-0.442 3.222,-1.325c0.843,-0.884 1.264,-2.137 1.264,-3.76c0,-1.027 -0.18,-1.923 -0.54,-2.689c-0.361,-0.766 -0.888,-1.359 -1.582,-1.781c-0.695,-0.421 -1.474,-0.632 -2.337,-0.632c-1.227,0 -2.283,0.406 -3.168,1.217c-0.885,0.812 -1.328,2.168 -1.328,4.065Z" style="fill-rule:nonzero;"/><path id="path39" d="M99.632,74.394l0,-12.619l1.739,0l0,5.186l6.776,0l0,-5.186l1.738,0l0,12.619l-1.738,0l0,-5.942l-6.776,0l0,5.942l-1.739,0l0,0Z" style="fill-rule:nonzero;"/><path id="polygon41" d="M90.406,76.229l1.296,0l0,18.869l-0.648,1.505l-0.648,0.221l0,-20.595Z" style="fill-rule:nonzero;"/><path id="path45" d="M112.589,95.05c0,-2.094 0.584,-3.734 1.752,-4.919c1.167,-1.184 2.674,-1.776 4.521,-1.776c1.209,0 2.299,0.278 3.27,0.835c0.971,0.556 1.711,1.332 2.221,2.328c0.509,0.995 0.764,2.124 0.764,3.386c0,1.279 -0.269,2.424 -0.804,3.433c-0.537,1.011 -1.296,1.775 -2.279,2.294c-0.983,0.519 -2.043,0.779 -3.181,0.779c-1.233,0 -2.336,-0.287 -3.306,-0.861c-0.971,-0.573 -1.707,-1.356 -2.208,-2.349c-0.5,-0.992 -0.75,-2.043 -0.75,-3.15Zm1.786,0.021c0,1.52 0.425,2.717 1.274,3.592c0.849,0.876 1.914,1.312 3.195,1.312c1.304,0 2.378,-0.442 3.222,-1.325c0.843,-0.883 1.264,-2.136 1.264,-3.76c0,-1.026 -0.18,-1.922 -0.54,-2.688c-0.361,-0.766 -0.888,-1.36 -1.582,-1.781c-0.695,-0.422 -1.474,-0.632 -2.337,-0.632c-1.227,0 -2.283,0.406 -3.168,1.217c-0.885,0.811 -1.328,2.167 -1.328,4.065Z" style="fill-rule:nonzero;"/><path id="path47" d="M127.412,101.191l0,-12.618l1.739,0l0,5.185l6.776,0l0,-5.185l1.738,0l0,12.619l-1.738,0l0,-5.943l-6.776,0l0,5.943l-1.739,0l0,-0.001Z" style="fill-rule:nonzero;"/><path id="polygon49" d="M118.224,103.027l1.296,0l0,18.465l-0.648,1.872l-0.648,-4.296l0,-16.041Z" style="fill-rule:nonzero;"/><path id="path53" d="M123.021,43.171l1.738,0.421c-0.363,1.373 -1.016,2.42 -1.958,3.141c-0.942,0.721 -2.096,1.081 -3.458,1.081c-1.409,0 -2.556,-0.277 -3.439,-0.831c-0.883,-0.554 -1.556,-1.356 -2.017,-2.407c-0.461,-1.05 -0.691,-2.178 -0.691,-3.384c0,-1.315 0.26,-2.461 0.781,-3.44c0.52,-0.979 1.26,-1.722 2.221,-2.23c0.96,-0.508 2.018,-0.762 3.171,-0.762c1.308,0 2.408,0.321 3.3,0.964c0.892,0.644 1.513,1.549 1.864,2.715l-1.703,0.386c-0.303,-0.917 -0.743,-1.585 -1.319,-2.004c-0.577,-0.418 -1.303,-0.628 -2.176,-0.628c-1.004,0 -1.844,0.232 -2.52,0.697c-0.674,0.465 -1.148,1.088 -1.422,1.872c-0.273,0.783 -0.41,1.59 -0.41,2.422c0,1.072 0.161,2.008 0.485,2.809c0.324,0.8 0.827,1.397 1.511,1.793c0.683,0.396 1.422,0.594 2.219,0.594c0.969,0 1.788,-0.269 2.459,-0.809c0.672,-0.54 1.126,-1.339 1.364,-2.4Z" style="fill-rule:nonzero;"/><path id="path55" d="M126.966,47.596l0,-12.618l1.738,0l0,5.185l6.776,0l0,-5.185l1.739,0l0,12.619l-1.739,0l0,-5.943l-6.776,0l0,5.943l-1.738,0l0,-0.001Z" style="fill-rule:nonzero;"/><path id="path59" d="M144.771,49.787l0,1.113l-6.501,0c-0.01,-0.279 0.038,-0.548 0.141,-0.807c0.166,-0.426 0.432,-0.844 0.799,-1.257c0.366,-0.413 0.892,-0.889 1.578,-1.43c1.064,-0.846 1.785,-1.515 2.164,-2.007c0.38,-0.492 0.569,-0.957 0.569,-1.397c0,-0.459 -0.171,-0.847 -0.514,-1.163c-0.343,-0.316 -0.79,-0.473 -1.341,-0.473c-0.584,0 -1.05,0.168 -1.4,0.505c-0.35,0.336 -0.526,0.803 -0.531,1.398l-1.238,-0.126c0.084,-0.892 0.404,-1.573 0.96,-2.04c0.555,-0.468 1.3,-0.701 2.236,-0.701c0.944,0 1.692,0.251 2.242,0.755c0.55,0.504 0.826,1.127 0.826,1.872c0,0.38 -0.081,0.751 -0.242,1.117c-0.161,0.366 -0.429,0.75 -0.803,1.156c-0.374,0.404 -0.993,0.96 -1.859,1.665c-0.725,0.586 -1.191,0.983 -1.397,1.191c-0.207,0.209 -0.378,0.418 -0.513,0.629l4.824,0l0,0Z" style="fill-rule:nonzero;"/><path id="path63" d="M145.783,41.455c0,-2.094 0.583,-3.734 1.751,-4.919c1.168,-1.184 2.674,-1.776 4.522,-1.776c1.208,0 2.299,0.278 3.27,0.834c0.97,0.557 1.71,1.333 2.22,2.328c0.51,0.996 0.765,2.125 0.765,3.386c0,1.279 -0.269,2.425 -0.805,3.434c-0.537,1.01 -1.296,1.775 -2.278,2.294c-0.984,0.519 -2.044,0.779 -3.181,0.779c-1.234,0 -2.336,-0.287 -3.307,-0.861c-0.971,-0.573 -1.706,-1.356 -2.207,-2.349c-0.5,-0.993 -0.75,-2.043 -0.75,-3.15Zm1.786,0.021c0,1.52 0.425,2.717 1.274,3.592c0.849,0.875 1.913,1.312 3.195,1.312c1.304,0 2.379,-0.442 3.222,-1.325c0.843,-0.883 1.265,-2.137 1.265,-3.76c0,-1.026 -0.18,-1.923 -0.541,-2.688c-0.362,-0.766 -0.888,-1.36 -1.582,-1.781c-0.694,-0.422 -1.474,-0.633 -2.336,-0.633c-1.228,0 -2.284,0.406 -3.169,1.218c-0.886,0.812 -1.328,2.167 -1.328,4.065Z" style="fill-rule:nonzero;"/><path id="path65" d="M160.606,47.596l0,-12.618l1.738,0l0,5.185l6.777,0l0,-5.185l1.738,0l0,12.619l-1.738,0l0,-5.943l-6.777,0l0,5.943l-1.738,0l0,-0.001Z" style="fill-rule:nonzero;"/><path id="polygon67" d="M118.224,49.469l1.296,0l0,19.713l-0.648,0.623l-0.648,-0.256l0,-20.08Z" style="fill-rule:nonzero;"/></g></g><g id="glucose"><text id="lactose3" serif:id="lactose" x="265.429px" y="22.455px" style="font-family:'ArialMT', 'Arial', sans-serif;font-size:20px;">α-D-glucopyranose</text><g id="glucose1" serif:id="glucose"><path id="polygon31" serif:id="polygon3" d="M362.944,121.47l2.211,1.943l-0.648,1.943l-40.85,0l2.171,-1.943l0.648,-1.943l36.468,0Z" style="fill-rule:nonzero;"/><path id="polygon51" serif:id="polygon5" d="M298.658,97.31l-0.648,-1.677l0.953,-0.038l26.218,23.359l0.647,4.459l-2.171,1.943l-24.999,-28.046Z" style="fill-rule:nonzero;"/><path id="polygon71" serif:id="polygon7" d="M325.181,67.549l0.647,0.266l0.267,0.648l-27.132,27.132l-0.953,0.038l-0.647,-0.266l27.818,-27.818Z" style="fill-rule:nonzero;"/><path id="path111" serif:id="path11" d="M358.871,68.642c0,-2.174 0.584,-3.876 1.753,-5.106c1.166,-1.229 2.675,-1.844 4.521,-1.844c1.21,0 2.3,0.289 3.27,0.866c0.971,0.578 1.712,1.384 2.221,2.417c0.509,1.034 0.763,2.206 0.763,3.515c0,1.328 -0.268,2.517 -0.804,3.565c-0.535,1.048 -1.295,1.842 -2.278,2.381c-0.983,0.538 -2.044,0.808 -3.182,0.808c-1.232,0 -2.335,-0.298 -3.306,-0.893c-0.971,-0.595 -1.705,-1.409 -2.207,-2.439c-0.501,-1.03 -0.751,-2.121 -0.751,-3.27Zm1.787,0.023c0,1.577 0.424,2.82 1.274,3.729c0.848,0.907 1.915,1.362 3.194,1.362c1.306,0 2.379,-0.459 3.223,-1.376c0.843,-0.917 1.264,-2.218 1.264,-3.903c0,-1.065 -0.18,-1.996 -0.54,-2.791c-0.361,-0.795 -0.888,-1.411 -1.583,-1.849c-0.693,-0.437 -1.472,-0.656 -2.336,-0.656c-1.227,0 -2.284,0.421 -3.168,1.264c-0.886,0.842 -1.328,2.249 -1.328,4.22Z" style="fill-rule:nonzero;"/><path id="polygon131" serif:id="polygon13" d="M357.152,67.168l0,1.295l-31.057,0l-0.267,-0.648l0.648,-0.647l30.676,0Z" style="fill-rule:nonzero;"/><path id="polygon151" serif:id="polygon15" d="M393.583,95.367l-0.649,0.266l-0.952,-0.038l-21.073,-21.073l0.914,-0.915l21.76,21.76Z" style="fill-rule:nonzero;"/><path id="polygon171" serif:id="polygon17" d="M365.802,127.071l-0.647,-3.658l-2.211,-1.943l29.038,-25.875l0.952,0.038l-0.647,1.677l-26.485,29.761Z" style="fill-rule:nonzero;"/><path id="path211" serif:id="path21" d="M358.871,154.497c0,-2.173 0.584,-3.875 1.753,-5.105c1.166,-1.23 2.675,-1.845 4.521,-1.845c1.21,0 2.3,0.289 3.27,0.867c0.971,0.578 1.712,1.383 2.221,2.417c0.509,1.033 0.763,2.205 0.763,3.515c0,1.327 -0.268,2.516 -0.804,3.564c-0.535,1.049 -1.295,1.842 -2.278,2.381c-0.983,0.539 -2.044,0.809 -3.182,0.809c-1.232,0 -2.335,-0.298 -3.306,-0.894c-0.971,-0.595 -1.705,-1.408 -2.207,-2.438c-0.501,-1.032 -0.751,-2.121 -0.751,-3.271Zm1.787,0.022c0,1.578 0.424,2.821 1.274,3.729c0.848,0.908 1.915,1.362 3.194,1.362c1.306,0 2.379,-0.458 3.223,-1.375c0.843,-0.917 1.264,-2.218 1.264,-3.903c0,-1.066 -0.18,-1.996 -0.54,-2.791c-0.361,-0.795 -0.888,-1.412 -1.583,-1.849c-0.693,-0.437 -1.472,-0.656 -2.336,-0.656c-1.227,0 -2.284,0.421 -3.168,1.263c-0.886,0.843 -1.328,2.249 -1.328,4.22Z" style="fill-rule:nonzero;"/><path id="path231" serif:id="path23" d="M373.695,160.873l0,-13.1l1.738,0l0,5.383l6.777,0l0,-5.383l1.738,0l0,13.1l-1.738,0l0,-6.169l-6.777,0l0,6.169l-1.738,0Z" style="fill-rule:nonzero;"/><path id="polygon251" serif:id="polygon25" d="M365.802,145.858l-1.295,0l0,-20.502l0.648,-1.943l0.647,3.658l0,18.787Z" style="fill-rule:nonzero;"/><path id="path291" serif:id="path29" d="M386.689,126.679c0,-2.173 0.584,-3.875 1.753,-5.105c1.166,-1.23 2.675,-1.845 4.521,-1.845c1.21,0 2.3,0.289 3.27,0.867c0.971,0.578 1.712,1.383 2.221,2.417c0.509,1.033 0.763,2.205 0.763,3.515c0,1.327 -0.268,2.516 -0.804,3.564c-0.535,1.049 -1.295,1.842 -2.278,2.381c-0.983,0.539 -2.044,0.809 -3.182,0.809c-1.232,0 -2.335,-0.298 -3.306,-0.894c-0.971,-0.595 -1.705,-1.408 -2.207,-2.438c-0.501,-1.032 -0.751,-2.121 -0.751,-3.271Zm1.787,0.022c0,1.578 0.424,2.821 1.274,3.729c0.848,0.908 1.915,1.362 3.194,1.362c1.306,0 2.379,-0.458 3.223,-1.375c0.843,-0.917 1.264,-2.218 1.264,-3.903c0,-1.066 -0.18,-1.996 -0.54,-2.791c-0.361,-0.795 -0.888,-1.412 -1.583,-1.849c-0.693,-0.437 -1.472,-0.656 -2.336,-0.656c-1.227,0 -2.284,0.421 -3.168,1.263c-0.886,0.843 -1.328,2.249 -1.328,4.22Z" style="fill-rule:nonzero;"/><path id="path311" serif:id="path31" d="M401.513,133.055l0,-13.1l1.738,0l0,5.383l6.777,0l0,-5.383l1.738,0l0,13.1l-1.738,0l0,-6.169l-6.777,0l0,6.169l-1.738,0Z" style="fill-rule:nonzero;"/><path id="polygon331" serif:id="polygon33" d="M393.583,118.04l-1.296,0l0,-20.73l0.647,-1.677l0.649,-0.266l0,22.673Z" style="fill-rule:nonzero;"/><path id="path371" serif:id="path37" d="M291.766,126.679c0,-2.173 0.584,-3.875 1.751,-5.105c1.168,-1.23 2.676,-1.845 4.522,-1.845c1.21,0 2.3,0.289 3.271,0.867c0.971,0.578 1.711,1.383 2.22,2.417c0.51,1.033 0.764,2.205 0.764,3.515c0,1.327 -0.268,2.516 -0.804,3.564c-0.537,1.049 -1.296,1.842 -2.279,2.381c-0.983,0.539 -2.043,0.809 -3.181,0.809c-1.233,0 -2.335,-0.298 -3.306,-0.894c-0.971,-0.595 -1.707,-1.408 -2.207,-2.438c-0.501,-1.032 -0.751,-2.121 -0.751,-3.271Zm1.787,0.022c0,1.578 0.424,2.821 1.273,3.729c0.849,0.909 1.915,1.362 3.195,1.362c1.305,0 2.379,-0.458 3.222,-1.375c0.843,-0.917 1.265,-2.218 1.265,-3.903c0,-1.066 -0.18,-1.996 -0.541,-2.791c-0.36,-0.795 -0.888,-1.412 -1.582,-1.849c-0.694,-0.437 -1.473,-0.656 -2.337,-0.656c-1.227,0 -2.283,0.421 -3.168,1.263c-0.885,0.843 -1.327,2.249 -1.327,4.22Z" style="fill-rule:nonzero;"/><path id="path391" serif:id="path39" d="M306.589,133.055l0,-13.1l1.738,0l0,5.383l6.776,0l0,-5.383l1.739,0l0,13.1l-1.739,0l0,-6.169l-6.776,0l0,6.169l-1.738,0Z" style="fill-rule:nonzero;"/><path id="polygon411" serif:id="polygon41" d="M298.658,118.04l-1.295,0l0,-22.673l0.647,0.266l0.648,1.677l0,20.73Z" style="fill-rule:nonzero;"/><path id="path451" serif:id="path45" d="M319.546,94.021c0,-2.174 0.584,-3.876 1.751,-5.106c1.168,-1.229 2.675,-1.844 4.521,-1.844c1.21,0 2.3,0.289 3.271,0.867c0.971,0.577 1.711,1.383 2.221,2.416c0.509,1.034 0.763,2.206 0.763,3.515c0,1.328 -0.268,2.517 -0.804,3.565c-0.536,1.048 -1.295,1.842 -2.279,2.381c-0.983,0.539 -2.043,0.808 -3.181,0.808c-1.233,0 -2.335,-0.298 -3.306,-0.893c-0.971,-0.595 -1.706,-1.408 -2.207,-2.439c-0.5,-1.03 -0.75,-2.121 -0.75,-3.27Zm1.786,0.022c0,1.578 0.424,2.821 1.273,3.729c0.849,0.909 1.915,1.362 3.195,1.362c1.305,0 2.379,-0.459 3.222,-1.376c0.843,-0.916 1.265,-2.217 1.265,-3.902c0,-1.066 -0.18,-1.997 -0.541,-2.791c-0.36,-0.795 -0.887,-1.412 -1.582,-1.849c-0.694,-0.438 -1.473,-0.657 -2.337,-0.657c-1.227,0 -2.283,0.422 -3.168,1.264c-0.885,0.842 -1.327,2.25 -1.327,4.22Z" style="fill-rule:nonzero;"/><path id="path471" serif:id="path47" d="M334.369,100.396l0,-13.099l1.738,0l0,5.383l6.776,0l0,-5.383l1.739,0l0,13.1l-1.739,0l0,-6.169l-6.776,0l0,6.169l-1.738,0l0,-0.001Z" style="fill-rule:nonzero;"/><path id="polygon491" serif:id="polygon49" d="M325.181,102.302l1.295,0l0,19.168l-0.648,1.943l-0.647,-4.459l0,-16.652Z" style="fill-rule:nonzero;"/><path id="path531" serif:id="path53" d="M329.977,40.167l1.739,0.437c-0.363,1.425 -1.016,2.512 -1.958,3.26c-0.943,0.748 -2.096,1.123 -3.458,1.123c-1.41,0 -2.556,-0.288 -3.44,-0.863c-0.883,-0.576 -1.555,-1.408 -2.016,-2.498c-0.461,-1.091 -0.691,-2.262 -0.691,-3.513c0,-1.365 0.26,-2.556 0.78,-3.572c0.521,-1.016 1.261,-1.788 2.222,-2.315c0.96,-0.527 2.017,-0.791 3.17,-0.791c1.309,0 2.409,0.334 3.3,1.001c0.893,0.669 1.514,1.608 1.864,2.818l-1.702,0.402c-0.304,-0.953 -0.743,-1.647 -1.319,-2.081c-0.577,-0.434 -1.303,-0.652 -2.176,-0.652c-1.005,0 -1.845,0.241 -2.52,0.724c-0.674,0.482 -1.149,1.129 -1.422,1.942c-0.274,0.814 -0.411,1.651 -0.411,2.515c0,1.113 0.162,2.085 0.486,2.916c0.323,0.83 0.826,1.451 1.51,1.862c0.684,0.41 1.423,0.616 2.219,0.616c0.969,0 1.788,-0.28 2.46,-0.84c0.671,-0.56 1.126,-1.39 1.363,-2.491Z" style="fill-rule:nonzero;"/><path id="path551" serif:id="path55" d="M333.922,44.76l0,-13.099l1.739,0l0,5.383l6.776,0l0,-5.383l1.738,0l0,13.1l-1.738,0l0,-6.169l-6.776,0l0,6.169l-1.739,0l0,-0.001Z" style="fill-rule:nonzero;"/><path id="path591" serif:id="path59" d="M351.728,47.035l0,1.156l-6.502,0c-0.009,-0.291 0.038,-0.57 0.142,-0.839c0.166,-0.442 0.432,-0.876 0.799,-1.305c0.365,-0.428 0.891,-0.923 1.577,-1.484c1.064,-0.878 1.785,-1.572 2.165,-2.083c0.379,-0.511 0.569,-0.994 0.569,-1.45c0,-0.478 -0.171,-0.88 -0.514,-1.208c-0.343,-0.327 -0.791,-0.491 -1.342,-0.491c-0.584,0 -1.049,0.174 -1.399,0.524c-0.35,0.349 -0.527,0.834 -0.531,1.452l-1.239,-0.131c0.085,-0.926 0.405,-1.633 0.961,-2.118c0.554,-0.486 1.3,-0.728 2.236,-0.728c0.944,0 1.692,0.261 2.242,0.784c0.55,0.523 0.825,1.17 0.825,1.944c0,0.394 -0.081,0.779 -0.241,1.159c-0.161,0.379 -0.429,0.779 -0.803,1.2c-0.374,0.419 -0.994,0.996 -1.859,1.729c-0.725,0.607 -1.191,1.02 -1.397,1.235c-0.207,0.217 -0.378,0.435 -0.513,0.653l4.824,0l0,0.001Z" style="fill-rule:nonzero;"/><path id="path631" serif:id="path63" d="M352.739,38.385c0,-2.174 0.584,-3.876 1.752,-5.106c1.167,-1.229 2.675,-1.844 4.521,-1.844c1.21,0 2.3,0.289 3.271,0.867c0.971,0.577 1.711,1.383 2.22,2.416c0.51,1.034 0.764,2.206 0.764,3.515c0,1.328 -0.268,2.517 -0.804,3.565c-0.536,1.048 -1.295,1.842 -2.279,2.381c-0.983,0.539 -2.043,0.808 -3.181,0.808c-1.233,0 -2.335,-0.298 -3.306,-0.893c-0.971,-0.595 -1.706,-1.408 -2.207,-2.439c-0.5,-1.03 -0.751,-2.121 -0.751,-3.27Zm1.787,0.022c0,1.578 0.424,2.821 1.273,3.729c0.849,0.909 1.915,1.362 3.195,1.362c1.305,0 2.379,-0.459 3.222,-1.376c0.843,-0.916 1.265,-2.217 1.265,-3.902c0,-1.066 -0.18,-1.997 -0.541,-2.791c-0.361,-0.795 -0.887,-1.412 -1.582,-1.849c-0.694,-0.438 -1.473,-0.657 -2.336,-0.657c-1.227,0 -2.284,0.422 -3.169,1.264c-0.884,0.842 -1.327,2.25 -1.327,4.22Z" style="fill-rule:nonzero;"/><path id="path651" serif:id="path65" d="M367.563,44.76l0,-13.099l1.738,0l0,5.383l6.776,0l0,-5.383l1.739,0l0,13.1l-1.739,0l0,-6.169l-6.776,0l0,6.169l-1.738,0l0,-0.001Z" style="fill-rule:nonzero;"/><path id="polygon671" serif:id="polygon67" d="M325.181,46.704l1.295,0l0,20.464l-0.648,0.647l-0.647,-0.266l0,-20.845Z" style="fill-rule:nonzero;"/></g></g></svg>