<?xml version="1.0" encoding="UTF-8" standalone="no"?>
<!DOCTYPE svg PUBLIC "-//W3C//DTD SVG 1.1//EN" "http://www.w3.org/Graphics/SVG/1.1/DTD/svg11.dtd">
<svg width="100%" height="100%" viewBox="0 0 1200 300" version="1.1" xmlns="http://www.w3.org/2000/svg" xmlns:xlink="http://www.w3.org/1999/xlink" xml:space="preserve" xmlns:serif="http://www.serif.com/" style="fill-rule:evenodd;clip-rule:evenodd;stroke-linejoin:round;stroke-miterlimit:10;">
    <g transform="matrix(1.04199,0,0,1.04199,-248.086,-281.576)">
        <g transform="matrix(1.23005,0,0,1.38459,48.7767,173.505)">
            <path d="M476.04,213L721.32,213" style="fill:none;stroke:black;stroke-width:2.2px;"/>
        </g>
        <g transform="matrix(1.23005,0,0,1.38459,486.731,83.9533)">
            <path d="M155.62,296.979L155.62,304.959C155.62,305.897 155.795,306.676 156.147,307.297C156.668,308.235 157.547,308.703 158.784,308.703C160.266,308.703 161.274,308.197 161.807,307.183C162.094,306.632 162.238,305.891 162.238,304.959L162.238,296.979L164.013,296.979L164.013,304.23C164.013,305.818 163.799,307.039 163.371,307.895C162.586,309.453 161.104,310.233 158.924,310.233C156.745,310.233 155.265,309.453 154.486,307.895C154.058,307.039 153.844,305.818 153.844,304.23L153.844,296.979L155.62,296.979Z" style="fill-rule:nonzero;"/>
            <path d="M166.509,300.477L168.012,300.477L168.012,301.813C168.457,301.262 168.929,300.867 169.427,300.626C169.925,300.386 170.479,300.266 171.088,300.266C172.424,300.266 173.327,300.732 173.795,301.663C174.053,302.173 174.182,302.903 174.182,303.852L174.182,309.89L172.574,309.89L172.574,303.957C172.574,303.383 172.489,302.92 172.319,302.569C172.038,301.983 171.528,301.69 170.789,301.69C170.414,301.69 170.107,301.728 169.867,301.804C169.433,301.933 169.052,302.191 168.724,302.578C168.46,302.888 168.289,303.209 168.21,303.54C168.131,303.871 168.091,304.344 168.091,304.959L168.091,309.89L166.509,309.89L166.509,300.477Z" style="fill-rule:nonzero;"/>
            <rect x="176.107" y="304.063" width="4.412" height="1.626" style="fill-rule:nonzero;"/>
            <path d="M186.144,300.204C187.204,300.204 188.067,300.462 188.732,300.978C189.397,301.494 189.797,302.381 189.932,303.641L188.394,303.641C188.3,303.061 188.086,302.579 187.752,302.195C187.418,301.811 186.882,301.619 186.144,301.619C185.136,301.619 184.415,302.112 183.982,303.096C183.701,303.735 183.56,304.523 183.56,305.46C183.56,306.404 183.759,307.198 184.158,307.842C184.556,308.487 185.183,308.809 186.038,308.809C186.695,308.809 187.215,308.608 187.599,308.207C187.982,307.806 188.247,307.256 188.394,306.559L189.932,306.559C189.756,307.807 189.317,308.72 188.614,309.297C187.911,309.874 187.011,310.162 185.915,310.162C184.685,310.162 183.704,309.713 182.971,308.813C182.239,307.914 181.872,306.79 181.872,305.443C181.872,303.79 182.274,302.504 183.077,301.584C183.879,300.664 184.902,300.204 186.144,300.204Z" style="fill-rule:nonzero;"/>
            <path d="M195.249,308.87C196.298,308.87 197.017,308.473 197.407,307.68C197.797,306.886 197.992,306.002 197.992,305.03C197.992,304.151 197.851,303.436 197.57,302.885C197.124,302.018 196.357,301.584 195.267,301.584C194.3,301.584 193.597,301.953 193.158,302.692C192.718,303.43 192.498,304.321 192.498,305.364C192.498,306.366 192.718,307.201 193.158,307.869C193.597,308.536 194.294,308.87 195.249,308.87ZM195.311,300.204C196.524,300.204 197.549,300.609 198.387,301.417C199.225,302.226 199.644,303.415 199.644,304.986C199.644,306.503 199.275,307.757 198.537,308.747C197.798,309.738 196.653,310.233 195.1,310.233C193.805,310.233 192.777,309.795 192.015,308.919C191.253,308.043 190.872,306.867 190.872,305.39C190.872,303.808 191.274,302.548 192.077,301.611C192.879,300.673 193.957,300.204 195.311,300.204Z" style="fill-rule:nonzero;"/>
            <path d="M201.525,300.477L203.089,300.477L203.089,301.813C203.464,301.35 203.804,301.013 204.109,300.802C204.63,300.445 205.222,300.266 205.884,300.266C206.634,300.266 207.238,300.451 207.695,300.82C207.953,301.031 208.187,301.341 208.398,301.751C208.749,301.247 209.163,300.874 209.637,300.631C210.112,300.388 210.645,300.266 211.237,300.266C212.502,300.266 213.364,300.723 213.821,301.637C214.067,302.129 214.19,302.791 214.19,303.623L214.19,309.89L212.546,309.89L212.546,303.351C212.546,302.724 212.39,302.293 212.076,302.059C211.763,301.825 211.38,301.707 210.929,301.707C210.308,301.707 209.773,301.915 209.325,302.331C208.877,302.747 208.653,303.442 208.653,304.414L208.653,309.89L207.044,309.89L207.044,303.746C207.044,303.108 206.968,302.642 206.816,302.349C206.576,301.91 206.127,301.69 205.471,301.69C204.873,301.69 204.33,301.921 203.841,302.384C203.351,302.847 203.107,303.685 203.107,304.898L203.107,309.89L201.525,309.89L201.525,300.477Z" style="fill-rule:nonzero;"/>
            <path d="M220.492,308.827C221.23,308.827 221.844,308.517 222.333,307.899C222.822,307.281 223.067,306.357 223.067,305.126C223.067,304.376 222.958,303.732 222.742,303.193C222.331,302.156 221.581,301.637 220.492,301.637C219.396,301.637 218.646,302.185 218.242,303.281C218.025,303.867 217.916,304.611 217.916,305.513C217.916,306.24 218.025,306.858 218.242,307.368C218.652,308.34 219.402,308.827 220.492,308.827ZM216.396,300.521L217.934,300.521L217.934,301.769C218.25,301.341 218.596,301.01 218.971,300.776C219.504,300.424 220.131,300.248 220.852,300.248C221.918,300.248 222.824,300.657 223.568,301.474C224.312,302.292 224.684,303.459 224.684,304.977C224.684,307.028 224.148,308.493 223.076,309.371C222.396,309.928 221.605,310.206 220.703,310.206C219.994,310.206 219.399,310.051 218.918,309.741C218.637,309.565 218.324,309.263 217.978,308.835L217.978,313.643L216.396,313.643L216.396,300.521Z" style="fill-rule:nonzero;"/>
            <path d="M230.45,300.266C231.118,300.266 231.765,300.423 232.392,300.736C233.019,301.05 233.496,301.455 233.825,301.953C234.141,302.428 234.352,302.982 234.457,303.615C234.551,304.048 234.598,304.74 234.598,305.689L227.699,305.689C227.728,306.644 227.954,307.41 228.375,307.987C228.797,308.564 229.451,308.853 230.335,308.853C231.162,308.853 231.821,308.58 232.313,308.036C232.594,307.719 232.793,307.353 232.911,306.937L234.466,306.937C234.425,307.283 234.289,307.668 234.058,308.093C233.826,308.517 233.567,308.865 233.28,309.134C232.799,309.603 232.204,309.919 231.496,310.083C231.115,310.177 230.684,310.224 230.204,310.224C229.032,310.224 228.038,309.798 227.224,308.945C226.41,308.093 226.002,306.899 226.002,305.364C226.002,303.852 226.413,302.624 227.233,301.681C228.053,300.738 229.125,300.266 230.45,300.266ZM232.972,304.432C232.908,303.746 232.758,303.199 232.524,302.788C232.09,302.027 231.367,301.646 230.353,301.646C229.626,301.646 229.017,301.908 228.525,302.432C228.033,302.957 227.772,303.623 227.743,304.432L232.972,304.432Z" style="fill-rule:nonzero;"/>
            <path d="M236.857,297.849L238.456,297.849L238.456,300.477L239.959,300.477L239.959,301.769L238.456,301.769L238.456,307.912C238.456,308.241 238.568,308.46 238.79,308.572C238.913,308.636 239.119,308.668 239.406,308.668C239.482,308.668 239.564,308.667 239.652,308.664C239.74,308.661 239.842,308.654 239.959,308.642L239.959,309.89C239.778,309.943 239.589,309.981 239.392,310.004C239.196,310.028 238.984,310.039 238.755,310.039C238.017,310.039 237.516,309.85 237.252,309.473C236.989,309.095 236.857,308.604 236.857,308L236.857,301.769L235.582,301.769L235.582,300.477L236.857,300.477L236.857,297.849Z" style="fill-rule:nonzero;"/>
            <path d="M241.541,300.521L243.15,300.521L243.15,309.89L241.541,309.89L241.541,300.521ZM241.541,296.979L243.15,296.979L243.15,298.772L241.541,298.772L241.541,296.979Z" style="fill-rule:nonzero;"/>
            <path d="M245.857,297.849L247.456,297.849L247.456,300.477L248.959,300.477L248.959,301.769L247.456,301.769L247.456,307.912C247.456,308.241 247.568,308.46 247.79,308.572C247.913,308.636 248.119,308.668 248.406,308.668C248.482,308.668 248.564,308.667 248.652,308.664C248.74,308.661 248.842,308.654 248.959,308.642L248.959,309.89C248.778,309.943 248.589,309.981 248.392,310.004C248.196,310.028 247.984,310.039 247.755,310.039C247.017,310.039 246.516,309.85 246.252,309.473C245.989,309.095 245.857,308.604 245.857,308L245.857,301.769L244.582,301.769L244.582,300.477L245.857,300.477L245.857,297.849Z" style="fill-rule:nonzero;"/>
            <path d="M250.541,300.521L252.15,300.521L252.15,309.89L250.541,309.89L250.541,300.521ZM250.541,296.979L252.15,296.979L252.15,298.772L250.541,298.772L250.541,296.979Z" style="fill-rule:nonzero;"/>
            <path d="M255.314,300.477L257.828,308.141L260.455,300.477L262.187,300.477L258.636,309.89L256.949,309.89L253.477,300.477L255.314,300.477Z" style="fill-rule:nonzero;"/>
            <path d="M267.46,300.266C268.128,300.266 268.776,300.423 269.403,300.736C270.03,301.05 270.507,301.455 270.835,301.953C271.152,302.428 271.363,302.982 271.468,303.615C271.562,304.048 271.609,304.74 271.609,305.689L264.709,305.689C264.739,306.644 264.964,307.41 265.386,307.987C265.808,308.564 266.461,308.853 267.346,308.853C268.172,308.853 268.831,308.58 269.324,308.036C269.605,307.719 269.804,307.353 269.921,306.937L271.477,306.937C271.436,307.283 271.3,307.668 271.068,308.093C270.837,308.517 270.578,308.865 270.29,309.134C269.81,309.603 269.215,309.919 268.506,310.083C268.125,310.177 267.695,310.224 267.214,310.224C266.042,310.224 265.049,309.798 264.235,308.945C263.42,308.093 263.013,306.899 263.013,305.364C263.013,303.852 263.423,302.624 264.244,301.681C265.064,300.738 266.136,300.266 267.46,300.266ZM269.983,304.432C269.918,303.746 269.769,303.199 269.535,302.788C269.101,302.027 268.377,301.646 267.364,301.646C266.637,301.646 266.028,301.908 265.536,302.432C265.043,302.957 264.783,303.623 264.753,304.432L269.983,304.432Z" style="fill-rule:nonzero;"/>
            <path d="M278.552,300.521L280.161,300.521L280.161,309.89L278.552,309.89L278.552,300.521ZM278.552,296.979L280.161,296.979L280.161,298.772L278.552,298.772L278.552,296.979Z" style="fill-rule:nonzero;"/>
            <path d="M282.551,300.477L284.054,300.477L284.054,301.813C284.499,301.262 284.971,300.867 285.469,300.626C285.967,300.386 286.521,300.266 287.13,300.266C288.466,300.266 289.369,300.732 289.837,301.663C290.095,302.173 290.224,302.903 290.224,303.852L290.224,309.89L288.616,309.89L288.616,303.957C288.616,303.383 288.531,302.92 288.361,302.569C288.079,301.983 287.57,301.69 286.831,301.69C286.456,301.69 286.149,301.728 285.909,301.804C285.475,301.933 285.094,302.191 284.766,302.578C284.502,302.888 284.331,303.209 284.252,303.54C284.173,303.871 284.133,304.344 284.133,304.959L284.133,309.89L282.551,309.89L282.551,300.477Z" style="fill-rule:nonzero;"/>
            <path d="M292.562,296.935L294.144,296.935L294.144,301.751C294.519,301.277 294.856,300.943 295.155,300.749C295.664,300.415 296.3,300.248 297.062,300.248C298.427,300.248 299.353,300.726 299.839,301.681C300.103,302.203 300.235,302.926 300.235,303.852L300.235,309.89L298.609,309.89L298.609,303.957C298.609,303.266 298.521,302.759 298.345,302.437C298.058,301.921 297.519,301.663 296.728,301.663C296.072,301.663 295.477,301.889 294.944,302.34C294.411,302.791 294.144,303.644 294.144,304.898L294.144,309.89L292.562,309.89L292.562,296.935Z" style="fill-rule:nonzero;"/>
            <path d="M302.573,300.521L304.181,300.521L304.181,309.89L302.573,309.89L302.573,300.521ZM302.573,296.979L304.181,296.979L304.181,298.772L302.573,298.772L302.573,296.979Z" style="fill-rule:nonzero;"/>
            <path d="M306.449,296.935L307.987,296.935L307.987,301.619C308.332,301.168 308.746,300.824 309.226,300.587C309.706,300.349 310.228,300.231 310.79,300.231C311.962,300.231 312.913,300.634 313.642,301.439C314.372,302.245 314.737,303.433 314.737,305.003C314.737,306.492 314.376,307.728 313.656,308.712C312.935,309.697 311.936,310.189 310.659,310.189C309.944,310.189 309.34,310.016 308.848,309.67C308.555,309.465 308.242,309.137 307.908,308.686L307.908,309.89L306.449,309.89L306.449,296.935ZM310.562,308.791C311.417,308.791 312.058,308.452 312.482,307.772C312.907,307.092 313.12,306.196 313.12,305.082C313.12,304.092 312.907,303.272 312.482,302.621C312.058,301.971 311.432,301.646 310.606,301.646C309.885,301.646 309.254,301.912 308.712,302.446C308.17,302.979 307.899,303.858 307.899,305.082C307.899,305.967 308.01,306.685 308.233,307.236C308.649,308.273 309.425,308.791 310.562,308.791Z" style="fill-rule:nonzero;"/>
            <path d="M316.582,300.521L318.191,300.521L318.191,309.89L316.582,309.89L316.582,300.521ZM316.582,296.979L318.191,296.979L318.191,298.772L316.582,298.772L316.582,296.979Z" style="fill-rule:nonzero;"/>
            <path d="M320.898,297.849L322.497,297.849L322.497,300.477L324,300.477L324,301.769L322.497,301.769L322.497,307.912C322.497,308.241 322.609,308.46 322.831,308.572C322.954,308.636 323.16,308.668 323.447,308.668C323.523,308.668 323.605,308.667 323.693,308.664C323.781,308.661 323.883,308.654 324,308.642L324,309.89C323.819,309.943 323.63,309.981 323.433,310.004C323.237,310.028 323.025,310.039 322.796,310.039C322.058,310.039 321.557,309.85 321.293,309.473C321.03,309.095 320.898,308.604 320.898,308L320.898,301.769L319.623,301.769L319.623,300.477L320.898,300.477L320.898,297.849Z" style="fill-rule:nonzero;"/>
            <path d="M329.418,308.87C330.467,308.87 331.186,308.473 331.575,307.68C331.965,306.886 332.16,306.002 332.16,305.03C332.16,304.151 332.019,303.436 331.738,302.885C331.293,302.018 330.525,301.584 329.435,301.584C328.469,301.584 327.765,301.953 327.326,302.692C326.887,303.43 326.667,304.321 326.667,305.364C326.667,306.366 326.887,307.201 327.326,307.869C327.765,308.536 328.463,308.87 329.418,308.87ZM329.479,300.204C330.692,300.204 331.718,300.609 332.555,301.417C333.393,302.226 333.812,303.415 333.812,304.986C333.812,306.503 333.443,307.757 332.705,308.747C331.967,309.738 330.821,310.233 329.268,310.233C327.973,310.233 326.945,309.795 326.183,308.919C325.422,308.043 325.041,306.867 325.041,305.39C325.041,303.808 325.442,302.548 326.245,301.611C327.048,300.673 328.126,300.204 329.479,300.204Z" style="fill-rule:nonzero;"/>
            <path d="M335.837,300.477L337.34,300.477L337.34,302.103C337.463,301.786 337.765,301.401 338.245,300.947C338.726,300.493 339.279,300.266 339.906,300.266C339.936,300.266 339.986,300.269 340.056,300.275C340.126,300.281 340.246,300.292 340.416,300.31L340.416,301.98C340.322,301.962 340.236,301.951 340.157,301.945C340.078,301.939 339.991,301.936 339.898,301.936C339.101,301.936 338.488,302.192 338.061,302.705C337.633,303.218 337.419,303.808 337.419,304.476L337.419,309.89L335.837,309.89L335.837,300.477Z" style="fill-rule:nonzero;"/>
            <path d="M342.828,306.937C342.875,307.464 343.006,307.869 343.223,308.15C343.622,308.66 344.313,308.914 345.297,308.914C345.883,308.914 346.399,308.787 346.844,308.532C347.29,308.277 347.512,307.883 347.512,307.35C347.512,306.946 347.334,306.638 346.976,306.427C346.748,306.298 346.296,306.149 345.623,305.979L344.366,305.662C343.563,305.463 342.971,305.241 342.59,304.994C341.911,304.567 341.571,303.975 341.571,303.219C341.571,302.328 341.892,301.608 342.533,301.057C343.175,300.506 344.038,300.231 345.122,300.231C346.54,300.231 347.562,300.647 348.189,301.479C348.582,302.006 348.772,302.575 348.76,303.184L347.266,303.184C347.237,302.827 347.111,302.501 346.888,302.208C346.525,301.792 345.895,301.584 344.999,301.584C344.401,301.584 343.948,301.699 343.641,301.927C343.333,302.156 343.179,302.457 343.179,302.832C343.179,303.243 343.381,303.571 343.786,303.817C344.02,303.963 344.366,304.092 344.823,304.203L345.869,304.458C347.005,304.734 347.767,305 348.154,305.258C348.769,305.662 349.077,306.298 349.077,307.165C349.077,308.003 348.759,308.727 348.123,309.336C347.487,309.946 346.519,310.25 345.218,310.25C343.818,310.25 342.826,309.932 342.243,309.297C341.66,308.661 341.348,307.874 341.307,306.937L342.828,306.937Z" style="fill-rule:nonzero;"/>
        </g>
        <g transform="matrix(1.23005,0,0,1.38459,48.7767,-261.308)">
            <path d="M711.82,460.19L629.38,436.04L629.66,435.08L712.1,459.23L711.82,460.19ZM629.63,438.72L624.72,434.15L631.32,432.96L629.63,438.72Z" style="fill-rule:nonzero;stroke:black;stroke-width:1.1px;stroke-miterlimit:1.41421;"/>
        </g>
        <g transform="matrix(1.23005,0,0,1.38459,-13.2423,80.4125)">
            <path d="M726.419,177.167L729.416,177.167L729.416,178.314L727.746,178.314L727.746,190.708L729.416,190.708L729.416,191.855L726.419,191.855L726.419,177.167Z" style="fill-rule:nonzero;"/>
            <rect x="731.43" y="177.245" width="1.569" height="11.465" style="fill-rule:nonzero;"/>
            <path d="M734.669,190.708L736.331,190.708L736.331,178.314L734.669,178.314L734.669,177.167L737.666,177.167L737.666,191.855L734.669,191.855L734.669,190.708Z" style="fill-rule:nonzero;"/>
        </g>
        <g transform="matrix(1.14321,-0.511035,-0.453996,-1.28683,211.658,1044.71)">
            <path d="M512.014,244.5L682.706,244.5" style="fill:none;stroke:black;stroke-width:2.11px;"/>
        </g>
        <g transform="matrix(1.14321,-0.511035,-0.453996,-1.28683,209.817,1034.87)">
            <path d="M492.694,244.14L663.386,244.14" style="fill:none;stroke:black;stroke-width:2.11px;"/>
        </g>
        <g transform="matrix(1.23005,0,0,1.38459,48.7767,15.6611)">
            <path d="M731.089,327.918L731.089,326.75C732.189,326.643 732.957,326.463 733.391,326.212C733.825,325.961 734.15,325.367 734.364,324.431L735.566,324.431L735.566,336.5L733.941,336.5L733.941,327.918L731.089,327.918Z" style="fill-rule:nonzero;"/>
            <path d="M743.014,324.067L744.301,324.067L740.357,336.5L739.07,336.5L743.014,324.067Z" style="fill-rule:nonzero;"/>
            <path d="M744.969,323.982L748.219,323.982L748.219,325.226L746.408,325.226L746.408,338.667L748.219,338.667L748.219,339.911L744.969,339.911L744.969,323.982Z" style="fill-rule:nonzero;"/>
            <path d="M751.122,332.488C751.162,333.194 751.328,333.766 751.622,334.206C752.18,335.03 753.165,335.442 754.576,335.442C755.208,335.442 755.783,335.352 756.302,335.171C757.307,334.821 757.809,334.195 757.809,333.292C757.809,332.615 757.597,332.133 757.174,331.845C756.745,331.563 756.074,331.317 755.16,331.109L753.475,330.728C752.375,330.48 751.596,330.206 751.139,329.907C750.349,329.388 749.954,328.612 749.954,327.579C749.954,326.462 750.341,325.545 751.114,324.829C751.887,324.112 752.982,323.754 754.398,323.754C755.701,323.754 756.809,324.068 757.72,324.697C758.631,325.327 759.087,326.332 759.087,327.715L757.504,327.715C757.419,327.049 757.239,326.538 756.962,326.183C756.449,325.534 755.577,325.209 754.347,325.209C753.354,325.209 752.64,325.418 752.206,325.836C751.771,326.253 751.554,326.739 751.554,327.292C751.554,327.901 751.808,328.347 752.316,328.629C752.649,328.809 753.402,329.035 754.576,329.306L756.319,329.704C757.16,329.896 757.809,330.158 758.266,330.491C759.056,331.072 759.451,331.916 759.451,333.021C759.451,334.398 758.95,335.383 757.948,335.975C756.947,336.568 755.783,336.864 754.457,336.864C752.911,336.864 751.701,336.469 750.826,335.679C749.952,334.895 749.523,333.831 749.54,332.488L751.122,332.488Z" style="fill-rule:nonzero;"/>
            <path d="M760.661,338.667L762.464,338.667L762.464,325.226L760.661,325.226L760.661,323.982L763.911,323.982L763.911,339.911L760.661,339.911L760.661,338.667Z" style="fill-rule:nonzero;"/>
        </g>
        <g transform="matrix(1.14321,-0.511035,-0.453996,-1.28683,208.911,1026.55)">
            <path d="M476.614,245.22L647.306,245.22" style="fill:none;stroke:black;stroke-width:2.11px;"/>
        </g>
    </g>
    <g transform="matrix(1.04199,0,0,1.04199,-638.993,-69.2799)">
        <g>
            <g transform="matrix(1.23005,0,0,1.38459,48.7767,-233.566)">
                <path d="M476.04,360L721.32,360" style="fill:none;stroke:black;stroke-width:2.2px;"/>
            </g>
            <g transform="matrix(1.14961,-0.492489,-0.437521,-1.29404,269.24,1026.95)">
                <path d="M516.796,392.22L697.964,392.22" style="fill:none;stroke:black;stroke-width:2.12px;"/>
            </g>
            <g transform="matrix(0.851251,-0.999476,-0.88792,-0.958199,627.468,1179.67)">
                <path d="M531.285,401.04L643.995,401.04" style="fill:none;stroke:black;stroke-width:2.08px;"/>
            </g>
            <g transform="matrix(0.321802,-1.33637,-1.18721,-0.362232,1039.79,1116.08)">
                <path d="M528.746,399.18L609.934,399.18" style="fill:none;stroke:black;stroke-width:2.14px;"/>
            </g>
            <g>
                <g transform="matrix(1.23005,0,0,1.38459,48.7767,-473.308)">
                    <path d="M711.82,460.19L629.38,436.04L629.66,435.08L712.1,459.23L711.82,460.19ZM629.63,438.72L624.72,434.15L631.32,432.96L629.63,438.72Z" style="fill-rule:nonzero;stroke:black;stroke-width:1.1px;stroke-miterlimit:1.41421;"/>
                </g>
                <g transform="matrix(1.23005,0,0,1.38459,-13.2423,-131.587)">
                    <path d="M726.419,177.167L729.416,177.167L729.416,178.314L727.746,178.314L727.746,190.708L729.416,190.708L729.416,191.855L726.419,191.855L726.419,177.167Z" style="fill-rule:nonzero;"/>
                    <rect x="731.43" y="177.245" width="1.569" height="11.465" style="fill-rule:nonzero;"/>
                    <path d="M734.669,190.708L736.331,190.708L736.331,178.314L734.669,178.314L734.669,177.167L737.666,177.167L737.666,191.855L734.669,191.855L734.669,190.708Z" style="fill-rule:nonzero;"/>
                </g>
            </g>
            <g transform="matrix(1.23005,0,0,1.38459,48.7767,15.6611)">
                <path d="M727.079,180.128L727.079,178.96C728.179,178.853 728.947,178.673 729.381,178.422C729.815,178.171 730.14,177.577 730.354,176.641L731.556,176.641L731.556,188.71L729.931,188.71L729.931,180.128L727.079,180.128Z" style="fill-rule:nonzero;"/>
                <path d="M739.004,176.277L740.291,176.277L736.347,188.71L735.06,188.71L739.004,176.277Z" style="fill-rule:nonzero;"/>
                <path d="M740.959,176.192L744.209,176.192L744.209,177.436L742.398,177.436L742.398,190.877L744.209,190.877L744.209,192.121L740.959,192.121L740.959,176.192Z" style="fill-rule:nonzero;"/>
                <path d="M747.112,184.698C747.152,185.404 747.318,185.976 747.612,186.416C748.17,187.24 749.155,187.652 750.566,187.652C751.198,187.652 751.773,187.562 752.292,187.381C753.297,187.031 753.799,186.405 753.799,185.502C753.799,184.825 753.587,184.343 753.164,184.055C752.735,183.773 752.064,183.527 751.15,183.319L749.465,182.938C748.365,182.69 747.586,182.416 747.129,182.117C746.339,181.598 745.944,180.822 745.944,179.789C745.944,178.672 746.331,177.755 747.104,177.039C747.877,176.322 748.972,175.964 750.388,175.964C751.691,175.964 752.799,176.278 753.71,176.907C754.621,177.537 755.077,178.542 755.077,179.925L753.494,179.925C753.409,179.259 753.229,178.748 752.952,178.393C752.439,177.744 751.567,177.419 750.337,177.419C749.344,177.419 748.63,177.628 748.196,178.046C747.761,178.463 747.544,178.949 747.544,179.502C747.544,180.111 747.798,180.557 748.306,180.839C748.639,181.019 749.392,181.245 750.566,181.516L752.309,181.914C753.15,182.106 753.799,182.368 754.256,182.701C755.046,183.282 755.441,184.126 755.441,185.231C755.441,186.608 754.94,187.593 753.938,188.185C752.937,188.778 751.773,189.074 750.447,189.074C748.901,189.074 747.691,188.679 746.816,187.889C745.942,187.105 745.513,186.041 745.53,184.698L747.112,184.698Z" style="fill-rule:nonzero;"/>
                <path d="M756.651,190.877L758.454,190.877L758.454,177.436L756.651,177.436L756.651,176.192L759.901,176.192L759.901,192.121L756.651,192.121L756.651,190.877Z" style="fill-rule:nonzero;"/>
            </g>
        </g>
        <g transform="matrix(1.23005,0,0,1.38459,510.02,103.742)">
            <path d="M159.162,136.377C160.796,136.377 162.065,136.808 162.967,137.669C163.87,138.531 164.371,139.509 164.47,140.605L162.765,140.605C162.572,139.773 162.186,139.114 161.609,138.627C161.032,138.141 160.222,137.898 159.179,137.898C157.908,137.898 156.881,138.345 156.099,139.238C155.316,140.132 154.925,141.501 154.925,143.347C154.925,144.859 155.278,146.085 155.984,147.025C156.69,147.966 157.744,148.436 159.144,148.436C160.433,148.436 161.414,147.941 162.088,146.951C162.446,146.429 162.712,145.744 162.888,144.894L164.593,144.894C164.441,146.253 163.937,147.393 163.081,148.313C162.056,149.42 160.673,149.974 158.933,149.974C157.433,149.974 156.173,149.52 155.154,148.612C153.812,147.411 153.141,145.556 153.141,143.048C153.141,141.144 153.645,139.582 154.653,138.364C155.743,137.039 157.246,136.377 159.162,136.377Z" style="fill-rule:nonzero;"/>
            <path d="M170.245,148.62C171.293,148.62 172.013,148.223 172.402,147.43C172.792,146.636 172.987,145.752 172.987,144.78C172.987,143.901 172.846,143.186 172.565,142.635C172.12,141.768 171.352,141.334 170.262,141.334C169.295,141.334 168.592,141.703 168.153,142.442C167.713,143.18 167.494,144.071 167.494,145.114C167.494,146.116 167.713,146.951 168.153,147.619C168.592,148.286 169.289,148.62 170.245,148.62ZM170.306,139.954C171.519,139.954 172.544,140.359 173.382,141.167C174.22,141.976 174.639,143.165 174.639,144.736C174.639,146.253 174.27,147.507 173.532,148.497C172.793,149.488 171.648,149.983 170.095,149.983C168.8,149.983 167.772,149.545 167.01,148.669C166.248,147.793 165.868,146.617 165.868,145.14C165.868,143.558 166.269,142.298 167.072,141.361C167.874,140.423 168.953,139.954 170.306,139.954Z" style="fill-rule:nonzero;"/>
            <path d="M176.52,140.227L178.084,140.227L178.084,141.563C178.459,141.1 178.799,140.763 179.104,140.552C179.625,140.195 180.217,140.016 180.879,140.016C181.629,140.016 182.233,140.201 182.69,140.57C182.948,140.781 183.182,141.091 183.393,141.501C183.745,140.997 184.158,140.624 184.632,140.381C185.107,140.138 185.64,140.016 186.232,140.016C187.497,140.016 188.359,140.473 188.816,141.387C189.062,141.879 189.185,142.541 189.185,143.373L189.185,149.64L187.541,149.64L187.541,143.101C187.541,142.474 187.385,142.043 187.071,141.809C186.758,141.575 186.375,141.457 185.924,141.457C185.303,141.457 184.768,141.665 184.32,142.081C183.872,142.497 183.648,143.192 183.648,144.164L183.648,149.64L182.039,149.64L182.039,143.496C182.039,142.858 181.963,142.392 181.811,142.099C181.571,141.66 181.122,141.44 180.466,141.44C179.869,141.44 179.325,141.671 178.836,142.134C178.347,142.597 178.102,143.435 178.102,144.648L178.102,149.64L176.52,149.64L176.52,140.227Z" style="fill-rule:nonzero;"/>
            <path d="M195.487,148.577C196.225,148.577 196.839,148.267 197.328,147.649C197.817,147.031 198.062,146.107 198.062,144.876C198.062,144.126 197.954,143.482 197.737,142.943C197.327,141.906 196.577,141.387 195.487,141.387C194.391,141.387 193.641,141.935 193.237,143.031C193.02,143.617 192.912,144.361 192.912,145.263C192.912,145.99 193.02,146.608 193.237,147.118C193.647,148.09 194.397,148.577 195.487,148.577ZM191.391,140.271L192.929,140.271L192.929,141.519C193.246,141.091 193.591,140.76 193.966,140.526C194.499,140.174 195.126,139.998 195.847,139.998C196.913,139.998 197.819,140.407 198.563,141.224C199.307,142.042 199.679,143.209 199.679,144.727C199.679,146.778 199.143,148.243 198.071,149.121C197.391,149.678 196.6,149.956 195.698,149.956C194.989,149.956 194.394,149.801 193.913,149.491C193.632,149.315 193.319,149.013 192.973,148.585L192.973,153.393L191.391,153.393L191.391,140.271Z" style="fill-rule:nonzero;"/>
            <path d="M205.445,140.016C206.113,140.016 206.76,140.173 207.387,140.486C208.014,140.8 208.492,141.205 208.82,141.703C209.136,142.178 209.347,142.732 209.453,143.365C209.546,143.798 209.593,144.49 209.593,145.439L202.694,145.439C202.723,146.394 202.949,147.16 203.371,147.737C203.792,148.314 204.446,148.603 205.33,148.603C206.157,148.603 206.816,148.33 207.308,147.786C207.589,147.469 207.788,147.103 207.906,146.687L209.461,146.687C209.42,147.033 209.284,147.418 209.053,147.843C208.821,148.267 208.562,148.615 208.275,148.884C207.794,149.353 207.2,149.669 206.491,149.833C206.11,149.927 205.679,149.974 205.199,149.974C204.027,149.974 203.034,149.548 202.219,148.695C201.405,147.843 200.997,146.649 200.997,145.114C200.997,143.602 201.408,142.374 202.228,141.431C203.048,140.488 204.121,140.016 205.445,140.016ZM207.967,144.182C207.903,143.496 207.753,142.949 207.519,142.538C207.085,141.777 206.362,141.396 205.348,141.396C204.621,141.396 204.012,141.658 203.52,142.182C203.028,142.707 202.767,143.373 202.738,144.182L207.967,144.182Z" style="fill-rule:nonzero;"/>
            <path d="M211.852,137.599L213.452,137.599L213.452,140.227L214.954,140.227L214.954,141.519L213.452,141.519L213.452,147.662C213.452,147.991 213.563,148.21 213.786,148.322C213.909,148.386 214.114,148.418 214.401,148.418C214.477,148.418 214.559,148.417 214.647,148.414C214.735,148.411 214.837,148.404 214.954,148.392L214.954,149.64C214.773,149.693 214.584,149.731 214.388,149.754C214.191,149.778 213.979,149.789 213.75,149.789C213.012,149.789 212.511,149.6 212.247,149.223C211.984,148.845 211.852,148.354 211.852,147.75L211.852,141.519L210.578,141.519L210.578,140.227L211.852,140.227L211.852,137.599Z" style="fill-rule:nonzero;"/>
            <path d="M216.537,140.271L218.145,140.271L218.145,149.64L216.537,149.64L216.537,140.271ZM216.537,136.729L218.145,136.729L218.145,138.522L216.537,138.522L216.537,136.729Z" style="fill-rule:nonzero;"/>
            <path d="M220.852,137.599L222.452,137.599L222.452,140.227L223.954,140.227L223.954,141.519L222.452,141.519L222.452,147.662C222.452,147.991 222.563,148.21 222.786,148.322C222.909,148.386 223.114,148.418 223.401,148.418C223.477,148.418 223.559,148.417 223.647,148.414C223.735,148.411 223.837,148.404 223.954,148.392L223.954,149.64C223.773,149.693 223.584,149.731 223.388,149.754C223.191,149.778 222.979,149.789 222.75,149.789C222.012,149.789 221.511,149.6 221.247,149.223C220.984,148.845 220.852,148.354 220.852,147.75L220.852,141.519L219.578,141.519L219.578,140.227L220.852,140.227L220.852,137.599Z" style="fill-rule:nonzero;"/>
            <path d="M225.537,140.271L227.145,140.271L227.145,149.64L225.537,149.64L225.537,140.271ZM225.537,136.729L227.145,136.729L227.145,138.522L225.537,138.522L225.537,136.729Z" style="fill-rule:nonzero;"/>
            <path d="M230.309,140.227L232.823,147.891L235.451,140.227L237.182,140.227L233.631,149.64L231.944,149.64L228.472,140.227L230.309,140.227Z" style="fill-rule:nonzero;"/>
            <path d="M242.455,140.016C243.123,140.016 243.771,140.173 244.398,140.486C245.025,140.8 245.502,141.205 245.83,141.703C246.147,142.178 246.358,142.732 246.463,143.365C246.557,143.798 246.604,144.49 246.604,145.439L239.704,145.439C239.734,146.394 239.959,147.16 240.381,147.737C240.803,148.314 241.456,148.603 242.341,148.603C243.167,148.603 243.827,148.33 244.319,147.786C244.6,147.469 244.799,147.103 244.916,146.687L246.472,146.687C246.431,147.033 246.295,147.418 246.063,147.843C245.832,148.267 245.573,148.615 245.286,148.884C244.805,149.353 244.21,149.669 243.501,149.833C243.121,149.927 242.69,149.974 242.209,149.974C241.038,149.974 240.044,149.548 239.23,148.695C238.415,147.843 238.008,146.649 238.008,145.114C238.008,143.602 238.418,142.374 239.239,141.431C240.059,140.488 241.131,140.016 242.455,140.016ZM244.978,144.182C244.913,143.496 244.764,142.949 244.53,142.538C244.096,141.777 243.372,141.396 242.359,141.396C241.632,141.396 241.023,141.658 240.531,142.182C240.038,142.707 239.778,143.373 239.748,144.182L244.978,144.182Z" style="fill-rule:nonzero;"/>
            <path d="M253.547,140.271L255.156,140.271L255.156,149.64L253.547,149.64L253.547,140.271ZM253.547,136.729L255.156,136.729L255.156,138.522L253.547,138.522L253.547,136.729Z" style="fill-rule:nonzero;"/>
            <path d="M257.546,140.227L259.049,140.227L259.049,141.563C259.495,141.012 259.966,140.617 260.464,140.376C260.962,140.136 261.516,140.016 262.125,140.016C263.461,140.016 264.364,140.482 264.832,141.413C265.09,141.923 265.219,142.653 265.219,143.602L265.219,149.64L263.611,149.64L263.611,143.707C263.611,143.133 263.526,142.67 263.356,142.319C263.075,141.733 262.565,141.44 261.827,141.44C261.452,141.44 261.144,141.478 260.904,141.554C260.47,141.683 260.089,141.941 259.761,142.327C259.497,142.638 259.326,142.959 259.247,143.29C259.168,143.621 259.128,144.094 259.128,144.709L259.128,149.64L257.546,149.64L257.546,140.227Z" style="fill-rule:nonzero;"/>
            <path d="M267.557,136.685L269.139,136.685L269.139,141.501C269.514,141.027 269.851,140.693 270.15,140.499C270.66,140.165 271.295,139.998 272.057,139.998C273.422,139.998 274.348,140.476 274.834,141.431C275.098,141.952 275.23,142.676 275.23,143.602L275.23,149.64L273.604,149.64L273.604,143.707C273.604,143.016 273.516,142.509 273.34,142.187C273.053,141.671 272.514,141.413 271.723,141.413C271.067,141.413 270.472,141.639 269.939,142.09C269.406,142.541 269.139,143.394 269.139,144.648L269.139,149.64L267.557,149.64L267.557,136.685Z" style="fill-rule:nonzero;"/>
            <path d="M277.568,140.271L279.176,140.271L279.176,149.64L277.568,149.64L277.568,140.271ZM277.568,136.729L279.176,136.729L279.176,138.522L277.568,138.522L277.568,136.729Z" style="fill-rule:nonzero;"/>
            <path d="M281.444,136.685L282.982,136.685L282.982,141.369C283.328,140.918 283.741,140.574 284.221,140.337C284.702,140.099 285.223,139.981 285.786,139.981C286.957,139.981 287.908,140.384 288.638,141.189C289.367,141.995 289.732,143.183 289.732,144.753C289.732,146.242 289.371,147.478 288.651,148.462C287.93,149.447 286.931,149.939 285.654,149.939C284.939,149.939 284.335,149.766 283.843,149.42C283.55,149.215 283.237,148.887 282.903,148.436L282.903,149.64L281.444,149.64L281.444,136.685ZM285.557,148.541C286.413,148.541 287.053,148.202 287.477,147.522C287.902,146.842 288.115,145.946 288.115,144.832C288.115,143.842 287.902,143.022 287.477,142.371C287.053,141.721 286.427,141.396 285.601,141.396C284.88,141.396 284.249,141.662 283.707,142.196C283.165,142.729 282.894,143.608 282.894,144.832C282.894,145.717 283.005,146.435 283.228,146.986C283.644,148.023 284.42,148.541 285.557,148.541Z" style="fill-rule:nonzero;"/>
            <path d="M291.578,140.271L293.186,140.271L293.186,149.64L291.578,149.64L291.578,140.271ZM291.578,136.729L293.186,136.729L293.186,138.522L291.578,138.522L291.578,136.729Z" style="fill-rule:nonzero;"/>
            <path d="M295.893,137.599L297.493,137.599L297.493,140.227L298.996,140.227L298.996,141.519L297.493,141.519L297.493,147.662C297.493,147.991 297.604,148.21 297.827,148.322C297.95,148.386 298.155,148.418 298.442,148.418C298.518,148.418 298.6,148.417 298.688,148.414C298.776,148.411 298.878,148.404 298.996,148.392L298.996,149.64C298.814,149.693 298.625,149.731 298.429,149.754C298.232,149.778 298.02,149.789 297.791,149.789C297.053,149.789 296.552,149.6 296.288,149.223C296.025,148.845 295.893,148.354 295.893,147.75L295.893,141.519L294.619,141.519L294.619,140.227L295.893,140.227L295.893,137.599Z" style="fill-rule:nonzero;"/>
            <path d="M304.413,148.62C305.462,148.62 306.181,148.223 306.571,147.43C306.96,146.636 307.155,145.752 307.155,144.78C307.155,143.901 307.014,143.186 306.733,142.635C306.288,141.768 305.52,141.334 304.43,141.334C303.464,141.334 302.761,141.703 302.321,142.442C301.882,143.18 301.662,144.071 301.662,145.114C301.662,146.116 301.882,146.951 302.321,147.619C302.761,148.286 303.458,148.62 304.413,148.62ZM304.474,139.954C305.687,139.954 306.713,140.359 307.551,141.167C308.388,141.976 308.807,143.165 308.807,144.736C308.807,146.253 308.438,147.507 307.7,148.497C306.962,149.488 305.816,149.983 304.263,149.983C302.969,149.983 301.94,149.545 301.179,148.669C300.417,147.793 300.036,146.617 300.036,145.14C300.036,143.558 300.437,142.298 301.24,141.361C302.043,140.423 303.121,139.954 304.474,139.954Z" style="fill-rule:nonzero;"/>
            <path d="M310.832,140.227L312.335,140.227L312.335,141.853C312.458,141.536 312.76,141.151 313.24,140.697C313.721,140.243 314.275,140.016 314.902,140.016C314.931,140.016 314.981,140.019 315.051,140.025C315.121,140.031 315.241,140.042 315.411,140.06L315.411,141.73C315.318,141.712 315.231,141.701 315.152,141.695C315.073,141.689 314.987,141.686 314.893,141.686C314.096,141.686 313.484,141.942 313.056,142.455C312.628,142.968 312.414,143.558 312.414,144.226L312.414,149.64L310.832,149.64L310.832,140.227Z" style="fill-rule:nonzero;"/>
            <path d="M317.823,146.687C317.87,147.214 318.002,147.619 318.218,147.9C318.617,148.41 319.308,148.664 320.293,148.664C320.879,148.664 321.394,148.537 321.839,148.282C322.285,148.027 322.507,147.633 322.507,147.1C322.507,146.696 322.329,146.388 321.971,146.177C321.743,146.048 321.292,145.899 320.618,145.729L319.361,145.412C318.558,145.213 317.966,144.991 317.586,144.744C316.906,144.317 316.566,143.725 316.566,142.969C316.566,142.078 316.887,141.358 317.528,140.807C318.17,140.256 319.033,139.981 320.117,139.981C321.535,139.981 322.557,140.397 323.184,141.229C323.577,141.756 323.767,142.325 323.755,142.934L322.261,142.934C322.232,142.577 322.106,142.251 321.883,141.958C321.52,141.542 320.89,141.334 319.994,141.334C319.396,141.334 318.943,141.449 318.636,141.677C318.328,141.906 318.174,142.207 318.174,142.582C318.174,142.993 318.377,143.321 318.781,143.567C319.015,143.713 319.361,143.842 319.818,143.953L320.864,144.208C322.001,144.484 322.762,144.75 323.149,145.008C323.764,145.412 324.072,146.048 324.072,146.915C324.072,147.753 323.754,148.477 323.118,149.086C322.483,149.696 321.514,150 320.213,150C318.813,150 317.821,149.682 317.238,149.047C316.655,148.411 316.343,147.624 316.302,146.687L317.823,146.687Z" style="fill-rule:nonzero;"/>
        </g>
    </g>
    <g transform="matrix(1.04199,0,0,1.04199,149.625,-469.93)">
        <g>
            <g transform="matrix(1.23005,0,0,1.38459,498.866,87.6223)">
                <path d="M147.051,424.029L149.117,424.029L155.638,434.488L155.638,424.029L157.299,424.029L157.299,436.94L155.339,436.94L148.721,426.49L148.721,436.94L147.051,436.94L147.051,424.029Z" style="fill-rule:nonzero;"/>
                <path d="M163.575,435.92C164.623,435.92 165.343,435.523 165.732,434.73C166.122,433.936 166.317,433.052 166.317,432.08C166.317,431.201 166.176,430.486 165.895,429.935C165.45,429.068 164.682,428.634 163.592,428.634C162.625,428.634 161.922,429.003 161.483,429.742C161.043,430.48 160.824,431.371 160.824,432.414C160.824,433.416 161.043,434.251 161.483,434.919C161.922,435.586 162.619,435.92 163.575,435.92ZM163.636,427.254C164.849,427.254 165.874,427.659 166.712,428.467C167.55,429.276 167.969,430.465 167.969,432.036C167.969,433.553 167.6,434.807 166.862,435.797C166.123,436.788 164.978,437.283 163.425,437.283C162.13,437.283 161.102,436.845 160.34,435.969C159.578,435.093 159.198,433.917 159.198,432.44C159.198,430.858 159.599,429.598 160.402,428.661C161.204,427.723 162.283,427.254 163.636,427.254Z" style="fill-rule:nonzero;"/>
                <path d="M169.85,427.527L171.353,427.527L171.353,428.863C171.798,428.312 172.27,427.917 172.768,427.676C173.266,427.436 173.82,427.316 174.429,427.316C175.765,427.316 176.667,427.782 177.136,428.713C177.394,429.223 177.523,429.953 177.523,430.902L177.523,436.94L175.914,436.94L175.914,431.007C175.914,430.433 175.829,429.97 175.659,429.619C175.378,429.033 174.868,428.74 174.13,428.74C173.755,428.74 173.448,428.778 173.207,428.854C172.774,428.983 172.393,429.241 172.065,429.628C171.801,429.938 171.63,430.259 171.551,430.59C171.472,430.921 171.432,431.394 171.432,432.009L171.432,436.94L169.85,436.94L169.85,427.527Z" style="fill-rule:nonzero;"/>
                <rect x="179.448" y="431.113" width="4.412" height="1.626" style="fill-rule:nonzero;"/>
                <path d="M189.485,427.254C190.545,427.254 191.408,427.512 192.073,428.028C192.738,428.544 193.138,429.431 193.273,430.691L191.735,430.691C191.641,430.111 191.427,429.629 191.093,429.245C190.759,428.861 190.223,428.669 189.485,428.669C188.477,428.669 187.756,429.162 187.323,430.146C187.041,430.785 186.901,431.573 186.901,432.51C186.901,433.454 187.1,434.248 187.498,434.892C187.897,435.537 188.524,435.859 189.379,435.859C190.035,435.859 190.555,435.658 190.939,435.257C191.323,434.856 191.588,434.306 191.735,433.609L193.273,433.609C193.097,434.857 192.658,435.77 191.954,436.347C191.251,436.924 190.352,437.212 189.256,437.212C188.026,437.212 187.044,436.763 186.312,435.863C185.579,434.964 185.213,433.84 185.213,432.493C185.213,430.84 185.615,429.554 186.417,428.634C187.22,427.714 188.243,427.254 189.485,427.254Z" style="fill-rule:nonzero;"/>
                <path d="M198.59,435.92C199.639,435.92 200.358,435.523 200.748,434.73C201.138,433.936 201.332,433.052 201.332,432.08C201.332,431.201 201.192,430.486 200.91,429.935C200.465,429.068 199.698,428.634 198.608,428.634C197.641,428.634 196.938,429.003 196.498,429.742C196.059,430.48 195.839,431.371 195.839,432.414C195.839,433.416 196.059,434.251 196.498,434.919C196.938,435.586 197.635,435.92 198.59,435.92ZM198.652,427.254C199.865,427.254 200.89,427.659 201.728,428.467C202.566,429.276 202.985,430.465 202.985,432.036C202.985,433.553 202.616,434.807 201.877,435.797C201.139,436.788 199.993,437.283 198.441,437.283C197.146,437.283 196.118,436.845 195.356,435.969C194.594,435.093 194.213,433.917 194.213,432.44C194.213,430.858 194.615,429.598 195.417,428.661C196.22,427.723 197.298,427.254 198.652,427.254Z" style="fill-rule:nonzero;"/>
                <path d="M204.866,427.527L206.43,427.527L206.43,428.863C206.805,428.4 207.145,428.063 207.45,427.852C207.971,427.495 208.563,427.316 209.225,427.316C209.975,427.316 210.578,427.501 211.035,427.87C211.293,428.081 211.528,428.391 211.739,428.801C212.09,428.297 212.503,427.924 212.978,427.681C213.452,427.438 213.986,427.316 214.577,427.316C215.843,427.316 216.704,427.773 217.161,428.687C217.408,429.179 217.531,429.841 217.531,430.673L217.531,436.94L215.887,436.94L215.887,430.401C215.887,429.774 215.73,429.343 215.417,429.109C215.103,428.875 214.721,428.757 214.27,428.757C213.649,428.757 213.114,428.965 212.666,429.381C212.218,429.797 211.993,430.492 211.993,431.464L211.993,436.94L210.385,436.94L210.385,430.796C210.385,430.158 210.309,429.692 210.157,429.399C209.916,428.96 209.468,428.74 208.812,428.74C208.214,428.74 207.671,428.971 207.181,429.434C206.692,429.897 206.448,430.735 206.448,431.948L206.448,436.94L204.866,436.94L204.866,427.527Z" style="fill-rule:nonzero;"/>
                <path d="M223.832,435.877C224.571,435.877 225.184,435.567 225.674,434.949C226.163,434.331 226.408,433.407 226.408,432.176C226.408,431.426 226.299,430.782 226.082,430.243C225.672,429.206 224.922,428.687 223.832,428.687C222.737,428.687 221.987,429.235 221.582,430.331C221.366,430.917 221.257,431.661 221.257,432.563C221.257,433.29 221.366,433.908 221.582,434.418C221.993,435.39 222.743,435.877 223.832,435.877ZM219.737,427.571L221.275,427.571L221.275,428.819C221.591,428.391 221.937,428.06 222.312,427.826C222.845,427.474 223.472,427.298 224.193,427.298C225.259,427.298 226.164,427.707 226.909,428.524C227.653,429.342 228.025,430.509 228.025,432.027C228.025,434.078 227.489,435.543 226.416,436.421C225.737,436.978 224.946,437.256 224.043,437.256C223.334,437.256 222.74,437.101 222.259,436.791C221.978,436.615 221.664,436.313 221.319,435.885L221.319,440.693L219.737,440.693L219.737,427.571Z" style="fill-rule:nonzero;"/>
                <path d="M233.79,427.316C234.458,427.316 235.106,427.473 235.733,427.786C236.36,428.1 236.837,428.505 237.165,429.003C237.482,429.478 237.693,430.032 237.798,430.665C237.892,431.098 237.939,431.79 237.939,432.739L231.039,432.739C231.069,433.694 231.294,434.46 231.716,435.037C232.138,435.614 232.791,435.903 233.676,435.903C234.502,435.903 235.161,435.63 235.654,435.086C235.935,434.769 236.134,434.403 236.251,433.987L237.807,433.987C237.766,434.333 237.63,434.718 237.398,435.143C237.167,435.567 236.908,435.915 236.62,436.184C236.14,436.653 235.545,436.969 234.836,437.133C234.455,437.227 234.025,437.274 233.544,437.274C232.372,437.274 231.379,436.848 230.565,435.995C229.75,435.143 229.343,433.949 229.343,432.414C229.343,430.902 229.753,429.674 230.574,428.731C231.394,427.788 232.466,427.316 233.79,427.316ZM236.313,431.482C236.248,430.796 236.099,430.249 235.865,429.838C235.431,429.077 234.707,428.696 233.694,428.696C232.967,428.696 232.358,428.958 231.866,429.482C231.373,430.007 231.113,430.673 231.083,431.482L236.313,431.482Z" style="fill-rule:nonzero;"/>
                <path d="M240.198,424.899L241.797,424.899L241.797,427.527L243.3,427.527L243.3,428.819L241.797,428.819L241.797,434.962C241.797,435.291 241.909,435.51 242.131,435.622C242.254,435.686 242.459,435.718 242.746,435.718C242.823,435.718 242.905,435.717 242.993,435.714C243.08,435.711 243.183,435.704 243.3,435.692L243.3,436.94C243.118,436.993 242.93,437.031 242.733,437.054C242.537,437.078 242.325,437.089 242.096,437.089C241.358,437.089 240.857,436.9 240.593,436.523C240.329,436.145 240.198,435.654 240.198,435.05L240.198,428.819L238.923,428.819L238.923,427.527L240.198,427.527L240.198,424.899Z" style="fill-rule:nonzero;"/>
                <path d="M244.882,427.571L246.491,427.571L246.491,436.94L244.882,436.94L244.882,427.571ZM244.882,424.029L246.491,424.029L246.491,425.822L244.882,425.822L244.882,424.029Z" style="fill-rule:nonzero;"/>
                <path d="M249.198,424.899L250.797,424.899L250.797,427.527L252.3,427.527L252.3,428.819L250.797,428.819L250.797,434.962C250.797,435.291 250.909,435.51 251.131,435.622C251.254,435.686 251.459,435.718 251.746,435.718C251.823,435.718 251.905,435.717 251.993,435.714C252.08,435.711 252.183,435.704 252.3,435.692L252.3,436.94C252.118,436.993 251.93,437.031 251.733,437.054C251.537,437.078 251.325,437.089 251.096,437.089C250.358,437.089 249.857,436.9 249.593,436.523C249.329,436.145 249.198,435.654 249.198,435.05L249.198,428.819L247.923,428.819L247.923,427.527L249.198,427.527L249.198,424.899Z" style="fill-rule:nonzero;"/>
                <path d="M253.882,427.571L255.491,427.571L255.491,436.94L253.882,436.94L253.882,427.571ZM253.882,424.029L255.491,424.029L255.491,425.822L253.882,425.822L253.882,424.029Z" style="fill-rule:nonzero;"/>
                <path d="M258.655,427.527L261.168,435.191L263.796,427.527L265.528,427.527L261.977,436.94L260.289,436.94L256.818,427.527L258.655,427.527Z" style="fill-rule:nonzero;"/>
                <path d="M270.801,427.316C271.469,427.316 272.117,427.473 272.743,427.786C273.37,428.1 273.848,428.505 274.176,429.003C274.493,429.478 274.703,430.032 274.809,430.665C274.903,431.098 274.95,431.79 274.95,432.739L268.05,432.739C268.079,433.694 268.305,434.46 268.727,435.037C269.149,435.614 269.802,435.903 270.687,435.903C271.513,435.903 272.172,435.63 272.664,435.086C272.946,434.769 273.145,434.403 273.262,433.987L274.818,433.987C274.777,434.333 274.64,434.718 274.409,435.143C274.178,435.567 273.918,435.915 273.631,436.184C273.151,436.653 272.556,436.969 271.847,437.133C271.466,437.227 271.035,437.274 270.555,437.274C269.383,437.274 268.39,436.848 267.576,435.995C266.761,435.143 266.354,433.949 266.354,432.414C266.354,430.902 266.764,429.674 267.584,428.731C268.405,427.788 269.477,427.316 270.801,427.316ZM273.324,431.482C273.259,430.796 273.11,430.249 272.875,429.838C272.442,429.077 271.718,428.696 270.704,428.696C269.978,428.696 269.368,428.958 268.876,429.482C268.384,430.007 268.123,430.673 268.094,431.482L273.324,431.482Z" style="fill-rule:nonzero;"/>
                <path d="M281.893,427.571L283.501,427.571L283.501,436.94L281.893,436.94L281.893,427.571ZM281.893,424.029L283.501,424.029L283.501,425.822L281.893,425.822L281.893,424.029Z" style="fill-rule:nonzero;"/>
                <path d="M285.892,427.527L287.395,427.527L287.395,428.863C287.84,428.312 288.312,427.917 288.81,427.676C289.308,427.436 289.862,427.316 290.471,427.316C291.807,427.316 292.709,427.782 293.178,428.713C293.436,429.223 293.565,429.953 293.565,430.902L293.565,436.94L291.956,436.94L291.956,431.007C291.956,430.433 291.871,429.97 291.701,429.619C291.42,429.033 290.91,428.74 290.172,428.74C289.797,428.74 289.49,428.778 289.249,428.854C288.816,428.983 288.435,429.241 288.107,429.628C287.843,429.938 287.672,430.259 287.593,430.59C287.513,430.921 287.474,431.394 287.474,432.009L287.474,436.94L285.892,436.94L285.892,427.527Z" style="fill-rule:nonzero;"/>
                <path d="M295.903,423.985L297.485,423.985L297.485,428.801C297.86,428.327 298.197,427.993 298.495,427.799C299.005,427.465 299.641,427.298 300.403,427.298C301.768,427.298 302.694,427.776 303.18,428.731C303.444,429.253 303.576,429.976 303.576,430.902L303.576,436.94L301.95,436.94L301.95,431.007C301.95,430.316 301.862,429.809 301.686,429.487C301.399,428.971 300.86,428.713 300.069,428.713C299.412,428.713 298.818,428.939 298.284,429.39C297.751,429.841 297.485,430.694 297.485,431.948L297.485,436.94L295.903,436.94L295.903,423.985Z" style="fill-rule:nonzero;"/>
                <path d="M305.913,427.571L307.522,427.571L307.522,436.94L305.913,436.94L305.913,427.571ZM305.913,424.029L307.522,424.029L307.522,425.822L305.913,425.822L305.913,424.029Z" style="fill-rule:nonzero;"/>
                <path d="M309.789,423.985L311.327,423.985L311.327,428.669C311.673,428.218 312.086,427.874 312.567,427.637C313.047,427.399 313.569,427.281 314.131,427.281C315.303,427.281 316.254,427.684 316.983,428.489C317.713,429.295 318.077,430.483 318.077,432.053C318.077,433.542 317.717,434.778 316.996,435.762C316.276,436.747 315.277,437.239 313.999,437.239C313.284,437.239 312.681,437.066 312.189,436.72C311.896,436.515 311.582,436.187 311.248,435.736L311.248,436.94L309.789,436.94L309.789,423.985ZM313.903,435.841C314.758,435.841 315.398,435.502 315.823,434.822C316.248,434.142 316.46,433.246 316.46,432.132C316.46,431.142 316.248,430.322 315.823,429.671C315.398,429.021 314.773,428.696 313.947,428.696C313.226,428.696 312.595,428.962 312.053,429.496C311.511,430.029 311.24,430.908 311.24,432.132C311.24,433.017 311.351,433.735 311.574,434.286C311.99,435.323 312.766,435.841 313.903,435.841Z" style="fill-rule:nonzero;"/>
                <path d="M319.923,427.571L321.532,427.571L321.532,436.94L319.923,436.94L319.923,427.571ZM319.923,424.029L321.532,424.029L321.532,425.822L319.923,425.822L319.923,424.029Z" style="fill-rule:nonzero;"/>
                <path d="M324.239,424.899L325.838,424.899L325.838,427.527L327.341,427.527L327.341,428.819L325.838,428.819L325.838,434.962C325.838,435.291 325.95,435.51 326.172,435.622C326.295,435.686 326.5,435.718 326.787,435.718C326.864,435.718 326.946,435.717 327.034,435.714C327.121,435.711 327.224,435.704 327.341,435.692L327.341,436.94C327.159,436.993 326.971,437.031 326.774,437.054C326.578,437.078 326.366,437.089 326.137,437.089C325.399,437.089 324.898,436.9 324.634,436.523C324.37,436.145 324.239,435.654 324.239,435.05L324.239,428.819L322.964,428.819L322.964,427.527L324.239,427.527L324.239,424.899Z" style="fill-rule:nonzero;"/>
                <path d="M332.659,435.92C333.707,435.92 334.427,435.523 334.816,434.73C335.206,433.936 335.401,433.052 335.401,432.08C335.401,431.201 335.26,430.486 334.979,429.935C334.534,429.068 333.766,428.634 332.676,428.634C331.709,428.634 331.006,429.003 330.567,429.742C330.127,430.48 329.908,431.371 329.908,432.414C329.908,433.416 330.127,434.251 330.567,434.919C331.006,435.586 331.703,435.92 332.659,435.92ZM332.72,427.254C333.933,427.254 334.958,427.659 335.796,428.467C336.634,429.276 337.053,430.465 337.053,432.036C337.053,433.553 336.684,434.807 335.946,435.797C335.207,436.788 334.062,437.283 332.509,437.283C331.214,437.283 330.186,436.845 329.424,435.969C328.662,435.093 328.282,433.917 328.282,432.44C328.282,430.858 328.683,429.598 329.486,428.661C330.288,427.723 331.367,427.254 332.72,427.254Z" style="fill-rule:nonzero;"/>
                <path d="M338.978,427.527L340.481,427.527L340.481,429.153C340.604,428.836 340.906,428.451 341.386,427.997C341.867,427.543 342.42,427.316 343.047,427.316C343.076,427.316 343.126,427.319 343.197,427.325C343.267,427.331 343.387,427.342 343.557,427.36L343.557,429.03C343.463,429.012 343.377,429.001 343.298,428.995C343.219,428.989 343.132,428.986 343.038,428.986C342.242,428.986 341.629,429.242 341.201,429.755C340.774,430.268 340.56,430.858 340.56,431.526L340.56,436.94L338.978,436.94L338.978,427.527Z" style="fill-rule:nonzero;"/>
                <path d="M345.868,433.987C345.915,434.514 346.047,434.919 346.264,435.2C346.662,435.71 347.354,435.964 348.338,435.964C348.924,435.964 349.44,435.837 349.885,435.582C350.33,435.327 350.553,434.933 350.553,434.4C350.553,433.996 350.374,433.688 350.017,433.477C349.788,433.348 349.337,433.199 348.663,433.029L347.407,432.712C346.604,432.513 346.012,432.291 345.631,432.044C344.951,431.617 344.612,431.025 344.612,430.269C344.612,429.378 344.932,428.658 345.574,428.107C346.216,427.556 347.078,427.281 348.162,427.281C349.58,427.281 350.603,427.697 351.23,428.529C351.622,429.056 351.813,429.625 351.801,430.234L350.307,430.234C350.278,429.877 350.152,429.551 349.929,429.258C349.566,428.842 348.936,428.634 348.039,428.634C347.442,428.634 346.989,428.749 346.681,428.977C346.374,429.206 346.22,429.507 346.22,429.882C346.22,430.293 346.422,430.621 346.826,430.867C347.061,431.013 347.407,431.142 347.864,431.253L348.909,431.508C350.046,431.784 350.808,432.05 351.195,432.308C351.81,432.712 352.118,433.348 352.118,434.215C352.118,435.053 351.8,435.777 351.164,436.386C350.528,436.996 349.56,437.3 348.259,437.3C346.859,437.3 345.867,436.982 345.284,436.347C344.701,435.711 344.389,434.924 344.348,433.987L345.868,433.987Z" style="fill-rule:nonzero;"/>
            </g>
            <g transform="matrix(1,0,0,1,0,372)">
                <g transform="matrix(1.23005,0,0,1.38459,48.7767,-473.308)">
                    <path d="M711.82,460.19L629.38,436.04L629.66,435.08L712.1,459.23L711.82,460.19ZM629.63,438.72L624.72,434.15L631.32,432.96L629.63,438.72Z" style="fill-rule:nonzero;stroke:black;stroke-width:1.1px;stroke-miterlimit:1.41421;"/>
                </g>
                <g transform="matrix(1.23005,0,0,1.38459,-13.2423,-131.587)">
                    <path d="M726.419,177.167L729.416,177.167L729.416,178.314L727.746,178.314L727.746,190.708L729.416,190.708L729.416,191.855L726.419,191.855L726.419,177.167Z" style="fill-rule:nonzero;"/>
                    <rect x="731.43" y="177.245" width="1.569" height="11.465" style="fill-rule:nonzero;"/>
                    <path d="M734.669,190.708L736.331,190.708L736.331,178.314L734.669,178.314L734.669,177.167L737.666,177.167L737.666,191.855L734.669,191.855L734.669,190.708Z" style="fill-rule:nonzero;"/>
                </g>
            </g>
            <g>
                <g transform="matrix(0,1.38459,1.23005,0,596.765,-188.333)">
                    <path d="M518.22,115.86L604.5,115.86" style="fill:none;stroke:black;stroke-width:2.2px;"/>
                </g>
                <g transform="matrix(1.38459,0,0,1.38459,-51.126,-3.81947)">
                    <path d="M543.141,371.856L543.141,370.644C544.283,370.533 545.079,370.347 545.53,370.087C545.98,369.826 546.317,369.21 546.539,368.238L547.786,368.238L547.786,380.76L546.1,380.76L546.1,371.856L543.141,371.856Z" style="fill-rule:nonzero;"/>
                    <path d="M555.514,367.861L556.848,367.861L552.756,380.76L551.422,380.76L555.514,367.861Z" style="fill-rule:nonzero;"/>
                    <path d="M558.35,371.355L560.861,379.013L563.487,371.355L565.217,371.355L561.669,380.76L559.983,380.76L556.515,371.355L558.35,371.355Z" style="fill-rule:nonzero;"/>
                    <path d="M566.569,371.399L568.176,371.399L568.176,380.76L566.569,380.76L566.569,371.399ZM566.569,367.861L568.176,367.861L568.176,369.652L566.569,369.652L566.569,367.861Z" style="fill-rule:nonzero;"/>
                </g>
            </g>
            <g transform="matrix(1,0,0,1,-383.881,0)">
                <g transform="matrix(0,1.38459,1.23005,0,596.765,-188.333)">
                    <path d="M518.22,115.86L604.5,115.86" style="fill:none;stroke:black;stroke-width:2.2px;"/>
                </g>
                <g transform="matrix(1.38459,0,0,1.38459,-51.126,-3.81947)">
                    <path d="M543.141,371.856L543.141,370.644C544.283,370.533 545.079,370.347 545.53,370.087C545.98,369.826 546.317,369.21 546.539,368.238L547.786,368.238L547.786,380.76L546.1,380.76L546.1,371.856L543.141,371.856Z" style="fill-rule:nonzero;"/>
                    <path d="M555.514,367.861L556.848,367.861L552.756,380.76L551.422,380.76L555.514,367.861Z" style="fill-rule:nonzero;"/>
                    <path d="M558.35,371.355L560.861,379.013L563.487,371.355L565.217,371.355L561.669,380.76L559.983,380.76L556.515,371.355L558.35,371.355Z" style="fill-rule:nonzero;"/>
                    <path d="M566.569,371.399L568.176,371.399L568.176,380.76L566.569,380.76L566.569,371.399ZM566.569,367.861L568.176,367.861L568.176,369.652L566.569,369.652L566.569,367.861Z" style="fill-rule:nonzero;"/>
                </g>
            </g>
            <g transform="matrix(1,0,0,1,-754.326,0)">
                <g transform="matrix(0,1.38459,1.23005,0,596.765,-188.333)">
                    <path d="M518.22,115.86L604.5,115.86" style="fill:none;stroke:black;stroke-width:2.2px;"/>
                </g>
                <g transform="matrix(1.38459,0,0,1.38459,-51.126,-3.81947)">
                    <path d="M543.141,371.856L543.141,370.644C544.283,370.533 545.079,370.347 545.53,370.087C545.98,369.826 546.317,369.21 546.539,368.238L547.786,368.238L547.786,380.76L546.1,380.76L546.1,371.856L543.141,371.856Z" style="fill-rule:nonzero;"/>
                    <path d="M555.514,367.861L556.848,367.861L552.756,380.76L551.422,380.76L555.514,367.861Z" style="fill-rule:nonzero;"/>
                    <path d="M558.35,371.355L560.861,379.013L563.487,371.355L565.217,371.355L561.669,380.76L559.983,380.76L556.515,371.355L558.35,371.355Z" style="fill-rule:nonzero;"/>
                    <path d="M566.569,371.399L568.176,371.399L568.176,380.76L566.569,380.76L566.569,371.399ZM566.569,367.861L568.176,367.861L568.176,369.652L566.569,369.652L566.569,367.861Z" style="fill-rule:nonzero;"/>
                </g>
            </g>
            <g transform="matrix(1.14332,-0.510701,-0.4537,-1.28697,152.67,1058.25)">
                <path d="M513.938,114.42L684.742,114.42" style="fill:none;stroke:black;stroke-width:2.11px;"/>
            </g>
            <g transform="matrix(1.08208,-0.65842,-0.584931,-1.21802,205.328,1129.76)">
                <path d="M509.335,119.22L664.025,119.22" style="fill:none;stroke:black;stroke-width:2.1px;"/>
            </g>
            <g transform="matrix(0.98621,-0.827493,-0.735133,-1.11011,277.276,1202.47)">
                <path d="M505.704,121.44L636.216,121.44" style="fill:none;stroke:black;stroke-width:2.08px;"/>
            </g>
            <g transform="matrix(1.23005,0,0,1.38459,48.7767,15.6611)">
                <path d="M729.769,458.458L729.769,457.29C730.869,457.183 731.637,457.003 732.071,456.752C732.505,456.501 732.83,455.907 733.044,454.971L734.246,454.971L734.246,467.04L732.621,467.04L732.621,458.458L729.769,458.458Z" style="fill-rule:nonzero;"/>
                <path d="M741.694,454.607L742.981,454.607L739.037,467.04L737.75,467.04L741.694,454.607Z" style="fill-rule:nonzero;"/>
                <path d="M743.649,454.522L746.899,454.522L746.899,455.766L745.088,455.766L745.088,469.207L746.899,469.207L746.899,470.451L743.649,470.451L743.649,454.522Z" style="fill-rule:nonzero;"/>
                <path d="M749.802,463.028C749.842,463.734 750.008,464.306 750.302,464.746C750.86,465.57 751.845,465.982 753.256,465.982C753.888,465.982 754.463,465.892 754.982,465.711C755.987,465.361 756.489,464.735 756.489,463.832C756.489,463.155 756.277,462.673 755.854,462.385C755.425,462.103 754.754,461.857 753.84,461.649L752.155,461.268C751.055,461.02 750.276,460.746 749.819,460.447C749.029,459.928 748.634,459.152 748.634,458.119C748.634,457.002 749.021,456.085 749.794,455.369C750.567,454.652 751.662,454.294 753.078,454.294C754.381,454.294 755.489,454.608 756.4,455.237C757.311,455.867 757.767,456.872 757.767,458.255L756.184,458.255C756.099,457.589 755.919,457.078 755.642,456.723C755.129,456.074 754.257,455.749 753.027,455.749C752.034,455.749 751.32,455.958 750.886,456.376C750.451,456.793 750.234,457.279 750.234,457.832C750.234,458.441 750.488,458.887 750.996,459.169C751.329,459.349 752.082,459.575 753.256,459.846L754.999,460.244C755.84,460.436 756.489,460.698 756.946,461.031C757.736,461.612 758.131,462.456 758.131,463.561C758.131,464.938 757.63,465.923 756.628,466.515C755.627,467.108 754.463,467.404 753.137,467.404C751.591,467.404 750.381,467.009 749.506,466.219C748.632,465.435 748.203,464.371 748.22,463.028L749.802,463.028Z" style="fill-rule:nonzero;"/>
                <path d="M759.341,469.207L761.144,469.207L761.144,455.766L759.341,455.766L759.341,454.522L762.591,454.522L762.591,470.451L759.341,470.451L759.341,469.207Z" style="fill-rule:nonzero;"/>
            </g>
        </g>
        <g transform="matrix(1.23005,0,0,1.38459,48.7767,535.05)">
            <path d="M474.72,82.44L720,82.44" style="fill:none;stroke:black;stroke-width:2.2px;"/>
        </g>
    </g>
</svg>
