<?xml version="1.0" encoding="UTF-8" standalone="no"?><!DOCTYPE svg PUBLIC "-//W3C//DTD SVG 1.1//EN" "http://www.w3.org/Graphics/SVG/1.1/DTD/svg11.dtd"><svg width="100%" height="100%" viewBox="0 0 1000 1000" version="1.1" xmlns="http://www.w3.org/2000/svg" xmlns:xlink="http://www.w3.org/1999/xlink" xml:space="preserve" xmlns:serif="http://www.serif.com/" style="fill-rule:evenodd;clip-rule:evenodd;stroke-linecap:round;stroke-linejoin:round;stroke-miterlimit:1.5;"><g><g><path d="M154.837,786.807l690.322,0l49.837,99.674l-789.996,0l49.837,-99.674Z" style="fill:#519aba;stroke:#000;stroke-width:15px;"/><path d="M845.159,786.807l-690.322,0l56.12,-112.24l578.082,0l56.12,112.24Z" style="fill:#4ef47b;stroke:#000;stroke-width:15px;"/><path d="M789.039,675.542l-578.082,0l62.957,-125.914l452.168,0l62.957,125.914Z" style="fill:#f2fb8c;stroke:#000;stroke-width:15px;"/><path d="M726.082,549.628l-452.168,0l81.15,-162.3l289.868,0l81.15,162.3Z" style="fill:#e37933;stroke:#000;stroke-width:15px;"/><path d="M644.932,387.328l-289.868,0l144.934,-289.868l144.934,289.868Z" style="fill:#d51ab8;stroke:#000;stroke-width:15px;"/></g><g><text x="409.908px" y="336.675px" style="font-family:'ArialMT', 'Arial', sans-serif;font-size:56.614px;">History</text><text x="329.674px" y="77.181px" style="font-family:'Arial-BoldMT', 'Arial', sans-serif;font-weight:700;font-size:56.614px;">Highest Form</text><text x="336.156px" y="962.876px" style="font-family:'Arial-BoldMT', 'Arial', sans-serif;font-weight:700;font-size:56.614px;">Lowest Form</text><text x="406.785px" y="488.409px" style="font-family:'ArialMT', 'Arial', sans-serif;font-size:56.614px;">Portrait</text><text x="420.993px" y="632.848px" style="font-family:'ArialMT', 'Arial', sans-serif;font-size:56.614px;">Genre</text><text x="408.678px" y="856.907px" style="font-family:'ArialMT', 'Arial', sans-serif;font-size:56.614px;">Still-life</text><text x="226.785px" y="745.67px" style="font-family:'ArialMT', 'Arial', sans-serif;font-size:56.614px;">Landscape &amp; <tspan x="569.894px 607.655px " y="745.67px 745.67px ">An</tspan>imals</text></g></g></svg>