<?xml version="1.0" encoding="UTF-8" standalone="no"?>
<!-- Created with Inkscape (http://www.inkscape.org/) -->
<svg
   xmlns:svg="http://www.w3.org/2000/svg"
   xmlns="http://www.w3.org/2000/svg"
   version="1.0"
   width="501.95001"
   height="200"
   id="svg2">
  <defs
     id="defs4" />
  <g
     transform="translate(-113.12558,-290.79078)"
     id="layer1">
    <path
       d="M 565.7559,476.02969 L 565.7559,471.2686 L 566.52381,471.2686 C 567.08694,471.2686 567.29171,471.43241 567.29171,471.88293 C 567.29171,472.49462 567.29429,472.49466 567.89828,471.89075 C 569.09551,470.69348 571.60376,470.70886 572.70175,471.92019 C 573.19673,472.46632 573.29619,473.16116 573.38209,476.67527 L 573.4827,480.79078 L 572.69098,480.79078 L 571.8992,480.79078 L 571.8992,477.25836 C 571.8992,474.13548 571.82802,473.65471 571.28489,473.11159 C 570.50888,472.3356 569.11083,472.32313 568.17045,473.08382 C 567.49663,473.62887 567.43803,473.92232 567.34205,477.23058 C 567.2397,480.761 567.23265,480.79078 566.49735,480.79078 L 565.7559,480.79078 L 565.7559,476.02969 z M 149.2371,475.10819 C 149.2371,474.85477 149.02976,474.64744 148.77635,474.64744 C 148.37007,474.64744 148.31559,471.23766 148.31559,445.80254 L 148.31559,416.95766 L 144.41749,417.99658 C 142.27351,418.56798 140.49604,419.00423 140.46752,418.96604 C 140.439,418.92783 140.3324,418.54798 140.23062,418.12194 C 140.0487,417.36044 140.11447,417.32915 144.10378,416.27893 L 148.16202,415.21058 L 148.23962,358.46143 C 148.30822,308.30175 148.37064,301.71229 148.77716,301.71229 C 149.03012,301.71229 149.2371,301.50495 149.2371,301.25154 C 149.2371,300.85953 150.03915,300.79078 154.61252,300.79078 L 159.98796,300.79078 L 159.98796,301.71229 L 159.98796,302.63378 L 155.07327,302.63378 L 150.15861,302.63378 L 150.15861,358.65673 L 150.15861,414.67967 L 153.46065,413.77301 C 157.74385,412.59697 158.57564,412.54202 158.70156,413.42681 C 158.80709,414.16832 158.60922,414.24698 152.99991,415.69354 L 150.15861,416.42626 L 150.15861,445.0761 L 150.15861,473.72594 L 155.07327,473.72594 L 159.98796,473.72594 L 159.98796,474.64744 L 159.98796,475.56894 L 154.61252,475.56894 C 150.03915,475.56894 149.2371,475.50019 149.2371,475.10819 z M 544.56137,474.64744 L 544.56137,473.72594 L 549.47606,473.72594 L 554.39066,473.72594 L 554.39066,428.43061 L 554.39066,383.13527 L 553.23884,382.8321 C 552.60528,382.66537 549.80622,381.96288 547.01868,381.27104 C 544.23113,380.5792 541.73684,379.94972 541.47581,379.87223 C 541.11267,379.7644 538.52179,384.7447 530.44308,401.08016 C 524.63609,412.82203 519.76591,422.429 519.62042,422.429 C 519.09095,422.429 513.23066,418.91024 513.24461,418.60075 C 513.25257,418.42558 518.89725,409.78139 525.78829,399.39147 C 532.67931,389.00154 538.23643,380.47016 538.13734,380.43284 C 538.03826,380.39555 526.00078,383.79966 511.38729,387.99756 L 484.81728,395.6301 L 484.574,406.17555 C 484.44027,411.97554 484.28379,416.76799 484.22633,416.82544 C 484.16886,416.8829 483.7459,416.83553 483.28633,416.72018 C 482.46467,416.51397 482.45376,416.47917 482.62828,414.63186 C 482.72593,413.59862 482.84063,408.89584 482.88316,404.18124 L 482.96056,395.60924 L 470.29446,392.02017 C 463.32807,390.04618 457.54981,388.35266 457.45398,388.25676 C 457.35808,388.16089 457.32457,387.73955 457.37953,387.32048 L 457.47946,386.55852 L 470.67223,390.30341 L 483.86501,394.04828 L 512.1398,385.95923 L 540.41459,377.87016 L 547.24429,379.56938 C 551.00064,380.50395 554.14525,381.26859 554.23237,381.26859 C 554.31939,381.26859 554.39066,363.57577 554.39066,341.95119 L 554.39066,302.63378 L 549.47606,302.63378 L 544.56137,302.63378 L 544.56137,301.71229 L 544.56137,300.79078 L 549.93677,300.79078 C 554.51014,300.79078 555.31216,300.85953 555.31216,301.25154 C 555.31216,301.50495 555.51951,301.71229 555.77295,301.71229 C 556.18013,301.71229 556.23374,306.36355 556.23374,341.73065 L 556.23374,381.74901 L 562.94964,383.40845 L 569.66562,385.06792 L 569.45191,385.85596 C 569.18892,386.82584 569.36987,386.8454 562.31259,385.0838 C 559.32074,384.33698 556.72901,383.72593 556.55321,383.72593 C 556.33335,383.72593 556.23374,397.90919 556.23374,429.18668 C 556.23374,469.39146 556.18044,474.64744 555.77295,474.64744 C 555.51951,474.64744 555.31216,474.85477 555.31216,475.10819 C 555.31216,475.50019 554.51014,475.56894 549.93677,475.56894 L 544.56137,475.56894 L 544.56137,474.64744 z M 480.45345,456.40533 C 478.49765,455.76592 476.82023,454.26606 475.84892,452.28808 C 475.0892,450.74098 474.98792,450.19166 474.98792,447.61672 C 474.98792,445.03916 475.08882,444.49325 475.85218,442.93869 C 477.70056,439.17458 481.5356,437.59336 485.75986,438.85363 C 489.01478,439.82472 491.01979,442.67027 491.32888,446.75739 C 491.75744,452.42361 488.69682,456.40592 483.6795,456.71042 C 482.54466,456.77928 481.21173,456.65322 480.45345,456.40533 z M 486.42518,453.56749 C 487.91103,452.3831 488.67529,450.82077 488.88151,448.54642 C 489.19772,445.05956 487.89996,442.24425 485.4673,441.13953 C 482.29183,439.69746 478.73873,441.31968 477.74521,444.66519 C 476.10865,450.17602 478.84616,454.89656 483.5071,454.60111 C 484.90227,454.51268 485.50915,454.29771 486.42518,453.56749 z M 457.63297,447.61672 L 457.63297,438.70887 L 458.86166,438.70887 L 460.09035,438.70887 L 460.09035,442.39487 L 460.09035,446.08088 L 464.69785,446.08088 L 469.30534,446.08088 L 469.30534,442.39487 L 469.30534,438.70887 L 470.53403,438.70887 L 471.76271,438.70887 L 471.76271,447.61672 L 471.76271,456.52457 L 470.53403,456.52457 L 469.30534,456.52457 L 469.30534,452.37781 L 469.30534,448.23106 L 464.69785,448.23106 L 460.09035,448.23106 L 460.09035,452.37781 L 460.09035,456.52457 L 458.86166,456.52457 L 457.63297,456.52457 L 457.63297,447.61672 z M 283.86642,447.80465 C 281.9106,447.16524 280.23321,445.66537 279.2619,443.6874 C 278.50216,442.1403 278.40092,441.59098 278.40092,439.01603 C 278.40092,436.43847 278.50177,435.89257 279.26516,434.338 C 281.11356,430.5739 284.94856,428.99268 289.17281,430.25294 C 292.42778,431.22404 294.43279,434.06959 294.7419,438.15671 C 295.17043,443.82292 292.10982,447.80523 287.09249,448.10974 C 285.95768,448.17859 284.62468,448.05254 283.86642,447.80465 z M 289.83819,444.96681 C 291.32397,443.78242 292.08827,442.22008 292.2945,439.94574 C 292.61067,436.45888 291.31294,433.64355 288.88026,432.53883 C 285.70477,431.09678 282.15171,432.719 281.15821,436.06451 C 279.52166,441.57534 282.25912,446.29588 286.9201,446.00043 C 288.31523,445.912 288.92214,445.69702 289.83819,444.96681 z M 297.90604,439.01603 L 297.90604,430.10819 L 299.13471,430.10819 L 300.36338,430.10819 L 300.36338,433.79419 L 300.36338,437.4802 L 304.97088,437.4802 L 309.5784,437.4802 L 309.5784,433.79419 L 309.5784,430.10819 L 310.80707,430.10819 L 312.03574,430.10819 L 312.03574,439.01603 L 312.03574,447.92388 L 310.80707,447.92388 L 309.5784,447.92388 L 309.5784,443.77713 L 309.5784,439.63037 L 304.97088,439.63037 L 300.36338,439.63037 L 300.36338,443.77713 L 300.36338,447.92388 L 299.13471,447.92388 L 297.90604,447.92388 L 297.90604,439.01603 z M 508.09848,439.20397 C 506.14267,438.56456 504.46525,437.06468 503.49402,435.08672 C 502.73422,433.53961 502.63301,432.9903 502.63301,430.41535 C 502.63301,427.83779 502.73384,427.29189 503.49728,425.73732 C 505.34565,421.97322 509.18062,420.392 513.40488,421.65226 C 516.65988,422.62336 518.66488,425.4689 518.97397,429.55603 C 519.40254,435.22223 516.34192,439.20455 511.32459,439.50905 C 510.18975,439.57791 508.85675,439.45186 508.09848,439.20397 z M 514.07029,436.36613 C 515.55605,435.18174 516.32031,433.6194 516.5266,431.34506 C 516.84273,427.8582 515.54498,425.04287 513.11231,423.93815 C 509.93685,422.4961 506.38375,424.11832 505.39031,427.46382 C 503.75375,432.97465 506.49118,437.6952 511.1522,437.39975 C 512.54729,437.31132 513.15424,437.09634 514.07029,436.36613 z M 482.20775,435.25324 C 482.20851,434.36629 482.29743,432.10853 482.40539,430.23599 C 482.59947,426.86781 482.60933,426.83285 483.32545,426.96975 L 484.04938,427.10813 L 484.04938,431.987 L 484.04938,436.86587 L 483.12788,436.86587 C 482.22079,436.86587 482.20638,436.84058 482.20775,435.25324 z M 384.64346,423.42611 C 372.53221,416.44117 372.02534,416.11267 372.32929,415.44557 C 372.50364,415.0629 372.75387,414.74983 372.88536,414.74983 C 373.01684,414.74983 378.53244,417.87414 385.14225,421.69276 C 391.75204,425.51138 397.20703,428.58689 397.26434,428.52724 C 397.32173,428.46758 403.80952,417.16714 411.68172,403.41516 L 425.99476,378.41157 L 425.99476,364.32814 L 425.99476,350.2447 L 426.76267,350.2447 L 427.53065,350.2447 L 427.53065,364.16535 L 427.53065,378.08597 L 438.05112,381.06379 C 443.83734,382.70159 449.08992,384.18441 449.72348,384.35896 C 450.72284,384.63429 450.87529,384.79641 450.87529,385.58338 C 450.87529,386.08226 450.8408,386.48878 450.79849,386.48676 C 450.75627,386.48473 445.4692,384.98068 439.04941,383.14442 C 432.62956,381.30816 427.28426,379.89301 427.17084,379.99964 C 426.8635,380.28865 399.55683,428.0403 399.65106,428.12401 C 399.69556,428.16355 411.7921,424.03123 426.53235,418.94107 L 453.33267,409.68624 L 453.32706,391.40745 L 453.32146,373.12866 L 443.48679,360.68839 L 433.65211,348.24812 L 434.32654,347.69831 C 434.69749,347.39592 435.09709,347.2577 435.21445,347.39114 C 435.33189,347.5246 439.87016,353.26947 445.29953,360.15755 L 455.17105,372.68131 L 455.25011,391.91058 L 455.32927,411.13986 L 478.3925,417.75351 L 501.45572,424.36714 L 500.78699,426.68408 C 500.41923,427.9584 499.97125,429.05004 499.79157,429.10995 C 499.61183,429.16986 489.85076,426.45996 478.10032,423.08795 L 456.73581,416.95704 L 427.19669,423.83977 C 410.95013,427.62528 397.57139,430.71991 397.46608,430.71671 C 397.36078,430.71353 391.59063,427.43276 384.64346,423.42611 z M 123.12789,421.50751 L 123.12789,412.59965 L 124.35656,412.59965 L 125.58523,412.59965 L 125.58523,416.28565 L 125.58523,419.97167 L 130.19273,419.97167 L 134.80025,419.97167 L 134.80025,416.28565 L 134.80025,412.59965 L 136.02891,412.59965 L 137.25758,412.59965 L 137.25758,421.50751 L 137.25758,430.41535 L 136.02891,430.41535 L 134.80025,430.41535 L 134.80025,426.2686 L 134.80025,422.12184 L 130.19273,422.12184 L 125.58523,422.12184 L 125.58523,426.2686 L 125.58523,430.41535 L 124.35656,430.41535 L 123.12789,430.41535 L 123.12789,421.50751 z M 273.80755,417.76201 C 270.10397,411.33994 266.9092,406.02236 266.70805,405.94518 C 266.5069,405.86799 254.28921,409.22142 239.5576,413.39722 L 212.77289,420.98962 L 196.59373,417.31511 C 180.61332,413.68572 180.4156,413.6316 180.49799,412.90871 C 180.54387,412.5062 180.62891,412.12934 180.68697,412.07129 C 180.74503,412.01323 185.89094,413.12496 192.12232,414.54181 C 198.35371,415.95865 203.49833,417.08025 203.5548,417.03426 C 203.61127,416.98825 198.11682,405.9932 191.3449,392.60079 L 179.03232,368.25097 L 179.03232,354.02599 L 179.03232,339.80102 L 179.95069,339.80102 L 180.86907,339.80102 L 180.94899,353.69599 L 181.02891,367.59095 L 205.75588,374.73015 C 219.3557,378.65672 230.58633,381.83785 230.71282,381.79935 C 230.83932,381.76085 224.38546,377.31802 216.37092,371.92641 L 201.79902,362.12348 L 202.21712,361.32915 C 203.82727,358.27008 216.16615,337.20331 216.3857,337.13845 C 216.53674,337.09383 216.90384,337.24185 217.20148,337.46739 C 217.69994,337.84509 217.20799,338.80306 210.97032,349.60158 C 207.24553,356.04984 204.27837,361.45577 204.37662,361.61475 C 204.63972,362.04045 236.15844,383.16729 236.76841,383.3268 C 237.05405,383.40149 247.42572,380.5506 259.81661,376.99147 C 272.2075,373.43235 282.37154,370.55431 282.40338,370.59583 C 282.43521,370.63735 282.54305,371.01689 282.64301,371.43924 L 282.82474,372.20716 L 259.90084,378.78566 C 247.29268,382.40384 236.82889,385.3632 236.64797,385.36202 C 236.46705,385.36084 224.2454,381.87514 209.48875,377.61602 C 194.73211,373.35689 182.55784,369.91375 182.43481,369.96458 C 182.04722,370.1247 211.59543,415.8309 212.03015,415.74367 C 212.25284,415.69898 225.07607,412.07919 240.52623,407.69968 L 268.61743,399.73694 L 294.53189,408.63171 C 308.78483,413.52384 320.53556,417.4892 320.64461,417.44362 C 320.75366,417.39804 315.95854,408.8777 309.98879,398.50952 C 304.01905,388.14136 299.13471,379.57008 299.13471,379.46226 C 299.13471,379.23299 300.38167,378.41491 300.51059,378.5596 C 300.55864,378.61354 305.67747,387.50409 311.88576,398.31638 C 318.09405,409.12866 323.22887,418.03684 323.29648,418.1123 C 323.36408,418.18777 329.5317,416.75457 337.0023,414.92741 C 344.47291,413.10025 350.70778,411.58713 350.85757,411.56493 C 351.00734,411.54273 351.23064,411.87981 351.35376,412.314 L 351.57761,413.10343 L 337.56606,416.57868 C 329.8597,418.49006 323.20894,420.04164 322.78659,420.02663 C 322.36423,420.01162 310.40774,417.30981 296.21662,414.02258 C 282.0255,410.73535 270.38417,408.07566 270.34703,408.11212 C 270.30988,408.14859 272.89635,412.71964 276.09476,418.26999 C 279.29316,423.82035 281.83848,428.47735 281.751,428.61888 C 281.66353,428.76042 281.35557,429.00273 281.06663,429.15736 C 280.6162,429.39843 279.58139,427.77398 273.80755,417.76201 z M 166.83571,419.85244 C 164.87989,419.21302 163.20249,417.71315 162.23118,415.73519 C 161.47145,414.18808 161.3702,413.63877 161.3702,411.06381 C 161.3702,408.48625 161.47106,407.94035 162.23445,406.38579 C 164.08284,402.62168 167.91785,401.04046 172.1421,402.30073 C 175.39707,403.27182 177.40207,406.11737 177.71118,410.20449 C 178.13972,415.8707 175.07911,419.85301 170.06178,420.15751 C 168.92697,420.22638 167.59397,420.10032 166.83571,419.85244 z M 172.80748,417.01459 C 174.29325,415.83021 175.05755,414.26786 175.26378,411.99351 C 175.57995,408.50667 174.28223,405.69134 171.84955,404.58662 C 168.67405,403.14456 165.12099,404.76678 164.12749,408.11229 C 162.49095,413.62313 165.22841,418.34366 169.88939,418.04822 C 171.28451,417.95979 171.89143,417.7448 172.80748,417.01459 z M 359.42956,418.93093 C 357.47374,418.29152 355.79635,416.79166 354.82504,414.81368 C 354.0653,413.26657 353.96406,412.71726 353.96406,410.14232 C 353.96406,407.56475 354.06491,407.01885 354.8283,405.46428 C 356.67669,401.70017 360.5117,400.11896 364.73595,401.37923 C 367.99092,402.35031 369.99593,405.19587 370.30504,409.28299 C 370.73358,414.94921 367.67296,418.93151 362.65563,419.23601 C 361.52082,419.30487 360.18782,419.17882 359.42956,418.93093 z M 365.40133,416.09309 C 366.8871,414.9087 367.6514,413.34637 367.85763,411.07201 C 368.17381,407.58516 366.87608,404.76984 364.4434,403.66512 C 361.2679,402.22306 357.71485,403.84528 356.72134,407.19078 C 355.0848,412.70162 357.82226,417.42215 362.48324,417.12671 C 363.87836,417.03828 364.48528,416.8233 365.40133,416.09309 z M 576.90395,398.04356 C 574.94815,397.40415 573.27072,395.90428 572.29949,393.92632 C 571.5397,392.37919 571.43849,391.82989 571.43849,389.25495 C 571.43849,386.67738 571.53932,386.13148 572.30267,384.57692 C 574.15113,380.81281 577.98609,379.23158 582.21035,380.49186 C 585.46528,381.46295 587.47036,384.30849 587.77944,388.39562 C 588.20802,394.06183 585.1474,398.04414 580.13006,398.34863 C 578.99523,398.4175 577.66223,398.29144 576.90395,398.04356 z M 582.87576,395.20571 C 584.36153,394.02133 585.12579,392.45899 585.332,390.18464 C 585.64822,386.69779 584.35053,383.88246 581.9178,382.77774 C 578.74232,381.3357 575.18922,382.95791 574.19578,386.3034 C 572.55923,391.81424 575.29665,396.53478 579.95767,396.23934 C 581.35277,396.15091 581.95971,395.93593 582.87576,395.20571 z M 590.94363,389.25495 L 590.94363,380.34709 L 592.17224,380.34709 L 593.40092,380.34709 L 593.40092,384.0331 L 593.40092,387.71911 L 598.00841,387.71911 L 602.61598,387.71911 L 602.61598,384.0331 L 602.61598,380.34709 L 603.8446,380.34709 L 605.07329,380.34709 L 605.07329,389.25495 L 605.07329,398.16279 L 603.8446,398.16279 L 602.61598,398.16279 L 602.61598,394.01604 L 602.61598,389.86927 L 598.00841,389.86927 L 593.40092,389.86927 L 593.40092,394.01604 L 593.40092,398.16279 L 592.17224,398.16279 L 590.94363,398.16279 L 590.94363,389.25495 z M 290.6241,377.46335 C 288.66828,376.82395 286.99089,375.32408 286.01958,373.34611 C 285.25984,371.79899 285.1586,371.24969 285.1586,368.67474 C 285.1586,366.09718 285.25945,365.55127 286.02284,363.99671 C 287.87123,360.2326 291.70624,358.65138 295.93049,359.91166 C 299.18546,360.88275 301.19047,363.72829 301.49957,367.81542 C 301.92812,373.48163 298.8675,377.46394 293.85017,377.76843 C 292.71536,377.8373 291.38236,377.71124 290.6241,377.46335 z M 296.59587,374.62551 C 298.08164,373.44113 298.84594,371.87879 299.05217,369.60444 C 299.36835,366.11758 298.07062,363.30227 295.63794,362.19754 C 292.46245,360.75549 288.9094,362.3777 287.91589,365.7232 C 286.27934,371.23405 289.0168,375.95458 293.67778,375.65914 C 295.07291,375.5707 295.67982,375.35573 296.59587,374.62551 z M 423.93465,347.66813 C 421.97884,347.02872 420.30149,345.52885 419.33018,343.55089 C 418.5704,342.00378 418.46919,341.45447 418.46919,338.87952 C 418.46919,336.30196 418.57002,335.75606 419.33344,334.20148 C 421.18182,330.43738 425.01679,328.85615 429.24105,330.11643 C 432.49605,331.08753 434.50106,333.93307 434.81014,338.02019 C 435.23871,343.6864 432.1781,347.66872 427.16076,347.9732 C 426.02593,348.04208 424.69292,347.91602 423.93465,347.66813 z M 429.90645,344.83028 C 431.39223,343.6459 432.15649,342.08356 432.36277,339.80921 C 432.67891,336.32236 431.38123,333.50704 428.94849,332.40232 C 425.77302,330.96027 422.22,332.58249 421.22648,335.92798 C 419.58992,341.43883 422.32735,346.15936 426.98836,345.86392 C 428.38347,345.77549 428.99042,345.5605 429.90645,344.83028 z M 176.97222,336.91728 C 175.0164,336.27788 173.33901,334.77799 172.3677,332.80003 C 171.60797,331.25292 171.50672,330.70361 171.50672,328.12866 C 171.50672,325.5511 171.60758,325.0052 172.37096,323.45063 C 174.21935,319.68653 178.05437,318.1053 182.27862,319.36557 C 185.53358,320.33668 187.53859,323.18222 187.8477,327.26934 C 188.27624,332.93554 185.21562,336.91787 180.1983,337.22235 C 179.06348,337.29122 177.73048,337.16518 176.97222,336.91728 z M 182.94399,334.07944 C 184.42977,332.89505 185.19407,331.33271 185.4003,329.05836 C 185.71647,325.57151 184.41875,322.75619 181.98607,321.65146 C 178.81057,320.20941 175.25752,321.83164 174.26401,325.17713 C 172.62746,330.68797 175.36492,335.40851 180.0259,335.11306 C 181.42103,335.02463 182.02795,334.80965 182.94399,334.07944 z M 191.01185,328.12866 L 191.01185,319.22081 L 192.24052,319.22081 L 193.46918,319.22081 L 193.46918,322.90682 L 193.46918,326.59282 L 198.07669,326.59282 L 202.6842,326.59282 L 202.6842,322.90682 L 202.6842,319.22081 L 203.91287,319.22081 L 205.14153,319.22081 L 205.14153,328.12866 L 205.14153,337.03651 L 203.91287,337.03651 L 202.6842,337.03651 L 202.6842,332.88976 L 202.6842,328.743 L 198.07669,328.743 L 193.46918,328.743 L 193.46918,332.88976 L 193.46918,337.03651 L 192.24052,337.03651 L 191.01185,337.03651 L 191.01185,328.12866 z M 220.2828,335.99578 C 218.32698,335.35637 216.64959,333.8565 215.67828,331.87853 C 214.91855,330.33142 214.8173,329.78211 214.8173,327.20717 C 214.8173,324.62961 214.91815,324.0837 215.68154,322.52912 C 217.52994,318.76502 221.36495,317.1838 225.5892,318.44408 C 228.84416,319.41517 230.84917,322.26071 231.15828,326.34784 C 231.58681,332.01405 228.5262,335.99636 223.50887,336.30086 C 222.37406,336.36972 221.04106,336.24367 220.2828,335.99578 z M 226.25457,333.15793 C 227.74035,331.97355 228.50465,330.41121 228.71088,328.13687 C 229.02705,324.65 227.72932,321.83469 225.29665,320.72996 C 222.12115,319.28791 218.56809,320.91013 217.57459,324.25563 C 215.93805,329.76647 218.67551,334.48701 223.33648,334.19156 C 224.73161,334.10313 225.33853,333.88815 226.25457,333.15793 z M 234.32242,327.20717 L 234.32242,318.29931 L 235.5511,318.29931 L 236.77976,318.29931 L 236.77976,321.98532 L 236.77976,325.67133 L 241.38727,325.67133 L 245.99478,325.67133 L 245.99478,321.98532 L 245.99478,318.29931 L 247.22345,318.29931 L 248.45212,318.29931 L 248.45212,327.20717 L 248.45212,336.11501 L 247.22345,336.11501 L 245.99478,336.11501 L 245.99478,331.96826 L 245.99478,327.8215 L 241.38727,327.8215 L 236.77976,327.8215 L 236.77976,331.96826 L 236.77976,336.11501 L 235.5511,336.11501 L 234.32242,336.11501 L 234.32242,327.20717 z"
       id="path2453"
       style="fill:#000000" />
  </g>
</svg>
